<svg xmlns="http://www.w3.org/2000/svg" viewBox="0 0 502.07 603"><title>multiple_conditional</title><g id="Layer_2" data-name="Layer 2"><g id="multiple_conditional"><line x1="270.07" y1="1" x2="270.07" y2="64.88" style="fill:none;stroke:#000;stroke-linecap:round;stroke-miterlimit:10;stroke-width:2px"/><polygon points="270.07 79 261.94 59.1 270.07 63.82 278.2 59.1 270.07 79"/><rect x="226.23" y="97.55" width="92.63" height="90.13" transform="translate(179.09 -150.94) rotate(45)" style="fill:none;stroke:#000;stroke-linecap:round;stroke-miterlimit:10;stroke-width:2px"/><polyline points="336.07 144 411.07 144 411.07 217.88" style="fill:none;stroke:#000;stroke-linecap:round;stroke-miterlimit:10;stroke-width:2px"/><polygon points="411.07 232 402.94 212.1 411.07 216.82 419.2 212.1 411.07 232"/><rect x="321.07" y="232" width="180" height="82" style="fill:none;stroke:#000;stroke-linecap:round;stroke-miterlimit:10;stroke-width:2px"/><path d="M360.6,257.12c0-.87,0-1.57-.06-2.21h1.1l.07,1.16h0a2.66,2.66,0,0,1,2.41-1.3c1.66,0,2.89,1.39,2.89,3.43,0,2.44-1.5,3.64-3.1,3.64a2.37,2.37,0,0,1-2.08-1.06h0v3.68H360.6Zm1.22,1.81a1.6,1.6,0,0,0,.06.5,1.89,1.89,0,0,0,1.84,1.45c1.31,0,2.06-1.07,2.06-2.62,0-1.35-.71-2.51-2-2.51a2,2,0,0,0-1.87,1.51,2.18,2.18,0,0,0-.08.49Z" transform="translate(-1.58)"/><path d="M373.33,260.06a11.4,11.4,0,0,0,.1,1.63h-1.11l-.1-.86h0a2.51,2.51,0,0,1-2.07,1A1.93,1.93,0,0,1,368,259.9c0-1.64,1.46-2.54,4.08-2.53v-.14a1.39,1.39,0,0,0-1.54-1.55,3.28,3.28,0,0,0-1.78.5l-.28-.82a4.4,4.4,0,0,1,2.24-.59c2.07,0,2.58,1.41,2.58,2.76Zm-1.19-1.83c-1.35,0-2.87.21-2.87,1.53a1.07,1.07,0,0,0,1.14,1.17,1.72,1.72,0,0,0,1.67-1.13,1.48,1.48,0,0,0,.06-.39Z" transform="translate(-1.58)"/><path d="M375.15,260.44a3.37,3.37,0,0,0,1.63.48c.89,0,1.31-.44,1.31-1s-.35-.9-1.25-1.23c-1.23-.45-1.81-1.11-1.81-1.92a2.1,2.1,0,0,1,2.34-2,3.16,3.16,0,0,1,1.66.42l-.3.9a2.63,2.63,0,0,0-1.39-.41c-.72,0-1.12.42-1.12.92s.4.82,1.28,1.17c1.16.43,1.78,1,1.78,2,0,1.2-.94,2-2.52,2a3.88,3.88,0,0,1-1.91-.47Z" transform="translate(-1.58)"/><path d="M387,258.24a3.32,3.32,0,0,1-3.37,3.6,3.23,3.23,0,0,1-3.25-3.49,3.31,3.31,0,0,1,3.36-3.58A3.2,3.2,0,0,1,387,258.24Zm-5.36.07c0,1.49.84,2.61,2,2.61s2.06-1.11,2.06-2.63c0-1.15-.57-2.6-2-2.6S381.63,257,381.63,258.31Z" transform="translate(-1.58)"/><path d="M388.38,260.44a3.37,3.37,0,0,0,1.63.48c.89,0,1.31-.44,1.31-1s-.35-.9-1.25-1.23c-1.23-.45-1.81-1.11-1.81-1.92a2.1,2.1,0,0,1,2.34-2,3.1,3.1,0,0,1,1.65.42l-.29.9a2.57,2.57,0,0,0-1.39-.41c-.72,0-1.12.42-1.12.92s.4.82,1.28,1.17c1.16.43,1.78,1,1.78,2,0,1.2-.94,2-2.52,2a3.88,3.88,0,0,1-1.91-.47Z" transform="translate(-1.58)"/><path d="M401.82,260.06a11.4,11.4,0,0,0,.1,1.63h-1.11l-.1-.86h0a2.51,2.51,0,0,1-2.07,1,1.93,1.93,0,0,1-2.08-1.94c0-1.64,1.46-2.54,4.08-2.53v-.14a1.39,1.39,0,0,0-1.54-1.55,3.28,3.28,0,0,0-1.78.5l-.28-.82a4.4,4.4,0,0,1,2.24-.59c2.07,0,2.58,1.41,2.58,2.76Zm-1.19-1.83c-1.35,0-2.87.21-2.87,1.53a1.07,1.07,0,0,0,1.14,1.17,1.71,1.71,0,0,0,1.67-1.13,1.48,1.48,0,0,0,.06-.39Z" transform="translate(-1.58)"/><path d="M407.46,258.52a2.17,2.17,0,0,0,2.32,2.36,4.5,4.5,0,0,0,1.88-.35l.22.88a5.61,5.61,0,0,1-2.26.43,3.16,3.16,0,0,1-3.34-3.43c0-2,1.21-3.64,3.18-3.64,2.23,0,2.8,1.93,2.8,3.18a2.84,2.84,0,0,1,0,.57Zm3.61-.88a1.75,1.75,0,0,0-1.71-2,2,2,0,0,0-1.89,2Z" transform="translate(-1.58)"/><path d="M412.12,263.68a1.92,1.92,0,0,0,1.34-.53c.34-.38.48-.91.48-2.54v-5.7h1.23v6.18a3.71,3.71,0,0,1-.81,2.78,3.11,3.11,0,0,1-2.1.77ZM415.31,253a.76.76,0,1,1-1.52,0,.76.76,0,1,1,1.52,0Z" transform="translate(-1.58)"/><path d="M417.87,258.52a2.17,2.17,0,0,0,2.33,2.36,4.54,4.54,0,0,0,1.88-.35l.22.88a5.62,5.62,0,0,1-2.27.43,3.15,3.15,0,0,1-3.33-3.43c0-2,1.2-3.64,3.18-3.64,2.22,0,2.8,1.93,2.8,3.18a3.86,3.86,0,0,1,0,.57Zm3.62-.88a1.76,1.76,0,0,0-1.71-2,2,2,0,0,0-1.89,2Z" transform="translate(-1.58)"/><path d="M429,261.45a4.8,4.8,0,0,1-1.94.39,3.22,3.22,0,0,1-3.38-3.46,3.46,3.46,0,0,1,3.64-3.61,3.93,3.93,0,0,1,1.71.36l-.28.94a3,3,0,0,0-1.43-.32,2.56,2.56,0,0,0,0,5.1,3.58,3.58,0,0,0,1.51-.32Z" transform="translate(-1.58)"/><path d="M436.15,259.83c0,.71,0,1.33.05,1.86h-1.09l-.07-1.11h0a2.53,2.53,0,0,1-2.24,1.26c-1.06,0-2.34-.6-2.34-3v-4h1.23v3.74c0,1.29.41,2.17,1.52,2.17a1.77,1.77,0,0,0,1.62-1.13,1.73,1.73,0,0,0,.11-.63v-4.15h1.24Z" transform="translate(-1.58)"/><path d="M439.67,253.28v1.63h1.77v.94h-1.77v3.65c0,.84.24,1.32.93,1.32a2.51,2.51,0,0,0,.71-.08l.06.93a3.24,3.24,0,0,1-1.1.17,1.74,1.74,0,0,1-1.33-.52,2.66,2.66,0,0,1-.47-1.77v-3.7h-1.05v-.94h1.05v-1.26Z" transform="translate(-1.58)"/><path d="M447.58,260.06a11.4,11.4,0,0,0,.1,1.63h-1.11l-.09-.86h-.05a2.48,2.48,0,0,1-2.07,1,1.93,1.93,0,0,1-2.07-1.94c0-1.64,1.46-2.54,4.07-2.53v-.14a1.39,1.39,0,0,0-1.54-1.55,3.31,3.31,0,0,0-1.78.5l-.28-.82a4.41,4.41,0,0,1,2.25-.59c2.07,0,2.57,1.41,2.57,2.76Zm-1.19-1.83c-1.34,0-2.87.21-2.87,1.53a1.08,1.08,0,0,0,1.15,1.17,1.72,1.72,0,0,0,1.67-1.13,1.44,1.44,0,0,0,.05-.39Z" transform="translate(-1.58)"/><path d="M449.57,257c0-.79,0-1.48-.06-2.11h1.08l.06,1.34h0a2,2,0,0,1,1.89-1.48,1.87,1.87,0,0,1,.34,0V256a1.84,1.84,0,0,0-.42,0,1.73,1.73,0,0,0-1.66,1.57,3.52,3.52,0,0,0,0,.58v3.61h-1.23Z" transform="translate(-1.58)"/><path d="M457,260.44a3.37,3.37,0,0,0,1.63.48c.89,0,1.31-.44,1.31-1s-.35-.9-1.25-1.23c-1.23-.45-1.81-1.11-1.81-1.92a2.1,2.1,0,0,1,2.34-2,3.16,3.16,0,0,1,1.66.42l-.3.9a2.56,2.56,0,0,0-1.38-.41c-.73,0-1.12.42-1.12.92s.39.82,1.27,1.17c1.16.43,1.78,1,1.78,2,0,1.2-.94,2-2.52,2a3.88,3.88,0,0,1-1.91-.47Z" transform="translate(-1.58)"/><path d="M464,253a.77.77,0,0,1-1.53,0,.75.75,0,0,1,.77-.77A.74.74,0,0,1,464,253Zm-1.37,8.69v-6.78h1.23v6.78Z" transform="translate(-1.58)"/><path d="M364.32,268.54h1.23v9.95h-1.23Z" transform="translate(-1.58)"/><path d="M372.38,276.86a11.4,11.4,0,0,0,.1,1.63h-1.11l-.09-.86h0a2.48,2.48,0,0,1-2.07,1,1.93,1.93,0,0,1-2.07-1.94c0-1.64,1.45-2.54,4.07-2.53V274a1.39,1.39,0,0,0-1.54-1.55,3.31,3.31,0,0,0-1.78.5l-.28-.82a4.4,4.4,0,0,1,2.24-.59c2.08,0,2.58,1.41,2.58,2.76ZM371.19,275c-1.34,0-2.87.21-2.87,1.53a1.08,1.08,0,0,0,1.15,1.17,1.72,1.72,0,0,0,1.67-1.13,1.44,1.44,0,0,0,.05-.39Z" transform="translate(-1.58)"/><path d="M382.17,278.25a4.85,4.85,0,0,1-1.95.39,3.22,3.22,0,0,1-3.37-3.46,3.45,3.45,0,0,1,3.64-3.61,3.93,3.93,0,0,1,1.71.36l-.28.94a3.11,3.11,0,0,0-1.43-.32,2.56,2.56,0,0,0,0,5.1,3.58,3.58,0,0,0,1.51-.32Z" transform="translate(-1.58)"/><path d="M389.66,275a3.32,3.32,0,0,1-3.38,3.6,3.23,3.23,0,0,1-3.25-3.49,3.31,3.31,0,0,1,3.37-3.58A3.2,3.2,0,0,1,389.66,275Zm-5.37.07c0,1.49.84,2.61,2,2.61s2.06-1.11,2.06-2.64c0-1.14-.58-2.59-2-2.59S384.29,273.84,384.29,275.11Z" transform="translate(-1.58)"/><path d="M391.21,273.54c0-.71,0-1.27-.06-1.83h1.1l.07,1.12h0a2.52,2.52,0,0,1,2.25-1.26c.93,0,2.39.56,2.39,2.88v4h-1.23v-3.91c0-1.09-.41-2-1.57-2a1.76,1.76,0,0,0-1.65,1.26,1.62,1.62,0,0,0-.09.57v4.08h-1.23Z" transform="translate(-1.58)"/><path d="M404.82,268.54v8.2c0,.6,0,1.29.06,1.75h-1.09l-.06-1.18h0a2.45,2.45,0,0,1-2.29,1.33c-1.64,0-2.91-1.38-2.91-3.44,0-2.26,1.4-3.63,3-3.63a2.26,2.26,0,0,1,2,1h0v-4Zm-1.22,5.93a2.24,2.24,0,0,0-.05-.52,1.82,1.82,0,0,0-1.78-1.41c-1.28,0-2,1.12-2,2.6s.68,2.51,2,2.51a1.87,1.87,0,0,0,1.81-1.47,2.27,2.27,0,0,0,.05-.53Z" transform="translate(-1.58)"/><path d="M408.25,269.8a.77.77,0,0,1-1.53,0,.75.75,0,0,1,.77-.77A.74.74,0,0,1,408.25,269.8Zm-1.37,8.69v-6.78h1.23v6.78Z" transform="translate(-1.58)"/><path d="M415,278.25a4.8,4.8,0,0,1-1.94.39,3.22,3.22,0,0,1-3.38-3.46,3.46,3.46,0,0,1,3.64-3.61,3.9,3.9,0,0,1,1.71.36l-.28.94a3,3,0,0,0-1.43-.32,2.56,2.56,0,0,0,0,5.1,3.58,3.58,0,0,0,1.51-.32Z" transform="translate(-1.58)"/><path d="M417.8,269.8a.74.74,0,0,1-.79.76.72.72,0,0,1-.74-.76A.75.75,0,0,1,417,269,.74.74,0,0,1,417.8,269.8Zm-1.38,8.69v-6.78h1.24v6.78Z" transform="translate(-1.58)"/><path d="M425.83,275a3.32,3.32,0,0,1-3.37,3.6,3.23,3.23,0,0,1-3.25-3.49,3.31,3.31,0,0,1,3.36-3.58A3.2,3.2,0,0,1,425.83,275Zm-5.36.07c0,1.49.84,2.61,2,2.61s2.05-1.11,2.05-2.64c0-1.14-.57-2.59-2-2.59S420.47,273.84,420.47,275.11Zm3.89-6.33-1.7,2h-.87l1.22-2Z" transform="translate(-1.58)"/><path d="M427.39,273.54c0-.71,0-1.27-.06-1.83h1.09l.07,1.12h0a2.51,2.51,0,0,1,2.24-1.26c.94,0,2.4.56,2.4,2.88v4h-1.24v-3.91c0-1.09-.4-2-1.56-2a1.79,1.79,0,0,0-1.66,1.26,1.91,1.91,0,0,0-.08.57v4.08h-1.23Z" transform="translate(-1.58)"/><path d="M439.69,275.52l-1,3h-1.26l3.22-9.44h1.46l3.22,9.44h-1.3l-1-3Zm3.11-.95-.94-2.72c-.21-.62-.35-1.18-.49-1.72h0c-.14.54-.28,1.13-.48,1.7l-.92,2.74Z" transform="translate(-1.58)"/><path d="M450.35,275.32a2.16,2.16,0,0,0,2.32,2.36,4.54,4.54,0,0,0,1.88-.35l.22.88a5.62,5.62,0,0,1-2.27.43,3.16,3.16,0,0,1-3.33-3.43c0-2,1.2-3.64,3.18-3.64,2.23,0,2.8,1.93,2.8,3.18a2.84,2.84,0,0,1,0,.57Zm3.61-.88a1.75,1.75,0,0,0-1.71-2,2,2,0,0,0-1.89,2Z" transform="translate(-1.58)"/><path d="M456.51,277.24a3.37,3.37,0,0,0,1.63.48c.89,0,1.31-.44,1.31-1s-.35-.9-1.25-1.23c-1.23-.45-1.81-1.11-1.81-1.92a2.1,2.1,0,0,1,2.34-2,3.1,3.1,0,0,1,1.65.42l-.29.9a2.59,2.59,0,0,0-1.38-.41c-.73,0-1.13.42-1.13.92s.4.82,1.28,1.17c1.16.43,1.78,1,1.78,2,0,1.2-.94,2-2.52,2a3.88,3.88,0,0,1-1.91-.47Z" transform="translate(-1.58)"/><path d="M379.23,295.29l-3.1-9.44h1.33l1.47,4.65c.4,1.27.75,2.42,1,3.53h0c.27-1.09.64-2.28,1.08-3.52l1.6-4.66H384l-3.38,9.44Z" transform="translate(-1.58)"/><path d="M389.84,290.86h-3.65v3.41h4.09v1H385v-9.44h5.12v1h-3.88v3h3.65Z" transform="translate(-1.58)"/><path d="M391.85,286a14.57,14.57,0,0,1,2.34-.19,3.87,3.87,0,0,1,2.73.77,2.38,2.38,0,0,1,.75,1.81,2.48,2.48,0,0,1-1.77,2.39v0a2.38,2.38,0,0,1,1.38,1.91,15.43,15.43,0,0,0,.72,2.59h-1.26a12.18,12.18,0,0,1-.61-2.26c-.28-1.3-.8-1.79-1.91-1.83h-1.15v4.09h-1.22Zm1.22,4.3h1.25c1.3,0,2.13-.71,2.13-1.79s-.88-1.75-2.17-1.75a5.13,5.13,0,0,0-1.21.1Z" transform="translate(-1.58)"/><path d="M399.39,286a15.16,15.16,0,0,1,2.59-.21A5.48,5.48,0,0,1,405.8,287a4.3,4.3,0,0,1,1.35,3.39,5,5,0,0,1-1.36,3.67,5.86,5.86,0,0,1-4.19,1.36,19.44,19.44,0,0,1-2.21-.11Zm1.22,8.35a10.57,10.57,0,0,0,1.23.05c2.62,0,4-1.45,4-4,0-2.23-1.25-3.65-3.83-3.65a6.76,6.76,0,0,0-1.42.13Z" transform="translate(-1.58)"/><path d="M410,292.32l-1,3H407.8l3.22-9.44h1.46l3.22,9.44h-1.3l-1-3Zm3.11-.95-.94-2.72c-.21-.62-.35-1.18-.49-1.72h0c-.14.54-.28,1.13-.47,1.71l-.93,2.73Z" transform="translate(-1.58)"/><path d="M417.08,286a15.25,15.25,0,0,1,2.59-.21A5.53,5.53,0,0,1,423.5,287a4.33,4.33,0,0,1,1.34,3.39,5,5,0,0,1-1.36,3.67,5.83,5.83,0,0,1-4.19,1.36,19.57,19.57,0,0,1-2.21-.11Zm1.22,8.35a10.78,10.78,0,0,0,1.23.05c2.62,0,4-1.45,4-4,0-2.23-1.24-3.65-3.82-3.65a6.87,6.87,0,0,0-1.43.13Z" transform="translate(-1.58)"/><path d="M431.28,290.86h-3.66v3.41h4.09v1h-5.32v-9.44h5.11v1h-3.88v3h3.66Z" transform="translate(-1.58)"/><path d="M433.29,286a14.57,14.57,0,0,1,2.34-.19,3.87,3.87,0,0,1,2.73.77,2.38,2.38,0,0,1,.75,1.81,2.48,2.48,0,0,1-1.77,2.39v0a2.35,2.35,0,0,1,1.37,1.91,16.15,16.15,0,0,0,.73,2.59h-1.26a12.18,12.18,0,0,1-.61-2.26c-.28-1.3-.8-1.79-1.91-1.83h-1.15v4.09h-1.22Zm1.22,4.3h1.25c1.3,0,2.13-.71,2.13-1.79s-.88-1.75-2.17-1.75a5.13,5.13,0,0,0-1.21.1Z" transform="translate(-1.58)"/><path d="M442.42,292.32l-1,3h-1.26l3.22-9.44h1.46l3.22,9.44h-1.3l-1-3Zm3.11-.95-.94-2.72c-.21-.62-.35-1.18-.49-1.72h0c-.14.54-.29,1.13-.48,1.71l-.93,2.73Z" transform="translate(-1.58)"/><path d="M244.75,144.54a7.63,7.63,0,0,1-3.2.58c-3.42,0-6-2.16-6-6.16a6,6,0,0,1,6.34-6.37,6.51,6.51,0,0,1,2.88.54l-.4,1.28a5.49,5.49,0,0,0-2.43-.51c-2.84,0-4.73,1.82-4.73,5,0,3,1.71,4.88,4.64,4.88a6.26,6.26,0,0,0,2.58-.51Z" transform="translate(-1.58)"/><path d="M254.37,140.49a4.28,4.28,0,0,1-4.34,4.63,4.15,4.15,0,0,1-4.18-4.48,4.26,4.26,0,0,1,4.32-4.61A4.13,4.13,0,0,1,254.37,140.49Zm-6.9.09c0,1.91,1.08,3.35,2.63,3.35s2.64-1.42,2.64-3.38c0-1.48-.73-3.33-2.61-3.33S247.47,138.94,247.47,140.58Z" transform="translate(-1.58)"/><path d="M256.36,138.57c0-.92,0-1.64-.07-2.36h1.4l.09,1.44h0A3.22,3.22,0,0,1,260.7,136c1.21,0,3.08.72,3.08,3.71v5.18h-1.59v-5c0-1.41-.52-2.58-2-2.58a2.29,2.29,0,0,0-2.13,1.62,2.37,2.37,0,0,0-.1.74v5.24h-1.59Z" transform="translate(-1.58)"/><path d="M273.86,132.14v10.53c0,.77,0,1.66.07,2.25h-1.4l-.08-1.51h-.05a3.15,3.15,0,0,1-2.94,1.71c-2.1,0-3.74-1.78-3.74-4.43,0-2.9,1.8-4.66,3.91-4.66a2.93,2.93,0,0,1,2.63,1.31h0v-5.2Zm-1.57,7.61a3,3,0,0,0-.07-.66,2.33,2.33,0,0,0-2.29-1.82c-1.64,0-2.61,1.44-2.61,3.35,0,1.76.89,3.22,2.58,3.22a2.4,2.4,0,0,0,2.32-1.89,3,3,0,0,0,.07-.68Z" transform="translate(-1.58)"/><path d="M278.27,133.76a1,1,0,0,1-1,1,.93.93,0,0,1-1-1,1,1,0,0,1,1-1A1,1,0,0,1,278.27,133.76Zm-1.77,11.16v-8.71h1.59v8.71Z" transform="translate(-1.58)"/><path d="M286.93,144.62a6.35,6.35,0,0,1-2.51.5,4.14,4.14,0,0,1-4.34-4.45,4.44,4.44,0,0,1,4.68-4.64,5.06,5.06,0,0,1,2.2.46l-.36,1.21a3.87,3.87,0,0,0-1.84-.41,3,3,0,0,0-3.07,3.29,3,3,0,0,0,3,3.26,4.7,4.7,0,0,0,2-.41Z" transform="translate(-1.58)"/><path d="M290.54,133.76a.94.94,0,0,1-1,1,.93.93,0,0,1-.95-1,1,1,0,0,1,1-1A1,1,0,0,1,290.54,133.76Zm-1.76,11.16v-8.71h1.58v8.71Z" transform="translate(-1.58)"/><path d="M300.88,140.49a4.27,4.27,0,0,1-4.34,4.63,4.16,4.16,0,0,1-4.18-4.48,4.26,4.26,0,0,1,4.32-4.61A4.13,4.13,0,0,1,300.88,140.49Zm-6.9.09c0,1.91,1.08,3.35,2.63,3.35s2.65-1.42,2.65-3.38c0-1.48-.74-3.33-2.61-3.33S294,138.94,294,140.58Zm5-8.14-2.2,2.58h-1.12l1.57-2.58Z" transform="translate(-1.58)"/><path d="M302.87,138.57c0-.92,0-1.64-.07-2.36h1.4l.09,1.44h0a3.22,3.22,0,0,1,2.88-1.62c1.21,0,3.08.72,3.08,3.71v5.18h-1.58v-5c0-1.41-.53-2.58-2-2.58a2.29,2.29,0,0,0-2.13,1.62,2.37,2.37,0,0,0-.1.74v5.24h-1.59Z" transform="translate(-1.58)"/><path d="M271.06,162.7l-1.26,3.82h-1.62l4.14-12.13h1.87l4.14,12.13h-1.67l-1.3-3.82Zm4-1.22-1.2-3.49c-.27-.8-.45-1.52-.63-2.22h0c-.18.7-.36,1.46-.61,2.2l-1.19,3.51Z" transform="translate(-1.58)"/><path d="M353.86,126.2H356v-1.78l1.42-.4v2.18h4.81v1.2h-4.81v4.25a2.62,2.62,0,0,0,.64,1.95,2.47,2.47,0,0,0,1.82.63,3.12,3.12,0,0,0,1.41-.31,7.08,7.08,0,0,0,1.08-.67l.47,1.07a5.36,5.36,0,0,1-1.5.81,5.53,5.53,0,0,1-1.8.3,4.24,4.24,0,0,1-1.35-.21,3.06,3.06,0,0,1-1.13-.63,3.11,3.11,0,0,1-.77-1.11,4,4,0,0,1-.29-1.61V127.4h-2.14Z" transform="translate(-1.58)"/><path d="M365.29,135.2V134h2.43V127.4h-2.43v-1.2h3.36l.29,1.17H369a6.72,6.72,0,0,1,1.37-1,3.86,3.86,0,0,1,1.8-.39,1.87,1.87,0,0,1,1,.23,1.65,1.65,0,0,1,.58.69A3.56,3.56,0,0,1,374,128a12.53,12.53,0,0,1,.08,1.45l-1.26,0a4.63,4.63,0,0,0-.23-1.68.82.82,0,0,0-.82-.53,2.93,2.93,0,0,0-1,.16,3.55,3.55,0,0,0-.78.39,6,6,0,0,0-.57.47,3.17,3.17,0,0,0-.34.4V134h3.46v1.21Z" transform="translate(-1.58)"/><path d="M381.41,126.2H384v6.14a11.61,11.61,0,0,0,.11,1.69h1.2v1.17h-2.41l-.05-1.53h-.08a3.89,3.89,0,0,1-1.23,1.26,3.49,3.49,0,0,1-1.87.48,4.5,4.5,0,0,1-1.41-.19,1.94,1.94,0,0,1-1-.65,3.08,3.08,0,0,1-.56-1.25,9,9,0,0,1-.18-2v-4h-1.2v-1.2H378v4.88a13,13,0,0,0,.06,1.32,3,3,0,0,0,.26,1,1.32,1.32,0,0,0,.58.61,2.12,2.12,0,0,0,1,.21,2.4,2.4,0,0,0,1.62-.61,4,4,0,0,0,1.05-1.53V127.4h-1.16Z" transform="translate(-1.58)"/><path d="M395.22,134.06a4,4,0,0,1-.76.54,5.72,5.72,0,0,1-1,.44,6.43,6.43,0,0,1-1.09.27,6.2,6.2,0,0,1-1.14.1,5.13,5.13,0,0,1-1.91-.33,3.67,3.67,0,0,1-1.38-1,4.06,4.06,0,0,1-.85-1.49,6.13,6.13,0,0,1-.29-1.94,6,6,0,0,1,.32-2,3.82,3.82,0,0,1,2.35-2.38,5.35,5.35,0,0,1,1.89-.32,5.81,5.81,0,0,1,1.49.2,2.85,2.85,0,0,1,1.3.75,3.58,3.58,0,0,1,.88,1.51,7.13,7.13,0,0,1,.21,2.49h-6.94a3.13,3.13,0,0,0,.87,2.42,3.26,3.26,0,0,0,2.32.8,4.49,4.49,0,0,0,1-.11,8.06,8.06,0,0,0,.91-.28,4.9,4.9,0,0,0,.76-.36,3.11,3.11,0,0,0,.51-.36Zm-3.79-6.89a4.52,4.52,0,0,0-1.12.13,2.4,2.4,0,0,0-.93.42,2.28,2.28,0,0,0-.67.77,3.22,3.22,0,0,0-.33,1.18H394a2.73,2.73,0,0,0-.76-1.84A2.42,2.42,0,0,0,391.43,127.17Z" transform="translate(-1.58)"/><path d="M146.38,135.11V133.9h2.14v-6.58h-2.14v-1.21h2.14v-.5a3.05,3.05,0,0,1,.88-2.45,3.74,3.74,0,0,1,2.52-.76,8.18,8.18,0,0,1,1.06.07,5.06,5.06,0,0,1,1,.29l-.32,1.17a3.63,3.63,0,0,0-.9-.26,5.67,5.67,0,0,0-.79-.06,1.9,1.9,0,0,0-1.61.58,3.28,3.28,0,0,0-.43,1.92h3.73v1.21h-3.73v6.58h3.73v1.21Z" transform="translate(-1.58)"/><path d="M157.54,126.81a5.55,5.55,0,0,1,1.74-.64,9.05,9.05,0,0,1,1.91-.2,3.43,3.43,0,0,1,1.5.28,2.57,2.57,0,0,1,.92.75,2.75,2.75,0,0,1,.45,1.05,5.81,5.81,0,0,1,.12,1.17c0,.46,0,.95,0,1.46s0,1,0,1.55a11.7,11.7,0,0,0,.11,1.71h1.2v1.17H163l-.16-1.35h-.09c-.08.11-.19.25-.33.41a2.87,2.87,0,0,1-.57.5,3.63,3.63,0,0,1-.86.42,3.51,3.51,0,0,1-1.19.18,3.11,3.11,0,0,1-2.11-.68,2.37,2.37,0,0,1-.78-1.87,2.68,2.68,0,0,1,.41-1.53,2.59,2.59,0,0,1,1.16-.94,5.4,5.4,0,0,1,1.84-.38,12.25,12.25,0,0,1,2.41.15,5.88,5.88,0,0,0,0-1.38,1.82,1.82,0,0,0-.28-.87,1.25,1.25,0,0,0-.64-.46,3.17,3.17,0,0,0-1-.14,5.28,5.28,0,0,0-1.55.23,13.27,13.27,0,0,0-1.32.46Zm2.66,7.26a2.62,2.62,0,0,0,.94-.17,2.46,2.46,0,0,0,.75-.41,2.55,2.55,0,0,0,.54-.55,2.62,2.62,0,0,0,.33-.56v-1.27A11.13,11.13,0,0,0,161,131a5,5,0,0,0-1.37.17,2.09,2.09,0,0,0-.9.53,1.36,1.36,0,0,0-.32.94,1.49,1.49,0,0,0,.4,1A1.79,1.79,0,0,0,160.2,134.07Z" transform="translate(-1.58)"/><path d="M168.54,122.51h3v9.58a2.43,2.43,0,0,0,.37,1.54,1.3,1.3,0,0,0,1.09.45,2.6,2.6,0,0,0,1-.18,3.8,3.8,0,0,0,1-.61l.65,1a4.53,4.53,0,0,1-.63.45,4.19,4.19,0,0,1-.71.34,4.84,4.84,0,0,1-.72.2,3.25,3.25,0,0,1-.67.07,3.68,3.68,0,0,1-1.19-.17,2,2,0,0,1-.88-.55,2.46,2.46,0,0,1-.53-1,5.66,5.66,0,0,1-.18-1.54v-8.37h-1.58Z" transform="translate(-1.58)"/><path d="M185.06,132.68a1,1,0,0,0-.45-.89,3.56,3.56,0,0,0-1.11-.5c-.45-.13-.93-.25-1.45-.35a8.38,8.38,0,0,1-1.44-.44,3.11,3.11,0,0,1-1.11-.73,1.74,1.74,0,0,1-.45-1.28,2.25,2.25,0,0,1,.29-1.17,2.42,2.42,0,0,1,.79-.8,3.49,3.49,0,0,1,1.13-.47,5.94,5.94,0,0,1,1.35-.15,6.68,6.68,0,0,1,2.17.31,6.9,6.9,0,0,1,1.45.66l-.58,1.13a13.9,13.9,0,0,0-1.28-.62,4.36,4.36,0,0,0-1.73-.3,4.13,4.13,0,0,0-.78.08,2.89,2.89,0,0,0-.7.25,1.29,1.29,0,0,0-.5.42,1,1,0,0,0-.19.64.79.79,0,0,0,.45.72,4.44,4.44,0,0,0,1.11.42c.44.12.92.22,1.44.33a6.83,6.83,0,0,1,1.45.44,3.29,3.29,0,0,1,1.11.77,1.84,1.84,0,0,1,.45,1.31,2.57,2.57,0,0,1-1,2.06,4.52,4.52,0,0,1-2.94.81,6.45,6.45,0,0,1-1.17-.11,6.53,6.53,0,0,1-1.08-.29,6.05,6.05,0,0,1-.92-.4,3.63,3.63,0,0,1-.68-.46l.71-1.17a3.79,3.79,0,0,0,.58.44,5.3,5.3,0,0,0,.79.4,5,5,0,0,0,.92.29,4.79,4.79,0,0,0,1,.11,5.11,5.11,0,0,0,.9-.08,3.14,3.14,0,0,0,.75-.25,1.59,1.59,0,0,0,.51-.45A1.18,1.18,0,0,0,185.06,132.68Z" transform="translate(-1.58)"/><path d="M197.51,134a4.63,4.63,0,0,1-.76.54,5.59,5.59,0,0,1-1,.43,7.56,7.56,0,0,1-1.09.28,7.34,7.34,0,0,1-1.15.1,4.88,4.88,0,0,1-1.9-.34,3.63,3.63,0,0,1-1.39-1,4.27,4.27,0,0,1-.85-1.49,6.14,6.14,0,0,1-.28-1.94,6,6,0,0,1,.31-2,3.82,3.82,0,0,1,2.35-2.38,5.35,5.35,0,0,1,1.89-.31,5.8,5.8,0,0,1,1.49.19,3,3,0,0,1,1.31.75,3.52,3.52,0,0,1,.87,1.51,6.89,6.89,0,0,1,.22,2.49h-6.95a3.16,3.16,0,0,0,.87,2.43,3.33,3.33,0,0,0,2.33.8,4,4,0,0,0,1-.12,7.89,7.89,0,0,0,.9-.28,5.53,5.53,0,0,0,.77-.36A3.11,3.11,0,0,0,197,133Zm-3.79-6.9a4.58,4.58,0,0,0-1.12.13,2.47,2.47,0,0,0-.93.42,2.29,2.29,0,0,0-.66.78,3,3,0,0,0-.34,1.17h5.58a2.71,2.71,0,0,0-.76-1.84A2.41,2.41,0,0,0,193.72,127.08Z" transform="translate(-1.58)"/><polyline points="206.07 142 121.07 142 121.07 232" style="fill:none;stroke:#000;stroke-linecap:round;stroke-miterlimit:10;stroke-width:2px"/><rect x="76.87" y="251.17" width="92.63" height="90.13" transform="translate(243.96 -0.34) rotate(45)" style="fill:none;stroke:#000;stroke-linecap:round;stroke-miterlimit:10;stroke-width:2px"/><path d="M94.81,295.87a7.67,7.67,0,0,1-3.2.58c-3.42,0-6-2.16-6-6.16A6,6,0,0,1,92,283.92a6.55,6.55,0,0,1,2.88.54l-.4,1.28a5.49,5.49,0,0,0-2.43-.51c-2.84,0-4.73,1.82-4.73,5,0,3,1.71,4.88,4.64,4.88a6.26,6.26,0,0,0,2.58-.51Z" transform="translate(-1.58)"/><path d="M104.42,291.82a4.27,4.27,0,0,1-4.34,4.63A4.15,4.15,0,0,1,95.91,292a4.26,4.26,0,0,1,4.32-4.61A4.12,4.12,0,0,1,104.42,291.82Zm-6.89.09c0,1.91,1.08,3.35,2.63,3.35s2.64-1.42,2.64-3.38c0-1.48-.74-3.33-2.61-3.33S97.53,290.27,97.53,291.91Z" transform="translate(-1.58)"/><path d="M106.42,289.9c0-.92,0-1.64-.07-2.36h1.4l.09,1.44h0a3.22,3.22,0,0,1,2.88-1.62c1.2,0,3.08.72,3.08,3.71v5.18h-1.59v-5c0-1.41-.52-2.58-2-2.58a2.29,2.29,0,0,0-2.13,1.62,2.35,2.35,0,0,0-.11.74v5.24h-1.58Z" transform="translate(-1.58)"/><path d="M123.92,283.47V294c0,.77,0,1.66.07,2.25h-1.41l-.07-1.51h-.05a3.15,3.15,0,0,1-2.94,1.71c-2.1,0-3.74-1.78-3.74-4.43,0-2.9,1.8-4.66,3.91-4.66a2.9,2.9,0,0,1,2.62,1.31h0v-5.2Zm-1.57,7.61a3,3,0,0,0-.07-.66A2.34,2.34,0,0,0,120,288.6c-1.64,0-2.61,1.44-2.61,3.35s.88,3.22,2.58,3.22a2.4,2.4,0,0,0,2.32-1.89,3,3,0,0,0,.07-.68Z" transform="translate(-1.58)"/><path d="M128.33,285.09a1,1,0,0,1-1,1,.93.93,0,0,1-1-1,1,1,0,0,1,1-1A1,1,0,0,1,128.33,285.09Zm-1.77,11.16v-8.71h1.58v8.71Z" transform="translate(-1.58)"/><path d="M137,296a6.25,6.25,0,0,1-2.5.5,4.14,4.14,0,0,1-4.34-4.45,4.44,4.44,0,0,1,4.68-4.64,5.06,5.06,0,0,1,2.2.46l-.36,1.21a3.87,3.87,0,0,0-1.84-.41,3,3,0,0,0-3.07,3.29,3,3,0,0,0,3,3.26,4.49,4.49,0,0,0,1.94-.41Z" transform="translate(-1.58)"/><path d="M140.6,285.09a1,1,0,0,1-1,1,.93.93,0,0,1-1-1,1,1,0,0,1,1-1A1,1,0,0,1,140.6,285.09Zm-1.76,11.16v-8.71h1.58v8.71Z" transform="translate(-1.58)"/><path d="M150.94,291.82a4.28,4.28,0,0,1-4.34,4.63,4.15,4.15,0,0,1-4.18-4.48,4.26,4.26,0,0,1,4.32-4.61A4.13,4.13,0,0,1,150.94,291.82Zm-6.9.09c0,1.91,1.08,3.35,2.63,3.35s2.64-1.42,2.64-3.38c0-1.48-.73-3.33-2.61-3.33S144,290.27,144,291.91Zm5-8.14-2.19,2.58h-1.12l1.57-2.58Z" transform="translate(-1.58)"/><path d="M152.93,289.9c0-.92,0-1.64-.07-2.36h1.4l.09,1.44h0a3.22,3.22,0,0,1,2.88-1.62c1.21,0,3.08.72,3.08,3.71v5.18h-1.59v-5c0-1.41-.52-2.58-2-2.58a2.29,2.29,0,0,0-2.13,1.62,2.35,2.35,0,0,0-.11.74v5.24h-1.58Z" transform="translate(-1.58)"/><path d="M119.78,305.9a13.37,13.37,0,0,1,2.87-.27,5,5,0,0,1,3.31.88,2.56,2.56,0,0,1,1,2.14,2.87,2.87,0,0,1-2.06,2.66v.06a3.09,3.09,0,0,1,2.51,3,3.17,3.17,0,0,1-1,2.43c-.83.78-2.2,1.14-4.18,1.14a16.91,16.91,0,0,1-2.43-.15Zm1.57,5h1.42c1.64,0,2.61-.88,2.61-2.05,0-1.4-1.06-2-2.64-2a7,7,0,0,0-1.39.11Zm0,5.8a7.83,7.83,0,0,0,1.31.07c1.63,0,3.12-.59,3.12-2.35s-1.42-2.34-3.13-2.34h-1.3Z" transform="translate(-1.58)"/><polyline points="187.07 297 262.07 297 262.07 370.88" style="fill:none;stroke:#000;stroke-linecap:round;stroke-miterlimit:10;stroke-width:2px"/><polygon points="262.07 385 253.94 365.1 262.07 369.82 270.2 365.1 262.07 385"/><rect x="172.07" y="385" width="180" height="82" style="fill:none;stroke:#000;stroke-linecap:round;stroke-miterlimit:10;stroke-width:2px"/><path d="M211.6,410.12c0-.87,0-1.57-.06-2.21h1.1l.07,1.16h0a2.66,2.66,0,0,1,2.41-1.3c1.66,0,2.89,1.39,2.89,3.43,0,2.44-1.5,3.64-3.1,3.64a2.37,2.37,0,0,1-2.08-1.06h0v3.68H211.6Zm1.22,1.81a1.6,1.6,0,0,0,.06.5,1.89,1.89,0,0,0,1.84,1.45c1.31,0,2.06-1.07,2.06-2.62,0-1.35-.71-2.51-2-2.51a2,2,0,0,0-1.87,1.51,2.18,2.18,0,0,0-.08.49Z" transform="translate(-1.58)"/><path d="M224.33,413.06a11.4,11.4,0,0,0,.1,1.63h-1.11l-.1-.86h0a2.51,2.51,0,0,1-2.07,1A1.93,1.93,0,0,1,219,412.9c0-1.64,1.46-2.54,4.08-2.52v-.15a1.39,1.39,0,0,0-1.54-1.55,3.28,3.28,0,0,0-1.78.5l-.28-.82a4.4,4.4,0,0,1,2.24-.59c2.07,0,2.58,1.41,2.58,2.76Zm-1.19-1.83c-1.35,0-2.87.21-2.87,1.53a1.07,1.07,0,0,0,1.14,1.17,1.72,1.72,0,0,0,1.67-1.13,1.48,1.48,0,0,0,.06-.39Z" transform="translate(-1.58)"/><path d="M226.15,413.44a3.37,3.37,0,0,0,1.63.48c.89,0,1.31-.44,1.31-1s-.35-.9-1.25-1.23c-1.23-.45-1.81-1.11-1.81-1.92a2.1,2.1,0,0,1,2.34-2,3.16,3.16,0,0,1,1.66.42l-.3.9a2.63,2.63,0,0,0-1.39-.41c-.72,0-1.12.42-1.12.92s.4.82,1.28,1.17c1.16.43,1.78,1,1.78,2,0,1.2-.94,2-2.52,2a3.88,3.88,0,0,1-1.91-.47Z" transform="translate(-1.58)"/><path d="M238,411.24a3.32,3.32,0,0,1-3.37,3.6,3.23,3.23,0,0,1-3.25-3.48,3.31,3.31,0,0,1,3.36-3.59A3.2,3.2,0,0,1,238,411.24Zm-5.36.07c0,1.49.84,2.61,2,2.61s2.06-1.11,2.06-2.63c0-1.15-.57-2.6-2-2.6S232.63,410,232.63,411.31Z" transform="translate(-1.58)"/><path d="M239.38,413.44a3.37,3.37,0,0,0,1.63.48c.89,0,1.31-.44,1.31-1s-.35-.9-1.25-1.23c-1.23-.45-1.81-1.11-1.81-1.92a2.1,2.1,0,0,1,2.34-2,3.1,3.1,0,0,1,1.65.42l-.29.9a2.57,2.57,0,0,0-1.39-.41c-.72,0-1.12.42-1.12.92s.4.82,1.28,1.17c1.16.43,1.78,1,1.78,2,0,1.2-.94,2-2.52,2a3.88,3.88,0,0,1-1.91-.47Z" transform="translate(-1.58)"/><path d="M252.82,413.06a11.4,11.4,0,0,0,.1,1.63h-1.11l-.1-.86h0a2.51,2.51,0,0,1-2.07,1,1.93,1.93,0,0,1-2.08-1.94c0-1.64,1.46-2.54,4.08-2.52v-.15a1.39,1.39,0,0,0-1.54-1.55,3.28,3.28,0,0,0-1.78.5l-.28-.82a4.4,4.4,0,0,1,2.24-.59c2.07,0,2.58,1.41,2.58,2.76Zm-1.19-1.83c-1.35,0-2.87.21-2.87,1.53a1.07,1.07,0,0,0,1.14,1.17,1.71,1.71,0,0,0,1.67-1.13,1.48,1.48,0,0,0,.06-.39Z" transform="translate(-1.58)"/><path d="M258.46,411.52a2.17,2.17,0,0,0,2.32,2.36,4.5,4.5,0,0,0,1.88-.35l.22.88a5.44,5.44,0,0,1-2.26.43,3.16,3.16,0,0,1-3.34-3.43c0-2,1.21-3.64,3.18-3.64,2.23,0,2.8,1.93,2.8,3.18a2.84,2.84,0,0,1,0,.57Zm3.61-.88a1.75,1.75,0,0,0-1.71-2,2,2,0,0,0-1.89,2Z" transform="translate(-1.58)"/><path d="M263.12,416.68a1.92,1.92,0,0,0,1.34-.53c.34-.38.48-.91.48-2.54v-5.7h1.23v6.18a3.71,3.71,0,0,1-.81,2.78,3.11,3.11,0,0,1-2.1.77ZM266.31,406a.76.76,0,1,1-1.52,0,.76.76,0,1,1,1.52,0Z" transform="translate(-1.58)"/><path d="M268.87,411.52a2.17,2.17,0,0,0,2.33,2.36,4.54,4.54,0,0,0,1.88-.35l.22.88a5.45,5.45,0,0,1-2.27.43,3.15,3.15,0,0,1-3.33-3.43c0-2,1.2-3.64,3.18-3.64,2.22,0,2.8,1.93,2.8,3.18a3.86,3.86,0,0,1,0,.57Zm3.62-.88a1.76,1.76,0,0,0-1.71-2,2,2,0,0,0-1.89,2Z" transform="translate(-1.58)"/><path d="M280,414.45a4.63,4.63,0,0,1-1.94.39,3.22,3.22,0,0,1-3.38-3.46,3.46,3.46,0,0,1,3.64-3.61,3.93,3.93,0,0,1,1.71.36l-.28.94a3,3,0,0,0-1.43-.32,2.56,2.56,0,0,0,0,5.1,3.58,3.58,0,0,0,1.51-.32Z" transform="translate(-1.58)"/><path d="M287.15,412.83c0,.71,0,1.33.05,1.86h-1.09l-.07-1.11h0a2.53,2.53,0,0,1-2.24,1.26c-1.06,0-2.34-.6-2.34-3v-4h1.23v3.74c0,1.29.41,2.17,1.52,2.17a1.77,1.77,0,0,0,1.62-1.13,1.73,1.73,0,0,0,.11-.63v-4.15h1.24Z" transform="translate(-1.58)"/><path d="M290.67,406.28v1.63h1.77v.94h-1.77v3.65c0,.84.24,1.32.93,1.32a2.51,2.51,0,0,0,.71-.08l.06.93a3.24,3.24,0,0,1-1.1.17,1.74,1.74,0,0,1-1.33-.52,2.66,2.66,0,0,1-.47-1.77v-3.7h-1.05v-.94h1.05v-1.26Z" transform="translate(-1.58)"/><path d="M298.58,413.06a11.4,11.4,0,0,0,.1,1.63h-1.11l-.09-.86h-.05a2.48,2.48,0,0,1-2.07,1,1.93,1.93,0,0,1-2.07-1.94c0-1.64,1.46-2.54,4.07-2.52v-.15a1.39,1.39,0,0,0-1.54-1.55,3.31,3.31,0,0,0-1.78.5l-.28-.82a4.41,4.41,0,0,1,2.25-.59c2.07,0,2.57,1.41,2.57,2.76Zm-1.19-1.83c-1.34,0-2.87.21-2.87,1.53a1.08,1.08,0,0,0,1.15,1.17,1.72,1.72,0,0,0,1.67-1.13,1.44,1.44,0,0,0,.05-.39Z" transform="translate(-1.58)"/><path d="M300.57,410c0-.79,0-1.48-.06-2.11h1.08l.06,1.34h0a2,2,0,0,1,1.89-1.48,1.87,1.87,0,0,1,.34,0V409a1.84,1.84,0,0,0-.42,0,1.73,1.73,0,0,0-1.66,1.57,3.52,3.52,0,0,0,0,.58v3.61h-1.23Z" transform="translate(-1.58)"/><path d="M308,413.44a3.37,3.37,0,0,0,1.63.48c.89,0,1.31-.44,1.31-1s-.35-.9-1.25-1.23c-1.23-.45-1.81-1.11-1.81-1.92a2.1,2.1,0,0,1,2.34-2,3.16,3.16,0,0,1,1.66.42l-.3.9a2.56,2.56,0,0,0-1.38-.41c-.73,0-1.12.42-1.12.92s.39.82,1.27,1.17c1.16.43,1.78,1,1.78,2,0,1.2-.94,2-2.52,2a3.88,3.88,0,0,1-1.91-.47Z" transform="translate(-1.58)"/><path d="M315,406a.77.77,0,0,1-1.53,0,.75.75,0,0,1,.77-.77A.74.74,0,0,1,315,406Zm-1.37,8.69v-6.78h1.23v6.78Z" transform="translate(-1.58)"/><path d="M195.65,421.54h1.23v9.95h-1.23Z" transform="translate(-1.58)"/><path d="M203.71,429.86a11.4,11.4,0,0,0,.1,1.63H202.7l-.09-.86h-.05a2.48,2.48,0,0,1-2.07,1,1.93,1.93,0,0,1-2.07-1.94c0-1.64,1.46-2.54,4.07-2.53V427a1.38,1.38,0,0,0-1.54-1.55,3.31,3.31,0,0,0-1.78.5l-.28-.82a4.43,4.43,0,0,1,2.24-.59c2.08,0,2.58,1.41,2.58,2.76ZM202.52,428c-1.34,0-2.87.21-2.87,1.53a1.08,1.08,0,0,0,1.15,1.17,1.72,1.72,0,0,0,1.67-1.13,1.44,1.44,0,0,0,.05-.39Z" transform="translate(-1.58)"/><path d="M213.5,431.25a4.85,4.85,0,0,1-1.95.39,3.22,3.22,0,0,1-3.37-3.46,3.45,3.45,0,0,1,3.64-3.61,3.93,3.93,0,0,1,1.71.36l-.28.94a3.11,3.11,0,0,0-1.43-.32,2.56,2.56,0,0,0,0,5.1,3.58,3.58,0,0,0,1.51-.32Z" transform="translate(-1.58)"/><path d="M221,428a3.32,3.32,0,0,1-3.38,3.6,3.23,3.23,0,0,1-3.25-3.49,3.31,3.31,0,0,1,3.37-3.58A3.2,3.2,0,0,1,221,428Zm-5.37.07c0,1.49.84,2.61,2,2.61s2.06-1.11,2.06-2.64c0-1.14-.58-2.59-2-2.59S215.62,426.84,215.62,428.11Z" transform="translate(-1.58)"/><path d="M222.54,426.54c0-.71,0-1.27-.06-1.83h1.1l.07,1.12h0a2.52,2.52,0,0,1,2.25-1.26c.93,0,2.39.56,2.39,2.89v4h-1.23v-3.91c0-1.09-.41-2-1.57-2a1.76,1.76,0,0,0-1.65,1.26,1.62,1.62,0,0,0-.09.57v4.08h-1.23Z" transform="translate(-1.58)"/><path d="M236.15,421.54v8.2c0,.6,0,1.29.06,1.75h-1.09l-.06-1.18h0a2.45,2.45,0,0,1-2.29,1.33c-1.64,0-2.91-1.38-2.91-3.44,0-2.26,1.4-3.63,3-3.63a2.26,2.26,0,0,1,2,1h0v-4Zm-1.22,5.93a2.24,2.24,0,0,0-.05-.52,1.82,1.82,0,0,0-1.78-1.41c-1.28,0-2,1.12-2,2.6s.68,2.51,2,2.51a1.87,1.87,0,0,0,1.81-1.47,2.31,2.31,0,0,0,.05-.54Z" transform="translate(-1.58)"/><path d="M239.58,422.8a.77.77,0,0,1-1.53,0,.75.75,0,0,1,.77-.77A.74.74,0,0,1,239.58,422.8Zm-1.37,8.69v-6.78h1.23v6.78Z" transform="translate(-1.58)"/><path d="M246.31,431.25a4.8,4.8,0,0,1-1.94.39,3.22,3.22,0,0,1-3.38-3.46,3.46,3.46,0,0,1,3.64-3.61,3.9,3.9,0,0,1,1.71.36l-.28.94a3,3,0,0,0-1.43-.32,2.56,2.56,0,0,0,0,5.1,3.58,3.58,0,0,0,1.51-.32Z" transform="translate(-1.58)"/><path d="M249.13,422.8a.74.74,0,0,1-.79.76.72.72,0,0,1-.74-.76.75.75,0,0,1,.77-.77A.74.74,0,0,1,249.13,422.8Zm-1.38,8.69v-6.78H249v6.78Z" transform="translate(-1.58)"/><path d="M257.17,428a3.32,3.32,0,0,1-3.38,3.6,3.23,3.23,0,0,1-3.25-3.49,3.31,3.31,0,0,1,3.36-3.58A3.21,3.21,0,0,1,257.17,428Zm-5.37.07c0,1.49.84,2.61,2,2.61s2.05-1.11,2.05-2.64c0-1.14-.57-2.59-2-2.59S251.8,426.84,251.8,428.11Zm3.89-6.33-1.7,2h-.87l1.22-2Z" transform="translate(-1.58)"/><path d="M258.72,426.54c0-.71,0-1.27-.06-1.83h1.09l.07,1.12h0a2.51,2.51,0,0,1,2.24-1.26c.94,0,2.4.56,2.4,2.89v4h-1.24v-3.91c0-1.09-.4-2-1.56-2a1.79,1.79,0,0,0-1.66,1.26,1.91,1.91,0,0,0-.08.57v4.08h-1.23Z" transform="translate(-1.58)"/><path d="M271,428.52l-1,3h-1.26l3.22-9.44h1.46l3.22,9.44h-1.3l-1-3Zm3.11-.95-.94-2.72c-.21-.62-.35-1.18-.49-1.72h0c-.14.54-.28,1.13-.48,1.7l-.92,2.74Z" transform="translate(-1.58)"/><path d="M281.68,428.32a2.16,2.16,0,0,0,2.32,2.36,4.54,4.54,0,0,0,1.88-.35l.22.88a5.62,5.62,0,0,1-2.27.43,3.16,3.16,0,0,1-3.33-3.43c0-2,1.2-3.64,3.18-3.64,2.23,0,2.8,1.93,2.8,3.18a2.84,2.84,0,0,1,0,.57Zm3.61-.88a1.75,1.75,0,0,0-1.71-2,2,2,0,0,0-1.89,2Z" transform="translate(-1.58)"/><path d="M287.84,430.24a3.37,3.37,0,0,0,1.63.48c.89,0,1.31-.44,1.31-1s-.35-.9-1.25-1.23c-1.23-.45-1.81-1.11-1.81-1.92a2.1,2.1,0,0,1,2.34-2,3.1,3.1,0,0,1,1.65.42l-.29.9a2.56,2.56,0,0,0-1.38-.41c-.73,0-1.13.42-1.13.92s.4.82,1.28,1.17c1.16.43,1.78,1,1.78,2,0,1.2-.94,2-2.52,2a3.88,3.88,0,0,1-1.91-.47Z" transform="translate(-1.58)"/><path d="M296.54,422.05h5.09v1h-3.85v3.14h3.55v1h-3.55v4.27h-1.24Z" transform="translate(-1.58)"/><path d="M303.81,428.52l-1,3h-1.26l3.22-9.44h1.46l3.22,9.44h-1.3l-1-3Zm3.11-.95-.94-2.72c-.21-.62-.35-1.18-.49-1.72h0c-.14.54-.28,1.13-.47,1.7l-.93,2.74Z" transform="translate(-1.58)"/><path d="M310.84,422.05h1.23v8.42h4v1h-5.26Z" transform="translate(-1.58)"/><path d="M317.3,430a4.18,4.18,0,0,0,2.18.62c1.24,0,2-.66,2-1.61s-.5-1.39-1.78-1.86c-1.54-.56-2.49-1.38-2.49-2.69,0-1.47,1.22-2.57,3.05-2.57a4.21,4.21,0,0,1,2.08.47l-.34,1a3.52,3.52,0,0,0-1.78-.45c-1.29,0-1.78.77-1.78,1.42,0,.88.58,1.31,1.88,1.82,1.6.61,2.39,1.38,2.39,2.77s-1.06,2.73-3.29,2.73A5,5,0,0,1,317,431Z" transform="translate(-1.58)"/><path d="M325.89,428.52l-1,3h-1.26l3.22-9.44h1.46l3.22,9.44h-1.31l-1-3Zm3.11-.95-.94-2.72c-.21-.62-.35-1.18-.49-1.72h0c-.14.54-.28,1.13-.48,1.7l-.92,2.74Z" transform="translate(-1.58)"/><path d="M211,441.51l1.47,4c.17.44.34,1,.45,1.38h0c.12-.4.26-.92.43-1.41l1.35-4H216l-1.85,4.83c-.88,2.33-1.48,3.5-2.32,4.25a3.64,3.64,0,0,1-1.52.78l-.31-1a3.38,3.38,0,0,0,1.08-.6,3.88,3.88,0,0,0,1-1.38.76.76,0,0,0,.1-.29.84.84,0,0,0-.1-.32l-2.49-6.25Z" transform="translate(-1.58)"/><path d="M220.15,439a10.38,10.38,0,0,1,2.22-.21,3.87,3.87,0,0,1,2.58.68,2,2,0,0,1,.8,1.67,2.23,2.23,0,0,1-1.6,2.07v.05a2.4,2.4,0,0,1,1.95,2.35,2.49,2.49,0,0,1-.81,1.89,4.7,4.7,0,0,1-3.25.88,13.58,13.58,0,0,1-1.89-.11Zm1.22,3.86h1.1c1.28,0,2-.68,2-1.59,0-1.09-.82-1.54-2.06-1.54a5.33,5.33,0,0,0-1.07.08Zm0,4.51a5.6,5.6,0,0,0,1,.06c1.26,0,2.42-.46,2.42-1.83s-1.1-1.83-2.44-1.83h-1Z" transform="translate(-1.58)"/><path d="M231.35,445.12a2.17,2.17,0,0,0,2.32,2.36,4.54,4.54,0,0,0,1.88-.35l.22.88a5.45,5.45,0,0,1-2.27.43,3.16,3.16,0,0,1-3.33-3.43c0-2,1.21-3.64,3.18-3.64,2.23,0,2.8,1.93,2.8,3.18a2.84,2.84,0,0,1,0,.57Zm3.61-.88a1.75,1.75,0,0,0-1.71-2,2,2,0,0,0-1.89,2Z" transform="translate(-1.58)"/><path d="M237.51,447a3.37,3.37,0,0,0,1.63.48c.89,0,1.31-.44,1.31-1s-.35-.9-1.25-1.23c-1.23-.45-1.81-1.11-1.81-1.92a2.1,2.1,0,0,1,2.34-2,3.16,3.16,0,0,1,1.66.42l-.3.9a2.56,2.56,0,0,0-1.38-.41c-.73,0-1.13.42-1.13.92s.4.82,1.28,1.17c1.16.43,1.78,1,1.78,2,0,1.2-.94,2-2.52,2a3.91,3.91,0,0,1-1.91-.47Z" transform="translate(-1.58)"/><path d="M247.8,448.29l-3.1-9.44H246l1.47,4.65c.39,1.27.75,2.42,1,3.53h0c.27-1.09.64-2.28,1.08-3.52l1.59-4.66h1.31l-3.38,9.44Z" transform="translate(-1.58)"/><path d="M258.41,443.86h-3.66v3.41h4.09v1h-5.32v-9.44h5.11v1h-3.88v3h3.66Z" transform="translate(-1.58)"/><path d="M260.42,439a14.57,14.57,0,0,1,2.34-.19,3.87,3.87,0,0,1,2.73.77,2.38,2.38,0,0,1,.75,1.81,2.48,2.48,0,0,1-1.77,2.39v0a2.35,2.35,0,0,1,1.37,1.91,16.15,16.15,0,0,0,.73,2.59h-1.26a12.18,12.18,0,0,1-.61-2.26c-.28-1.3-.8-1.79-1.91-1.83h-1.15v4.09h-1.22Zm1.22,4.3h1.25c1.3,0,2.13-.71,2.13-1.79s-.88-1.75-2.17-1.75a5.13,5.13,0,0,0-1.21.1Z" transform="translate(-1.58)"/><path d="M268,439a15.16,15.16,0,0,1,2.59-.21,5.5,5.5,0,0,1,3.82,1.17,4.3,4.3,0,0,1,1.35,3.39,5,5,0,0,1-1.36,3.67,5.86,5.86,0,0,1-4.19,1.36,19.44,19.44,0,0,1-2.21-.11Zm1.21,8.35a10.86,10.86,0,0,0,1.24.05c2.62,0,4-1.45,4-4,0-2.23-1.25-3.65-3.83-3.65a7,7,0,0,0-1.43.13Z" transform="translate(-1.58)"/><path d="M278.61,445.32l-1,3h-1.26l3.22-9.44h1.46l3.22,9.44H283l-1-3Zm3.11-.95-.94-2.72c-.21-.62-.35-1.18-.49-1.72h0c-.14.54-.28,1.13-.47,1.71l-.93,2.73Z" transform="translate(-1.58)"/><path d="M285.65,439a15.25,15.25,0,0,1,2.59-.21,5.53,5.53,0,0,1,3.83,1.17,4.33,4.33,0,0,1,1.34,3.39,5,5,0,0,1-1.36,3.67,5.82,5.82,0,0,1-4.18,1.36,19.63,19.63,0,0,1-2.22-.11Zm1.22,8.35a10.78,10.78,0,0,0,1.23.05c2.62,0,4-1.45,4-4,0-2.23-1.24-3.65-3.82-3.65a6.87,6.87,0,0,0-1.43.13Z" transform="translate(-1.58)"/><path d="M299.85,443.86h-3.66v3.41h4.09v1H295v-9.44h5.11v1h-3.88v3h3.66Z" transform="translate(-1.58)"/><path d="M301.86,439a14.57,14.57,0,0,1,2.34-.19,3.87,3.87,0,0,1,2.73.77,2.38,2.38,0,0,1,.75,1.81,2.48,2.48,0,0,1-1.77,2.39v0a2.35,2.35,0,0,1,1.37,1.91,16.15,16.15,0,0,0,.73,2.59h-1.26a12.18,12.18,0,0,1-.61-2.26c-.28-1.3-.8-1.79-1.91-1.83h-1.15v4.09h-1.22Zm1.22,4.3h1.25c1.3,0,2.13-.71,2.13-1.79s-.88-1.75-2.17-1.75a5.13,5.13,0,0,0-1.21.1Z" transform="translate(-1.58)"/><path d="M311,445.32l-1,3h-1.26l3.22-9.44h1.46l3.22,9.44h-1.3l-1-3Zm3.11-.95-.94-2.72c-.21-.62-.35-1.18-.49-1.72h0c-.14.54-.27,1.13-.47,1.71l-.93,2.73Z" transform="translate(-1.58)"/><polyline points="57.07 295 15.07 295 15.07 382 15.07 520 262.07 520 262.07 588.88" style="fill:none;stroke:#000;stroke-linecap:round;stroke-miterlimit:10;stroke-width:2px"/><polygon points="262.07 603 253.94 583.1 262.07 587.82 270.2 583.1 262.07 603"/><polyline points="411.07 314 411.07 520 262.07 520 262.07 467" style="fill:none;stroke:#000;stroke-linecap:round;stroke-miterlimit:10;stroke-width:2px"/><path d="M191.06,280.89h2.15v-1.78l1.42-.4v2.18h4.8v1.21h-4.8v4.24a2.66,2.66,0,0,0,.63,2,2.5,2.5,0,0,0,1.82.63,3,3,0,0,0,1.41-.31,7.16,7.16,0,0,0,1.09-.66L200,289a5.36,5.36,0,0,1-1.5.81,5.47,5.47,0,0,1-1.79.3,4.35,4.35,0,0,1-1.36-.2,3.12,3.12,0,0,1-1.12-.64,3,3,0,0,1-.78-1.11,4.14,4.14,0,0,1-.28-1.61V282.1h-2.15Z" transform="translate(-1.58)"/><path d="M202.49,289.89v-1.21h2.43V282.1h-2.43v-1.21h3.37l.29,1.17h.09a6.25,6.25,0,0,1,1.36-.95,3.81,3.81,0,0,1,1.81-.4,1.89,1.89,0,0,1,1,.23,1.63,1.63,0,0,1,.57.69,3.54,3.54,0,0,1,.28,1.09,12.57,12.57,0,0,1,.07,1.45h-1.26a4.58,4.58,0,0,0-.22-1.67A.82.82,0,0,0,209,282a2.93,2.93,0,0,0-1,.16,3.17,3.17,0,0,0-.78.4,4.74,4.74,0,0,0-.57.46,3.17,3.17,0,0,0-.34.4v5.29h3.45v1.21Z" transform="translate(-1.58)"/><path d="M218.62,280.89h2.57V287a13.09,13.09,0,0,0,.11,1.69h1.21v1.17H220.1l-.06-1.53H220a3.65,3.65,0,0,1-1.24,1.26,3.43,3.43,0,0,1-1.86.49,4.81,4.81,0,0,1-1.41-.19,2,2,0,0,1-1-.66,3.08,3.08,0,0,1-.56-1.25,8.86,8.86,0,0,1-.18-1.95v-4h-1.21v-1.21h2.63v4.88a10.52,10.52,0,0,0,.07,1.32,3,3,0,0,0,.25,1,1.37,1.37,0,0,0,.58.61,2.16,2.16,0,0,0,1,.21,2.35,2.35,0,0,0,1.62-.61,3.93,3.93,0,0,0,1-1.53V282.1h-1.15Z" transform="translate(-1.58)"/><path d="M232.43,288.76a4.73,4.73,0,0,1-.77.54,6.05,6.05,0,0,1-1,.43,7.56,7.56,0,0,1-1.09.28,7.31,7.31,0,0,1-1.14.1,4.93,4.93,0,0,1-1.91-.34,3.7,3.7,0,0,1-1.39-.95,4.1,4.1,0,0,1-.84-1.49,5.86,5.86,0,0,1-.29-1.94,6,6,0,0,1,.31-2A3.82,3.82,0,0,1,226.7,281a5.43,5.43,0,0,1,1.89-.32,5.89,5.89,0,0,1,1.5.2,2.91,2.91,0,0,1,1.3.75,3.52,3.52,0,0,1,.87,1.51,6.87,6.87,0,0,1,.22,2.49h-6.95a3.13,3.13,0,0,0,.87,2.42,3.29,3.29,0,0,0,2.33.81,4,4,0,0,0,1-.12,8.06,8.06,0,0,0,.91-.28,5.39,5.39,0,0,0,.76-.36,3.11,3.11,0,0,0,.51-.36Zm-3.79-6.9a4.47,4.47,0,0,0-1.12.13,2.44,2.44,0,0,0-.94.42,2.29,2.29,0,0,0-.66.78,3,3,0,0,0-.33,1.17h5.58a2.76,2.76,0,0,0-.77-1.84A2.38,2.38,0,0,0,228.64,281.86Z" transform="translate(-1.58)"/><path d="M1.58,289.8v-1.2H3.73V282H1.58V280.8H3.73v-.5a3.06,3.06,0,0,1,.88-2.45,3.79,3.79,0,0,1,2.52-.75,6.81,6.81,0,0,1,1.06.07,4.47,4.47,0,0,1,1,.29l-.32,1.17a3.8,3.8,0,0,0-.9-.27,5.79,5.79,0,0,0-.79-.06,1.89,1.89,0,0,0-1.61.59,3.27,3.27,0,0,0-.43,1.91H8.87V282H5.15v6.59H8.87v1.2Z" transform="translate(-1.58)"/><path d="M12.74,281.51a5.71,5.71,0,0,1,1.75-.65,9.69,9.69,0,0,1,1.91-.2,3.42,3.42,0,0,1,1.5.29,2.45,2.45,0,0,1,.92.74,2.75,2.75,0,0,1,.45,1.05,5.83,5.83,0,0,1,.12,1.18c0,.45,0,.94,0,1.46s0,1-.05,1.54a13.33,13.33,0,0,0,.1,1.71h1.21v1.17H18.23l-.16-1.35H18a4.74,4.74,0,0,1-.32.42,3.15,3.15,0,0,1-.57.49,3.83,3.83,0,0,1-.86.43A3.55,3.55,0,0,1,15,290a3,3,0,0,1-2.11-.69,2.35,2.35,0,0,1-.78-1.87,2.73,2.73,0,0,1,.41-1.53,2.54,2.54,0,0,1,1.16-.94,5.4,5.4,0,0,1,1.83-.37,12.14,12.14,0,0,1,2.41.14,6.56,6.56,0,0,0,0-1.38,1.9,1.9,0,0,0-.29-.87,1.19,1.19,0,0,0-.63-.46,3.24,3.24,0,0,0-1-.13,5.4,5.4,0,0,0-1.56.22c-.49.15-.93.3-1.31.46Zm2.67,7.25a2.56,2.56,0,0,0,.93-.16,2.92,2.92,0,0,0,.76-.42,2.34,2.34,0,0,0,.54-.55,2.49,2.49,0,0,0,.32-.56v-1.26a9.92,9.92,0,0,0-1.72-.16,4.62,4.62,0,0,0-1.37.17,1.82,1.82,0,0,0-.9.53,1.32,1.32,0,0,0-.33.93,1.5,1.5,0,0,0,.41,1A1.79,1.79,0,0,0,15.41,288.76Z" transform="translate(-1.58)"/><path d="M23.74,277.2h3v9.58a2.46,2.46,0,0,0,.37,1.55,1.32,1.32,0,0,0,1.09.45,2.64,2.64,0,0,0,1-.18,4.87,4.87,0,0,0,1-.61l.64,1a5.06,5.06,0,0,1-.63.45,4.94,4.94,0,0,1-.7.33,4.89,4.89,0,0,1-.72.21,4.36,4.36,0,0,1-.67.07,3.88,3.88,0,0,1-1.19-.17,2.1,2.1,0,0,1-.88-.55,2.39,2.39,0,0,1-.53-1,5.66,5.66,0,0,1-.18-1.54v-8.37H23.74Z" transform="translate(-1.58)"/><path d="M40.27,287.37a1,1,0,0,0-.45-.89,3.51,3.51,0,0,0-1.12-.5c-.44-.13-.92-.24-1.44-.35a8.77,8.77,0,0,1-1.45-.43,3.35,3.35,0,0,1-1.11-.73,1.78,1.78,0,0,1-.45-1.29,2.17,2.17,0,0,1,.3-1.17,2.59,2.59,0,0,1,.78-.8,3.65,3.65,0,0,1,1.14-.47,5.94,5.94,0,0,1,1.35-.15,6.68,6.68,0,0,1,2.17.31,7.14,7.14,0,0,1,1.45.66l-.58,1.13c-.39-.21-.82-.42-1.28-.62a4.37,4.37,0,0,0-1.73-.29,3.33,3.33,0,0,0-.78.08,2.51,2.51,0,0,0-.7.24,1.51,1.51,0,0,0-.51.42,1.12,1.12,0,0,0-.18.64.8.8,0,0,0,.44.72,4.38,4.38,0,0,0,1.12.42q.66.18,1.44.33a7.21,7.21,0,0,1,1.45.44,3.29,3.29,0,0,1,1.11.77,1.89,1.89,0,0,1,.45,1.32,2.55,2.55,0,0,1-1,2,4.57,4.57,0,0,1-3,.81,6.62,6.62,0,0,1-1.17-.11,7.11,7.11,0,0,1-1.08-.29,6.39,6.39,0,0,1-.91-.4,3.59,3.59,0,0,1-.69-.46l.72-1.17a3.23,3.23,0,0,0,.57.44,5.87,5.87,0,0,0,.79.41,5.3,5.3,0,0,0,.93.28,4.17,4.17,0,0,0,1,.11,5.14,5.14,0,0,0,.91-.08,2.76,2.76,0,0,0,.75-.25,1.59,1.59,0,0,0,.51-.45A1.24,1.24,0,0,0,40.27,287.37Z" transform="translate(-1.58)"/><path d="M52.72,288.67a4.63,4.63,0,0,1-.76.54,5.7,5.7,0,0,1-1,.43,7.24,7.24,0,0,1-1.09.28,6.12,6.12,0,0,1-1.14.1,5.17,5.17,0,0,1-1.91-.33,3.69,3.69,0,0,1-1.38-1,4.16,4.16,0,0,1-.85-1.48,6.24,6.24,0,0,1-.29-1.95,6,6,0,0,1,.32-2,3.9,3.9,0,0,1,.91-1.48A3.94,3.94,0,0,1,47,280.9a5.8,5.8,0,0,1,3.38-.11,3,3,0,0,1,1.31.74,3.63,3.63,0,0,1,.87,1.51,7.43,7.43,0,0,1,.22,2.5h-7A3.14,3.14,0,0,0,46.7,288a3.3,3.3,0,0,0,2.32.8,3.83,3.83,0,0,0,1-.12,8.06,8.06,0,0,0,.91-.28,3.57,3.57,0,0,0,.76-.36,3.26,3.26,0,0,0,.52-.36Zm-3.79-6.89a5.06,5.06,0,0,0-1.12.12,2.82,2.82,0,0,0-.93.42,2.43,2.43,0,0,0-.67.78,3.22,3.22,0,0,0-.33,1.18h5.58a2.78,2.78,0,0,0-.76-1.85A2.42,2.42,0,0,0,48.93,281.78Z" transform="translate(-1.58)"/></g></g></svg>