<svg xmlns="http://www.w3.org/2000/svg" viewBox="0 0 374 549.8"><title>for</title><g id="Layer_2" data-name="Layer 2"><g id="for"><line x1="130.51" y1="115.63" x2="130.51" y2="163.68" style="fill:none;stroke:#000;stroke-linecap:round;stroke-miterlimit:10;stroke-width:2px"/><polygon points="130.51 177.8 122.38 157.91 130.51 162.63 138.64 157.91 130.51 177.8"/><rect x="85.07" y="197.36" width="92.63" height="90.13" transform="translate(209.9 -21.9) rotate(45)" style="fill:none;stroke:#000;stroke-linecap:round;stroke-miterlimit:10;stroke-width:2px"/><polyline points="196.5 242.8 261 242.8 261 268.51" style="fill:none;stroke:#000;stroke-linecap:round;stroke-miterlimit:10;stroke-width:2px"/><polygon points="261 282.63 252.87 262.74 261 267.46 269.13 262.74 261 282.63"/><rect x="195.27" y="282.3" width="131" height="54.33" style="fill:none;stroke:#000;stroke-linecap:round;stroke-miterlimit:10;stroke-width:2px"/><polyline points="261 427.63 261 473.8 321.22 473.8 373 473.8 373 137.63 145.12 137.63" style="fill:none;stroke:#000;stroke-linecap:round;stroke-miterlimit:10;stroke-width:2px"/><polygon points="131 137.63 150.9 129.5 146.18 137.63 150.9 145.76 131 137.63"/><path d="M208,292.36v12.13h-1.58V292.36Z"/><path d="M210.84,298.14c0-.92,0-1.64-.08-2.36h1.41l.09,1.44h0a3.24,3.24,0,0,1,2.88-1.62c1.21,0,3.08.72,3.08,3.71v5.18h-1.58v-5c0-1.4-.52-2.57-2-2.57a2.28,2.28,0,0,0-2.12,1.62,2.24,2.24,0,0,0-.11.73v5.24h-1.58Z"/><path d="M220.61,302.89a4.42,4.42,0,0,0,2.11.61c1.13,0,1.67-.56,1.67-1.29s-.45-1.16-1.6-1.59c-1.59-.57-2.33-1.42-2.33-2.46,0-1.41,1.16-2.56,3-2.56a4,4,0,0,1,2.13.54l-.38,1.15a3.33,3.33,0,0,0-1.78-.52c-.94,0-1.44.54-1.44,1.19s.5,1,1.63,1.49c1.5.56,2.29,1.32,2.29,2.61,0,1.55-1.21,2.63-3.24,2.63a5,5,0,0,1-2.45-.61Z"/><path d="M229.86,293.69v2.09h2.27V297h-2.27v4.7c0,1.08.31,1.7,1.19,1.7a3.06,3.06,0,0,0,.92-.11l.07,1.21a4.58,4.58,0,0,1-1.4.21,2.26,2.26,0,0,1-1.71-.66,3.39,3.39,0,0,1-.62-2.29V297H227v-1.2h1.35v-1.62Z"/><path d="M233.91,298.5c0-1,0-1.91-.07-2.72h1.38l.08,1.73h0a2.64,2.64,0,0,1,2.43-1.91c.16,0,.29,0,.43,0v1.5a2.24,2.24,0,0,0-2.66,2,4.38,4.38,0,0,0-.05.74v4.64h-1.59Z"/><path d="M247.09,302.1c0,.92,0,1.71.07,2.39h-1.4l-.09-1.42h0a3.26,3.26,0,0,1-2.88,1.62c-1.37,0-3-.77-3-3.82v-5.09h1.59v4.81c0,1.65.52,2.79,1.94,2.79a2.29,2.29,0,0,0,2.09-1.46,2.21,2.21,0,0,0,.14-.81v-5.33h1.59Z"/><path d="M255.93,304.19a6.18,6.18,0,0,1-2.51.5,4.14,4.14,0,0,1-4.34-4.45,4.44,4.44,0,0,1,4.69-4.64,4.89,4.89,0,0,1,2.19.47l-.36,1.2a3.85,3.85,0,0,0-1.83-.41,3,3,0,0,0-3.08,3.29,3,3,0,0,0,3,3.26,4.54,4.54,0,0,0,1.95-.41Z"/><path d="M263.88,304.19a6.08,6.08,0,0,1-2.5.5,4.14,4.14,0,0,1-4.34-4.45,4.44,4.44,0,0,1,4.68-4.64,4.9,4.9,0,0,1,2.2.47l-.36,1.2a3.87,3.87,0,0,0-1.84-.41,3,3,0,0,0-3.08,3.29,3,3,0,0,0,3,3.26,4.49,4.49,0,0,0,1.94-.41Z"/><path d="M267.5,293.33a1,1,0,0,1-1,1,.92.92,0,0,1-.95-1,1,1,0,0,1,1-1A1,1,0,0,1,267.5,293.33Zm-1.77,11.16v-8.71h1.59v8.71Z"/><path d="M277.83,300.06a4.27,4.27,0,0,1-4.34,4.63,4.15,4.15,0,0,1-4.17-4.48,4.26,4.26,0,0,1,4.32-4.61A4.12,4.12,0,0,1,277.83,300.06Zm-6.89.09c0,1.91,1.08,3.35,2.63,3.35s2.64-1.42,2.64-3.38c0-1.48-.74-3.33-2.61-3.33S270.94,298.52,270.94,300.15Z"/><path d="M279.83,298.14c0-.92,0-1.64-.07-2.36h1.4l.09,1.44h0a3.22,3.22,0,0,1,2.88-1.62c1.2,0,3.08.72,3.08,3.71v5.18h-1.59v-5c0-1.4-.52-2.57-2-2.57a2.28,2.28,0,0,0-2.12,1.62,2.24,2.24,0,0,0-.11.73v5.24h-1.58Z"/><path d="M290.7,300.42a2.79,2.79,0,0,0,3,3,5.68,5.68,0,0,0,2.41-.45l.29,1.13a7,7,0,0,1-2.92.56,4.06,4.06,0,0,1-4.28-4.41c0-2.63,1.55-4.68,4.08-4.68,2.87,0,3.61,2.48,3.61,4.09a3.43,3.43,0,0,1-.06.73Zm4.65-1.13a2.26,2.26,0,0,0-2.2-2.56,2.59,2.59,0,0,0-2.43,2.56Z"/><path d="M298.62,302.89a4.45,4.45,0,0,0,2.11.61c1.13,0,1.67-.56,1.67-1.29s-.45-1.16-1.6-1.59c-1.59-.57-2.32-1.42-2.32-2.46,0-1.41,1.15-2.56,3-2.56a4,4,0,0,1,2.13.54l-.38,1.15a3.33,3.33,0,0,0-1.78-.52c-.94,0-1.44.54-1.44,1.19s.5,1,1.63,1.49c1.5.56,2.29,1.32,2.29,2.61,0,1.55-1.21,2.63-3.24,2.63a5,5,0,0,1-2.45-.61Z"/><path d="M315.9,302.4a14.53,14.53,0,0,0,.13,2.09H314.6l-.12-1.09h-.05a3.27,3.27,0,0,1-2.67,1.29,2.48,2.48,0,0,1-2.66-2.5c0-2.11,1.87-3.26,5.24-3.24v-.18a1.79,1.79,0,0,0-2-2,4.14,4.14,0,0,0-2.28.65l-.36-1.06a5.54,5.54,0,0,1,2.88-.76c2.66,0,3.31,1.82,3.31,3.55Zm-1.53-2.35c-1.73,0-3.69.27-3.69,2a1.39,1.39,0,0,0,1.48,1.51,2.2,2.2,0,0,0,2.14-1.46,1.93,1.93,0,0,0,.07-.5Z"/><path d="M237.39,320.1c0-1,0-1.91-.08-2.72h1.39l.07,1.73h.06a2.62,2.62,0,0,1,2.43-1.91c.16,0,.28,0,.43,0v1.5a2.24,2.24,0,0,0-.54,0,2.21,2.21,0,0,0-2.13,2,5.74,5.74,0,0,0-.05.74v4.64h-1.58Z"/><path d="M244,322a2.79,2.79,0,0,0,3,3,5.65,5.65,0,0,0,2.41-.45l.29,1.13a7.12,7.12,0,0,1-2.91.56,4.06,4.06,0,0,1-4.29-4.41c0-2.63,1.55-4.68,4.09-4.68,2.86,0,3.6,2.48,3.6,4.09a3.43,3.43,0,0,1-.06.73Zm4.65-1.13a2.25,2.25,0,0,0-2.2-2.56,2.6,2.6,0,0,0-2.43,2.56Z"/><path d="M252.11,320.22c0-1.11,0-2-.07-2.84h1.4l.09,1.49h0a3.38,3.38,0,0,1,3.09-1.67c2.13,0,3.71,1.78,3.71,4.41,0,3.13-1.92,4.68-4,4.68a3,3,0,0,1-2.68-1.37h0v4.74h-1.57Zm1.57,2.33a2.17,2.17,0,0,0,.07.64,2.45,2.45,0,0,0,2.37,1.86c1.68,0,2.65-1.37,2.65-3.37,0-1.73-.92-3.22-2.59-3.22a2.51,2.51,0,0,0-2.4,1.94,2.84,2.84,0,0,0-.1.63Z"/><path d="M263.23,322a2.79,2.79,0,0,0,3,3,5.65,5.65,0,0,0,2.41-.45l.29,1.13a7.12,7.12,0,0,1-2.91.56,4.06,4.06,0,0,1-4.29-4.41c0-2.63,1.55-4.68,4.09-4.68,2.86,0,3.6,2.48,3.6,4.09a3.43,3.43,0,0,1-.06.73Zm4.65-1.13a2.25,2.25,0,0,0-2.2-2.56,2.6,2.6,0,0,0-2.43,2.56Z"/><path d="M273.28,315.29v2.09h2.27v1.21h-2.27v4.69c0,1.08.3,1.7,1.19,1.7a2.94,2.94,0,0,0,.91-.11l.08,1.21a4.66,4.66,0,0,1-1.41.21,2.27,2.27,0,0,1-1.71-.66,3.44,3.44,0,0,1-.61-2.29v-4.75h-1.35v-1.21h1.35v-1.62Z"/><path d="M279.09,314.93a1,1,0,0,1-1,1,.93.93,0,0,1-.95-1,1,1,0,0,1,1-1A1,1,0,0,1,279.09,314.93Zm-1.76,11.16v-8.71h1.58v8.71Z"/><path d="M281.54,320.1c0-1,0-1.91-.07-2.72h1.38l.07,1.73H283a2.63,2.63,0,0,1,2.43-1.91c.16,0,.29,0,.43,0v1.5a2.24,2.24,0,0,0-2.66,2,4.35,4.35,0,0,0-.06.74v4.64h-1.58Z"/><path d="M102.91,235.35a7.7,7.7,0,0,1-3.2.57c-3.42,0-6-2.16-6-6.15a6,6,0,0,1,6.34-6.38,6.7,6.7,0,0,1,2.88.54l-.4,1.28a5.54,5.54,0,0,0-2.43-.5c-2.84,0-4.73,1.81-4.73,5,0,3,1.71,4.88,4.64,4.88a6.39,6.39,0,0,0,2.57-.5Z"/><path d="M112.52,231.3a4.26,4.26,0,0,1-4.34,4.62,4.15,4.15,0,0,1-4.17-4.48,4.26,4.26,0,0,1,4.32-4.61A4.12,4.12,0,0,1,112.52,231.3Zm-6.89.09c0,1.9,1.08,3.34,2.63,3.34s2.64-1.42,2.64-3.38c0-1.48-.74-3.33-2.61-3.33S105.63,229.75,105.63,231.39Z"/><path d="M114.52,229.37c0-.92,0-1.64-.07-2.36h1.4l.09,1.44h0a3.22,3.22,0,0,1,2.88-1.62c1.2,0,3.08.72,3.08,3.71v5.19h-1.59v-5c0-1.4-.52-2.57-2-2.57a2.29,2.29,0,0,0-2.13,1.62,2.35,2.35,0,0,0-.11.74v5.24h-1.58Z"/><path d="M132,222.94v10.53c0,.78,0,1.66.07,2.26h-1.41l-.07-1.52h-.05a3.14,3.14,0,0,1-2.94,1.71c-2.1,0-3.74-1.78-3.74-4.43,0-2.89,1.8-4.66,3.91-4.66a2.89,2.89,0,0,1,2.62,1.32h0v-5.21Zm-1.57,7.62a3.05,3.05,0,0,0-.07-.67,2.34,2.34,0,0,0-2.29-1.82c-1.64,0-2.61,1.44-2.61,3.35s.88,3.23,2.58,3.23a2.41,2.41,0,0,0,2.32-1.9,2.9,2.9,0,0,0,.07-.68Z"/><path d="M136.43,224.56a1,1,0,0,1-1,1,.93.93,0,0,1-1-1,1,1,0,0,1,1-1A1,1,0,0,1,136.43,224.56Zm-1.77,11.17V227h1.58v8.72Z"/><path d="M145.08,235.42a6.08,6.08,0,0,1-2.5.5,4.14,4.14,0,0,1-4.34-4.44,4.44,4.44,0,0,1,4.68-4.65,4.9,4.9,0,0,1,2.2.47l-.36,1.21a3.85,3.85,0,0,0-1.84-.42,3,3,0,0,0-3.08,3.3,3,3,0,0,0,3,3.26,4.47,4.47,0,0,0,1.94-.42Z"/><path d="M148.7,224.56a1,1,0,0,1-1,1,.93.93,0,0,1-.95-1,1,1,0,0,1,1-1A1,1,0,0,1,148.7,224.56Zm-1.76,11.17V227h1.58v8.72Z"/><path d="M159,231.3a4.27,4.27,0,0,1-4.34,4.62,4.15,4.15,0,0,1-4.18-4.48,4.26,4.26,0,0,1,4.32-4.61A4.13,4.13,0,0,1,159,231.3Zm-6.9.09c0,1.9,1.08,3.34,2.63,3.34s2.64-1.42,2.64-3.38c0-1.48-.73-3.33-2.61-3.33S152.14,229.75,152.14,231.39Zm5-8.14L155,225.82h-1.12l1.57-2.57Z"/><path d="M161,229.37c0-.92,0-1.64-.07-2.36h1.4l.09,1.44h0a3.22,3.22,0,0,1,2.88-1.62c1.21,0,3.08.72,3.08,3.71v5.19h-1.59v-5c0-1.4-.52-2.57-2-2.57a2.29,2.29,0,0,0-2.13,1.62,2.35,2.35,0,0,0-.11.74v5.24H161Z"/><path d="M212.7,229h2.14v-1.78l1.43-.4V229h4.8v1.21h-4.8v4.25a2.65,2.65,0,0,0,.63,1.94,2.49,2.49,0,0,0,1.82.63,3,3,0,0,0,1.41-.31,7.69,7.69,0,0,0,1.09-.66l.46,1.06a4.89,4.89,0,0,1-1.5.81,5.48,5.48,0,0,1-1.79.31A4.35,4.35,0,0,1,217,238a3,3,0,0,1-1.9-1.75,4.1,4.1,0,0,1-.29-1.61v-4.46H212.7Z"/><path d="M224.13,238v-1.2h2.43v-6.59h-2.43V229h3.37l.29,1.17h.09a6.25,6.25,0,0,1,1.36-.95,3.79,3.79,0,0,1,1.8-.4,1.75,1.75,0,0,1,1,.24,1.5,1.5,0,0,1,.58.68,3.54,3.54,0,0,1,.28,1.09,12.57,12.57,0,0,1,.07,1.45l-1.26,0a4.6,4.6,0,0,0-.22-1.68.82.82,0,0,0-.82-.54,3,3,0,0,0-1.79.56,4.74,4.74,0,0,0-.57.46,2.5,2.5,0,0,0-.34.4v5.3h3.45V238Z"/><path d="M240.26,229h2.57v6.14a13.09,13.09,0,0,0,.11,1.69h1.21V238h-2.41l-.06-1.53h-.07a3.65,3.65,0,0,1-1.24,1.26,3.37,3.37,0,0,1-1.86.49,4.71,4.71,0,0,1-1.41-.19,2,2,0,0,1-1-.66,3,3,0,0,1-.56-1.25,8.86,8.86,0,0,1-.18-2v-4h-1.21V229h2.63v4.88a13,13,0,0,0,.06,1.32,3.24,3.24,0,0,0,.26,1,1.32,1.32,0,0,0,.58.61,2.16,2.16,0,0,0,1,.21,2.35,2.35,0,0,0,1.62-.61,3.93,3.93,0,0,0,1-1.53v-4.66h-1.15Z"/><path d="M254.07,236.87a5.24,5.24,0,0,1-1.73,1,7.56,7.56,0,0,1-1.09.28,7.31,7.31,0,0,1-1.14.1,4.93,4.93,0,0,1-1.91-.34,3.7,3.7,0,0,1-1.39-.95,4.14,4.14,0,0,1-.84-1.48,6.69,6.69,0,0,1,0-4,4,4,0,0,1,.91-1.48,4,4,0,0,1,1.44-.91,5.43,5.43,0,0,1,1.89-.31,5.88,5.88,0,0,1,1.5.19,3,3,0,0,1,1.3.75,3.52,3.52,0,0,1,.87,1.51,6.93,6.93,0,0,1,.22,2.5h-7a3.14,3.14,0,0,0,.87,2.42,3.33,3.33,0,0,0,2.33.8,4,4,0,0,0,1-.12,7.89,7.89,0,0,0,.9-.28,5,5,0,0,0,.77-.36,3.11,3.11,0,0,0,.51-.36Zm-3.79-6.9a5.14,5.14,0,0,0-1.13.13,2.47,2.47,0,0,0-.93.42,2.29,2.29,0,0,0-.66.78,2.83,2.83,0,0,0-.33,1.18h5.58a2.77,2.77,0,0,0-.77-1.85A2.4,2.4,0,0,0,250.28,230Z"/><path d="M5.22,236.92v-1.21H7.37v-6.59H5.22v-1.2H7.37v-.51A3.06,3.06,0,0,1,8.25,225a3.79,3.79,0,0,1,2.52-.75,6.81,6.81,0,0,1,1.06.07,4.47,4.47,0,0,1,1,.29l-.33,1.17a3.56,3.56,0,0,0-.89-.26,4.62,4.62,0,0,0-.79-.07,1.87,1.87,0,0,0-1.61.59,3.28,3.28,0,0,0-.43,1.92h3.72v1.2H8.79v6.59h3.72v1.21Z"/><path d="M16.38,228.62a5.71,5.71,0,0,1,1.75-.65,9.69,9.69,0,0,1,1.91-.2,3.42,3.42,0,0,1,1.5.29,2.38,2.38,0,0,1,.92.75,2.64,2.64,0,0,1,.45,1A5.82,5.82,0,0,1,23,231c0,.46,0,.94,0,1.46L22.93,234a13.28,13.28,0,0,0,.11,1.71h1.21v1.17H21.87l-.16-1.35h-.09c-.07.1-.18.24-.32.41a3.15,3.15,0,0,1-.57.49,3.45,3.45,0,0,1-.86.43,3.55,3.55,0,0,1-1.19.18,3,3,0,0,1-2.11-.69,2.35,2.35,0,0,1-.78-1.87A2.65,2.65,0,0,1,16.2,233a2.46,2.46,0,0,1,1.16-.93,5.16,5.16,0,0,1,1.83-.38,12.14,12.14,0,0,1,2.41.14,6.56,6.56,0,0,0,0-1.38,1.9,1.9,0,0,0-.29-.87,1.24,1.24,0,0,0-.63-.46,3.24,3.24,0,0,0-1-.13,5.35,5.35,0,0,0-1.56.22c-.49.15-.93.31-1.32.46Zm2.67,7.25a2.6,2.6,0,0,0,.93-.16,3.23,3.23,0,0,0,.76-.41,2.7,2.7,0,0,0,.86-1.12v-1.26a9.92,9.92,0,0,0-1.72-.16,4.62,4.62,0,0,0-1.37.17,1.82,1.82,0,0,0-.9.53,1.33,1.33,0,0,0-.33.94,1.48,1.48,0,0,0,.41,1A1.79,1.79,0,0,0,19.05,235.87Z"/><path d="M27.38,224.32h3v9.57a2.46,2.46,0,0,0,.37,1.55,1.3,1.3,0,0,0,1.08.45,2.65,2.65,0,0,0,1-.18,4.23,4.23,0,0,0,1-.61l.65,1a3.59,3.59,0,0,1-.63.45,4.94,4.94,0,0,1-.7.33,5,5,0,0,1-.73.21,3.23,3.23,0,0,1-.66.07,4,4,0,0,1-1.2-.17,2.06,2.06,0,0,1-.87-.55,2.39,2.39,0,0,1-.53-1,5.25,5.25,0,0,1-.18-1.54v-8.37H27.38Z"/><path d="M43.9,234.48a1,1,0,0,0-.44-.89,3.75,3.75,0,0,0-1.12-.5c-.44-.13-.92-.24-1.44-.35a8.77,8.77,0,0,1-1.45-.43,3.35,3.35,0,0,1-1.11-.73,1.78,1.78,0,0,1-.45-1.29,2.19,2.19,0,0,1,.3-1.17,2.59,2.59,0,0,1,.78-.8,3.65,3.65,0,0,1,1.14-.47,5.94,5.94,0,0,1,1.35-.15,6.68,6.68,0,0,1,2.17.31,7,7,0,0,1,1.44.66l-.57,1.14a13.88,13.88,0,0,0-1.28-.63,4.56,4.56,0,0,0-1.73-.29,3.33,3.33,0,0,0-.78.08,2.41,2.41,0,0,0-.7.24,1.51,1.51,0,0,0-.51.42,1.12,1.12,0,0,0-.19.64.77.77,0,0,0,.45.72,4.77,4.77,0,0,0,1.12.43c.44.11.92.22,1.44.32a6.92,6.92,0,0,1,1.44.44,3.13,3.13,0,0,1,1.12.78,1.84,1.84,0,0,1,.45,1.31,2.55,2.55,0,0,1-1,2,4.57,4.57,0,0,1-3,.81,5.79,5.79,0,0,1-1.17-.11,6.11,6.11,0,0,1-1.08-.29,5.93,5.93,0,0,1-.92-.4,3.82,3.82,0,0,1-.68-.46l.72-1.17a2.82,2.82,0,0,0,.57.44,5.32,5.32,0,0,0,.79.41,6.32,6.32,0,0,0,.93.29,4.75,4.75,0,0,0,1,.1,4.34,4.34,0,0,0,.91-.08,2.58,2.58,0,0,0,.74-.25,1.34,1.34,0,0,0,.52-.45A1.23,1.23,0,0,0,43.9,234.48Z"/><path d="M56.36,235.78a4.73,4.73,0,0,1-.77.54,5.27,5.27,0,0,1-1,.43,6.45,6.45,0,0,1-1.09.28,6.2,6.2,0,0,1-1.14.1,5.13,5.13,0,0,1-1.91-.33,3.58,3.58,0,0,1-1.38-1,3.94,3.94,0,0,1-.85-1.48,6.18,6.18,0,0,1-.29-1.94,6,6,0,0,1,.32-2,3.9,3.9,0,0,1,.91-1.48,3.94,3.94,0,0,1,1.44-.91,5.35,5.35,0,0,1,1.89-.31,5.81,5.81,0,0,1,1.49.2,3,3,0,0,1,1.31.74,3.71,3.71,0,0,1,.87,1.52,7.13,7.13,0,0,1,.21,2.49H49.47a3.13,3.13,0,0,0,.87,2.42,3.3,3.3,0,0,0,2.32.8,4,4,0,0,0,1-.12,8.06,8.06,0,0,0,.91-.27,4.9,4.9,0,0,0,.76-.36,5.12,5.12,0,0,0,.51-.36Zm-3.79-6.89a5.06,5.06,0,0,0-1.12.12,2.65,2.65,0,0,0-.93.43,2.29,2.29,0,0,0-.67.77,3.22,3.22,0,0,0-.33,1.18H55.1a2.78,2.78,0,0,0-.76-1.85A2.46,2.46,0,0,0,52.57,228.89Z"/><polyline points="67 241.3 1 241.3 1 473.3 130.5 473.8 130.5 535.68" style="fill:none;stroke:#000;stroke-linecap:round;stroke-miterlimit:10;stroke-width:2px"/><polygon points="130.5 549.8 122.37 529.91 130.5 534.63 138.63 529.91 130.5 549.8"/><rect x="69.27" y="64.63" width="123" height="50" style="fill:none;stroke:#000;stroke-linecap:round;stroke-miterlimit:10;stroke-width:2px"/><path d="M85.43,75.82V88H83.84V75.82Z"/><path d="M88.29,81.6c0-.92,0-1.64-.07-2.36h1.4l.09,1.44h0a3.22,3.22,0,0,1,2.88-1.62c1.21,0,3.08.72,3.08,3.71V88H94.12v-5c0-1.4-.52-2.57-2-2.57A2.29,2.29,0,0,0,90,82a2.35,2.35,0,0,0-.11.74V88H88.29Z"/><path d="M100,76.79a1,1,0,0,1-2,0,1,1,0,0,1,1-1A1,1,0,0,1,100,76.79ZM98.28,88V79.24h1.58V88Z"/><path d="M108.7,87.65a6.08,6.08,0,0,1-2.5.5,4.14,4.14,0,0,1-4.34-4.44,4.44,4.44,0,0,1,4.68-4.65,4.9,4.9,0,0,1,2.2.47l-.36,1.2a4,4,0,0,0-1.84-.41,3,3,0,0,0-3.08,3.3,3,3,0,0,0,3,3.25,4.49,4.49,0,0,0,1.94-.41Z"/><path d="M112.32,76.79a1,1,0,0,1-1,1,.93.93,0,0,1-1-1,1,1,0,0,1,1-1A1,1,0,0,1,112.32,76.79ZM110.56,88V79.24h1.58V88Z"/><path d="M120.89,85.87A16.48,16.48,0,0,0,121,88h-1.42l-.12-1.1h-.06a3.24,3.24,0,0,1-2.66,1.29,2.48,2.48,0,0,1-2.67-2.5c0-2.11,1.88-3.26,5.24-3.24v-.18a1.79,1.79,0,0,0-2-2,4.18,4.18,0,0,0-2.29.65l-.36-1.06a5.7,5.7,0,0,1,2.89-.76c2.66,0,3.31,1.82,3.31,3.55Zm-1.53-2.36c-1.73,0-3.69.27-3.69,2A1.38,1.38,0,0,0,117.14,87a2.21,2.21,0,0,0,2.15-1.46,1.93,1.93,0,0,0,.07-.5Z"/><path d="M123.44,75.17H125V88h-1.59Z"/><path d="M129.46,76.79a1,1,0,0,1-1,1,.93.93,0,0,1-1-1,1,1,0,0,1,1-1A1,1,0,0,1,129.46,76.79ZM127.69,88V79.24h1.58V88Z"/><path d="M130.91,87l3.93-5.13c.39-.49.75-.9,1.15-1.37v0h-4.72V79.24h6.63v1L134,85.29c-.38.49-.72.94-1.12,1.37v0H138V88h-7.06Z"/><path d="M145.73,85.87a14.82,14.82,0,0,0,.12,2.09h-1.42l-.12-1.1h-.06a3.24,3.24,0,0,1-2.66,1.29,2.48,2.48,0,0,1-2.67-2.5c0-2.11,1.88-3.26,5.24-3.24v-.18a1.79,1.79,0,0,0-2-2,4.18,4.18,0,0,0-2.29.65l-.36-1.06a5.7,5.7,0,0,1,2.89-.76c2.66,0,3.31,1.82,3.31,3.55Zm-1.53-2.36c-1.73,0-3.69.27-3.69,2A1.38,1.38,0,0,0,142,87a2.21,2.21,0,0,0,2.15-1.46,1.93,1.93,0,0,0,.07-.5Z"/><path d="M154.49,87.65a6.08,6.08,0,0,1-2.5.5,4.14,4.14,0,0,1-4.34-4.44,4.44,4.44,0,0,1,4.68-4.65,4.9,4.9,0,0,1,2.2.47l-.36,1.2a4,4,0,0,0-1.84-.41,3,3,0,0,0-3.07,3.3,3,3,0,0,0,3,3.25,4.49,4.49,0,0,0,1.94-.41Z"/><path d="M158.11,76.79a1,1,0,0,1-1,1,.93.93,0,0,1-.95-1,1,1,0,0,1,1-1A1,1,0,0,1,158.11,76.79ZM156.35,88V79.24h1.58V88Z"/><path d="M168.45,83.53a4.27,4.27,0,0,1-4.34,4.62,4.15,4.15,0,0,1-4.18-4.48,4.26,4.26,0,0,1,4.32-4.61A4.13,4.13,0,0,1,168.45,83.53Zm-6.9.09c0,1.9,1.08,3.34,2.63,3.34s2.64-1.42,2.64-3.38c0-1.48-.73-3.33-2.61-3.33S161.55,82,161.55,83.62Zm5-8.14-2.19,2.57h-1.12l1.57-2.57Z"/><path d="M170.44,81.6c0-.92,0-1.64-.07-2.36h1.4l.09,1.44h0a3.22,3.22,0,0,1,2.88-1.62c1.21,0,3.08.72,3.08,3.71V88h-1.59v-5c0-1.4-.52-2.57-2-2.57A2.29,2.29,0,0,0,172.13,82a2.35,2.35,0,0,0-.11.74V88h-1.58Z"/><path d="M112.9,94.58a9.29,9.29,0,0,0-1.75,5.74A9.5,9.5,0,0,0,112.9,106h-1a9.1,9.1,0,0,1-1.83-5.69A9.27,9.27,0,0,1,112,94.58Z"/><path d="M114.67,104.3v-.94h2.43V98.24h-2.43V97.3h3.54v6.06h2.38v.94Zm2-9a.91.91,0,0,1,.25-.65.85.85,0,0,1,.65-.27.94.94,0,0,1,.68.27.89.89,0,0,1,.27.65.81.81,0,0,1-.27.62,1,1,0,0,1-.68.25.87.87,0,0,1-.65-.25A.83.83,0,0,1,116.71,95.31Z"/><path d="M122.9,99.75c0-.08,0-.19,0-.33s0-.27,0-.42l0-.42c0-.14,0-.27,0-.37h-.94V97.3h1.87l.13,1.14h.07a2.24,2.24,0,0,1,.37-.47,2.79,2.79,0,0,1,.54-.42,2.53,2.53,0,0,1,.69-.3,2.61,2.61,0,0,1,.79-.12,4.47,4.47,0,0,1,1.15.14,1.77,1.77,0,0,1,.82.5,2.28,2.28,0,0,1,.5,1,6,6,0,0,1,.17,1.54v4h-1.11v-3.8a3.16,3.16,0,0,0-.38-1.74,1.47,1.47,0,0,0-1.36-.59,1.78,1.78,0,0,0-.71.15,2.2,2.2,0,0,0-.62.38,2.88,2.88,0,0,0-.49.55,2.12,2.12,0,0,0-.3.67v4.38H122.9Z"/><path d="M131.47,104.3v-.94h2.43V98.24h-2.43V97.3H135v6.06h2.38v.94Zm2-9a.91.91,0,0,1,.25-.65.85.85,0,0,1,.65-.27.94.94,0,0,1,.68.27.89.89,0,0,1,.27.65.81.81,0,0,1-.27.62,1,1,0,0,1-.68.25.87.87,0,0,1-.65-.25A.83.83,0,0,1,133.51,95.31Z"/><path d="M138.83,97.3h1.67V95.92l1.1-.31V97.3h3.74v.94H141.6v3.3a2.08,2.08,0,0,0,.5,1.52,2,2,0,0,0,1.41.49,2.38,2.38,0,0,0,1.1-.24,5.71,5.71,0,0,0,.84-.52l.37.83a4.08,4.08,0,0,1-1.17.63,4.45,4.45,0,0,1-1.39.23,3.32,3.32,0,0,1-1.06-.16,2.53,2.53,0,0,1-.88-.49,2.5,2.5,0,0,1-.6-.87,3.14,3.14,0,0,1-.22-1.25V98.24h-1.67Z"/><path d="M147.08,106a9.56,9.56,0,0,0,1.75-5.72,9.45,9.45,0,0,0-1.75-5.7H148a9.06,9.06,0,0,1,1.83,5.7A9.24,9.24,0,0,1,148,106Z"/><line x1="130.24" y1="1" x2="130.24" y2="49.05" style="fill:none;stroke:#000;stroke-linecap:round;stroke-miterlimit:10;stroke-width:2px"/><polygon points="130.24 63.17 122.11 43.27 130.24 47.99 138.37 43.27 130.24 63.17"/><rect x="195.46" y="372.93" width="131" height="54.33" style="fill:none;stroke:#000;stroke-linecap:round;stroke-miterlimit:10;stroke-width:2px"/><path d="M214.28,392.3,213,396.12H211.4L215.55,384h1.87l4.14,12.14h-1.68l-1.29-3.82Zm4-1.23-1.2-3.49c-.28-.79-.45-1.51-.63-2.21h0c-.18.7-.36,1.45-.61,2.19l-1.19,3.51Z"/><path d="M229.28,395.81a6.08,6.08,0,0,1-2.5.5,4.14,4.14,0,0,1-4.34-4.44,4.44,4.44,0,0,1,4.68-4.65,4.93,4.93,0,0,1,2.2.47L229,388.9a3.88,3.88,0,0,0-1.84-.42,3,3,0,0,0-3.08,3.3,3,3,0,0,0,3,3.25,4.49,4.49,0,0,0,1.94-.41Z"/><path d="M233.27,385.31v2.09h2.27v1.21h-2.27v4.7c0,1.08.31,1.69,1.19,1.69a3,3,0,0,0,.92-.11l.07,1.21a4.24,4.24,0,0,1-1.4.21,2.27,2.27,0,0,1-1.71-.66,3.43,3.43,0,0,1-.61-2.29v-4.75h-1.35V387.4h1.35v-1.62Z"/><path d="M244.62,393.72c0,.92,0,1.71.07,2.4h-1.41l-.09-1.43h0a3.24,3.24,0,0,1-2.88,1.62c-1.37,0-3-.77-3-3.81v-5.1h1.58v4.81c0,1.65.53,2.79,2,2.79a2.29,2.29,0,0,0,2.09-1.46,2.18,2.18,0,0,0,.14-.81V387.4h1.59Z"/><path d="M253.36,394a14.72,14.72,0,0,0,.13,2.09h-1.42l-.13-1.1h-.05a3.27,3.27,0,0,1-2.67,1.29,2.48,2.48,0,0,1-2.66-2.5c0-2.11,1.87-3.26,5.24-3.24v-.18a1.79,1.79,0,0,0-2-2,4.24,4.24,0,0,0-2.29.65l-.36-1.06a5.64,5.64,0,0,1,2.88-.76c2.67,0,3.31,1.82,3.31,3.55Zm-1.53-2.36c-1.73,0-3.69.27-3.69,2a1.39,1.39,0,0,0,1.48,1.51,2.2,2.2,0,0,0,2.14-1.46,1.93,1.93,0,0,0,.07-.5Z"/><path d="M255.92,383.33h1.58v12.79h-1.58Z"/><path d="M261.93,385a1,1,0,0,1-1,1,.93.93,0,0,1-.95-1,1,1,0,0,1,1-1A1,1,0,0,1,261.93,385Zm-1.76,11.17V387.4h1.58v8.72Z"/><path d="M263.39,395.2l3.92-5.13c.4-.49.76-.9,1.15-1.37v0h-4.71V387.4h6.62v1l-3.89,5.06c-.37.49-.72.94-1.11,1.37v0h5.08v1.26h-7.06Z"/><path d="M278.2,394a14.72,14.72,0,0,0,.13,2.09h-1.42l-.13-1.1h0a3.27,3.27,0,0,1-2.67,1.29,2.48,2.48,0,0,1-2.66-2.5c0-2.11,1.87-3.26,5.24-3.24v-.18a1.79,1.79,0,0,0-2-2,4.24,4.24,0,0,0-2.29.65L272,388a5.64,5.64,0,0,1,2.88-.76c2.66,0,3.31,1.82,3.31,3.55Zm-1.53-2.36c-1.73,0-3.69.27-3.69,2a1.39,1.39,0,0,0,1.48,1.51,2.2,2.2,0,0,0,2.14-1.46,1.93,1.93,0,0,0,.07-.5Z"/><path d="M287,395.81a6.12,6.12,0,0,1-2.5.5,4.14,4.14,0,0,1-4.34-4.44,4.44,4.44,0,0,1,4.68-4.65,5,5,0,0,1,2.2.47l-.37,1.21a3.8,3.8,0,0,0-1.83-.42,3,3,0,0,0-3.08,3.3,3,3,0,0,0,3,3.25,4.54,4.54,0,0,0,1.95-.41Z"/><path d="M290.59,385a1,1,0,0,1-1,1,.93.93,0,0,1-1-1,1,1,0,0,1,1-1A1,1,0,0,1,290.59,385Zm-1.77,11.17V387.4h1.59v8.72Z"/><path d="M300.92,391.69a4.26,4.26,0,0,1-4.34,4.62,4.15,4.15,0,0,1-4.18-4.48,4.26,4.26,0,0,1,4.32-4.61A4.12,4.12,0,0,1,300.92,391.69Zm-6.9.09c0,1.9,1.08,3.35,2.63,3.35s2.65-1.43,2.65-3.39c0-1.48-.74-3.33-2.61-3.33S294,390.14,294,391.78Zm5-8.14-2.2,2.57h-1.11l1.56-2.57Z"/><path d="M302.92,389.76c0-.92,0-1.64-.08-2.36h1.41l.09,1.44h0a3.24,3.24,0,0,1,2.88-1.62c1.21,0,3.08.72,3.08,3.71v5.19h-1.58v-5c0-1.4-.52-2.57-2-2.57a2.29,2.29,0,0,0-2.12,1.62,2.35,2.35,0,0,0-.11.74v5.24h-1.58Z"/><line x1="260.99" y1="337.13" x2="260.99" y2="358.51" style="fill:none;stroke:#000;stroke-linecap:round;stroke-miterlimit:10;stroke-width:2px"/><polygon points="260.99 372.63 252.86 352.74 260.99 357.46 269.12 352.74 260.99 372.63"/><path d="M236.75,404.73a9.32,9.32,0,0,0-1.75,5.75,9.49,9.49,0,0,0,1.75,5.67h-.95a9,9,0,0,1-1.84-5.69,9.29,9.29,0,0,1,1.84-5.73Z"/><path d="M242.11,407.46h2v4.77a9.33,9.33,0,0,0,.09,1.32h.93v.91h-1.87l0-1.19h-.06a3,3,0,0,1-1,1,2.71,2.71,0,0,1-1.46.37,3.85,3.85,0,0,1-1.09-.14,1.63,1.63,0,0,1-.75-.51,2.47,2.47,0,0,1-.43-1,7.08,7.08,0,0,1-.14-1.52v-3.08h-.94v-.93h2v3.79c0,.38,0,.73,0,1a2.62,2.62,0,0,0,.2.77,1.12,1.12,0,0,0,.46.48,1.77,1.77,0,0,0,.8.16,1.8,1.8,0,0,0,1.25-.48A3.06,3.06,0,0,0,243,412v-3.63h-.9Z"/><path d="M246.79,409.91c0-.09,0-.2,0-.33s0-.28,0-.42,0-.29,0-.43a2.84,2.84,0,0,0-.05-.36h-.93v-.91h1.86l.14,1h.07a3.08,3.08,0,0,1,1-.82,2.81,2.81,0,0,1,1.42-.33,2.89,2.89,0,0,1,2.25.82,3.94,3.94,0,0,1,.76,2.71,4.63,4.63,0,0,1-.26,1.58,3.17,3.17,0,0,1-.74,1.2,3.21,3.21,0,0,1-1.14.76,4.83,4.83,0,0,1-2,.24l-.42-.05-.37-.09-.4-.14v2.94h-1.07Zm3.22-1.59a1.89,1.89,0,0,0-.79.16,2.2,2.2,0,0,0-.66.4,2.46,2.46,0,0,0-.47.56,1.74,1.74,0,0,0-.23.62v3.18a2.65,2.65,0,0,0,.7.33,3.44,3.44,0,0,0,1,.12,2.29,2.29,0,0,0,1.79-.74,3.05,3.05,0,0,0,.68-2.14,3.15,3.15,0,0,0-.47-1.84A1.82,1.82,0,0,0,250,408.32Z"/><path d="M258.71,404.66H261v7.4c0,.09,0,.19,0,.32s0,.26,0,.4,0,.27,0,.41l.06.36h.94v.91h-1.88l-.14-1.08H260a2.43,2.43,0,0,1-.91.89,2.77,2.77,0,0,1-1.4.35,2.85,2.85,0,0,1-2.33-.89,4.22,4.22,0,0,1-.74-2.76,4.4,4.4,0,0,1,.25-1.56,2.91,2.91,0,0,1,.71-1.13,3.12,3.12,0,0,1,1.13-.7,4.28,4.28,0,0,1,1.47-.24l.52,0,.43,0a2.21,2.21,0,0,1,.37.08l.38.1v-2h-1.18Zm-.83,9a1.91,1.91,0,0,0,1.34-.45,2.31,2.31,0,0,0,.67-1.32v-3.25a2.13,2.13,0,0,0-.69-.3,4,4,0,0,0-1-.1,2.33,2.33,0,0,0-1.76.65,2.82,2.82,0,0,0-.64,2.05,5.19,5.19,0,0,0,.1,1.07,2.47,2.47,0,0,0,.35.86,1.74,1.74,0,0,0,.65.58A2.13,2.13,0,0,0,257.88,413.69Z"/><path d="M263.75,408a4.5,4.5,0,0,1,1.36-.5,7.69,7.69,0,0,1,1.48-.16,2.62,2.62,0,0,1,1.17.23,1.83,1.83,0,0,1,.72.58,2.1,2.1,0,0,1,.35.81,4.7,4.7,0,0,1,.09.92c0,.35,0,.73,0,1.13s0,.8,0,1.21a11.32,11.32,0,0,0,.08,1.33h.94v.91H268l-.12-1h-.07a3.7,3.7,0,0,1-.26.32,2.12,2.12,0,0,1-.44.38,2.54,2.54,0,0,1-.66.33,2.93,2.93,0,0,1-.93.14,2.44,2.44,0,0,1-1.65-.53,1.86,1.86,0,0,1-.6-1.46,2.13,2.13,0,0,1,.32-1.19,2,2,0,0,1,.9-.72,4.2,4.2,0,0,1,1.43-.3,9.57,9.57,0,0,1,1.87.11,4.34,4.34,0,0,0,0-1.07,1.44,1.44,0,0,0-.22-.68,1,1,0,0,0-.49-.35,2.48,2.48,0,0,0-.78-.11,4,4,0,0,0-1.21.18c-.38.11-.73.23-1,.35Zm2.08,5.64a2.09,2.09,0,0,0,.72-.12,2.36,2.36,0,0,0,.59-.32,2.12,2.12,0,0,0,.42-.43,2,2,0,0,0,.25-.44v-1a7.3,7.3,0,0,0-1.34-.13,3.63,3.63,0,0,0-1.06.14,1.35,1.35,0,0,0-.7.41,1,1,0,0,0-.26.73,1.16,1.16,0,0,0,.32.8A1.38,1.38,0,0,0,265.83,413.64Z"/><path d="M271.07,407.46h1.67v-1.39l1.11-.31v1.7h3.74v.93h-3.74v3.31a2,2,0,0,0,.49,1.51,1.91,1.91,0,0,0,1.42.49,2.34,2.34,0,0,0,1.09-.24,5.33,5.33,0,0,0,.85-.52l.36.83a4.08,4.08,0,0,1-1.17.63,4.15,4.15,0,0,1-1.39.24,3.67,3.67,0,0,1-1.06-.16,2.51,2.51,0,0,1-.87-.5,2.15,2.15,0,0,1-.6-.86,3.17,3.17,0,0,1-.23-1.25v-3.48h-1.67Z"/><path d="M286.45,413.57a3.52,3.52,0,0,1-.6.42,4.28,4.28,0,0,1-.75.34,5.75,5.75,0,0,1-.84.22,5.34,5.34,0,0,1-.89.07,3.85,3.85,0,0,1-1.49-.26,2.85,2.85,0,0,1-1.08-.74,3.31,3.31,0,0,1-.65-1.15,5.06,5.06,0,0,1,0-3.08,3,3,0,0,1,.71-1.15,3.07,3.07,0,0,1,1.12-.71,4.2,4.2,0,0,1,1.47-.24,4.62,4.62,0,0,1,1.16.15,2.29,2.29,0,0,1,1,.58,2.77,2.77,0,0,1,.68,1.18,5.35,5.35,0,0,1,.17,1.94h-5.4a2.42,2.42,0,0,0,.67,1.88,2.55,2.55,0,0,0,1.81.62,3.2,3.2,0,0,0,.75-.09,7.15,7.15,0,0,0,.7-.21,4.83,4.83,0,0,0,.6-.28,3.39,3.39,0,0,0,.39-.28Zm-2.95-5.36a3.46,3.46,0,0,0-.87.1,1.81,1.81,0,0,0-.73.33,1.67,1.67,0,0,0-.51.6,2.22,2.22,0,0,0-.26.92h4.34a2.17,2.17,0,0,0-.6-1.44A1.87,1.87,0,0,0,283.5,408.21Z"/><path d="M287.72,416.15a9.52,9.52,0,0,0,1.75-5.71,9.41,9.41,0,0,0-1.75-5.71h.95a9,9,0,0,1,1.84,5.71,9.23,9.23,0,0,1-1.84,5.71Z"/><path d="M96.35,243.68a9.27,9.27,0,0,0-1.75,5.74,9.49,9.49,0,0,0,1.75,5.67H95.4a9,9,0,0,1-1.84-5.68,9.24,9.24,0,0,1,1.84-5.73Z"/><path d="M102.79,247.48a4.77,4.77,0,0,0-.7-.19,3.63,3.63,0,0,0-.73-.08,2.86,2.86,0,0,0-2,.65,2.75,2.75,0,0,0-.67,2,3,3,0,0,0,.2,1.11,2.35,2.35,0,0,0,.56.82,2.52,2.52,0,0,0,.87.52,3.39,3.39,0,0,0,1.13.18,3.71,3.71,0,0,0,1.28-.23,3.09,3.09,0,0,0,1-.6l.5.82c-.14.11-.3.22-.5.35a5.21,5.21,0,0,1-.67.34,5.11,5.11,0,0,1-.86.26,5.32,5.32,0,0,1-1,.1,4.69,4.69,0,0,1-1.61-.26,3.17,3.17,0,0,1-1.15-.74,3.21,3.21,0,0,1-.7-1.17,4.45,4.45,0,0,1-.24-1.5,4.5,4.5,0,0,1,.25-1.57,3.09,3.09,0,0,1,.7-1.15,3,3,0,0,1,1.12-.7,4,4,0,0,1,1.47-.25,6.51,6.51,0,0,1,1.69.18,6.23,6.23,0,0,1,1.1.41v2h-1Z"/><path d="M105.84,249.9a3.87,3.87,0,0,1,.88-2.68,3.2,3.2,0,0,1,2.52-1,3.68,3.68,0,0,1,1.52.29,3.09,3.09,0,0,1,1.06.77,3.28,3.28,0,0,1,.62,1.17,4.73,4.73,0,0,1,.2,1.44,4.85,4.85,0,0,1-.22,1.52,3.1,3.1,0,0,1-.66,1.15,3,3,0,0,1-1.07.74,3.87,3.87,0,0,1-1.45.26,3.7,3.7,0,0,1-1.51-.29,2.9,2.9,0,0,1-1.06-.78,3.17,3.17,0,0,1-.63-1.16A5.17,5.17,0,0,1,105.84,249.9Zm1.16,0a4.17,4.17,0,0,0,.12,1,2.9,2.9,0,0,0,.38.88,2,2,0,0,0,1.73.87,2.06,2.06,0,0,0,1.69-.69,3.24,3.24,0,0,0,.56-2,4.07,4.07,0,0,0-.12-1A2.64,2.64,0,0,0,111,248a2,2,0,0,0-.7-.63,2.08,2.08,0,0,0-1-.24,2,2,0,0,0-1.67.68A3.21,3.21,0,0,0,107,249.9Z"/><path d="M114.74,248.85v-.33c0-.14,0-.28,0-.42s0-.29,0-.43a2.84,2.84,0,0,0-.05-.36h-.94v-.91h1.88l.12,1.13h.07a2.61,2.61,0,0,1,.38-.47,3,3,0,0,1,.54-.42,3.25,3.25,0,0,1,.68-.3,3,3,0,0,1,.8-.11,4.34,4.34,0,0,1,1.14.14,1.72,1.72,0,0,1,.83.5,2.41,2.41,0,0,1,.49,1,6.1,6.1,0,0,1,.17,1.55v4h-1.11v-3.8a3.3,3.3,0,0,0-.37-1.75,1.5,1.5,0,0,0-1.37-.58,1.86,1.86,0,0,0-.7.14,2.32,2.32,0,0,0-.62.39,2.58,2.58,0,0,0-.49.55,2.48,2.48,0,0,0-.31.66v4.39h-1.08Z"/><path d="M126.71,243.6H129V251c0,.09,0,.19,0,.32s0,.26,0,.4,0,.28.05.41,0,.26.06.36h.94v.91h-1.88l-.14-1.08H128a2.43,2.43,0,0,1-.91.89,2.68,2.68,0,0,1-1.4.36,2.88,2.88,0,0,1-2.33-.89,4.26,4.26,0,0,1-.74-2.77,4.4,4.4,0,0,1,.25-1.56,2.91,2.91,0,0,1,.71-1.13,3.12,3.12,0,0,1,1.13-.7,4.53,4.53,0,0,1,1.47-.23h.52l.43,0,.37.08.38.1v-2h-1.18Zm-.83,9a2,2,0,0,0,1.34-.44,2.37,2.37,0,0,0,.67-1.33v-3.24a2.15,2.15,0,0,0-.69-.31,4,4,0,0,0-1-.1,2.37,2.37,0,0,0-1.76.65,2.83,2.83,0,0,0-.64,2,5.12,5.12,0,0,0,.1,1.07,2.47,2.47,0,0,0,.35.86,1.66,1.66,0,0,0,.65.58A2.13,2.13,0,0,0,125.88,252.63Z"/><path d="M131.71,253.4v-.94h2.44v-5.12h-2.44v-.94h3.54v6.06h2.38v.94Zm2-9a.92.92,0,0,1,.26-.65.82.82,0,0,1,.64-.27.93.93,0,0,1,.68.27.89.89,0,0,1,.27.65.83.83,0,0,1-.27.62,1,1,0,0,1-.68.25A.88.88,0,0,1,134,245,.85.85,0,0,1,133.75,244.41Z"/><path d="M139.07,246.4h1.67V245l1.11-.31v1.7h3.74v.94h-3.74v3.3a2,2,0,0,0,.49,1.51,1.91,1.91,0,0,0,1.42.49,2.34,2.34,0,0,0,1.09-.24,5.31,5.31,0,0,0,.85-.51l.36.82a4.08,4.08,0,0,1-1.17.63,4.15,4.15,0,0,1-1.39.24,3.36,3.36,0,0,1-1.06-.16,2.36,2.36,0,0,1-.87-.5,2.15,2.15,0,0,1-.6-.86,3.17,3.17,0,0,1-.23-1.25v-3.47h-1.67Z"/><path d="M148.51,253.4v-.94H151v-5.12h-2.44v-.94h3.54v6.06h2.38v.94Zm2-9a.92.92,0,0,1,.26-.65.82.82,0,0,1,.64-.27.93.93,0,0,1,.68.27.89.89,0,0,1,.27.65.83.83,0,0,1-.27.62,1,1,0,0,1-.68.25.88.88,0,0,1-.64-.25A.85.85,0,0,1,150.55,244.41Z"/><path d="M156.24,249.9a3.87,3.87,0,0,1,.88-2.68,3.2,3.2,0,0,1,2.52-1,3.71,3.71,0,0,1,1.52.29,3.09,3.09,0,0,1,1.06.77,3.28,3.28,0,0,1,.62,1.17,5.06,5.06,0,0,1,.2,1.44,4.85,4.85,0,0,1-.22,1.52,3.1,3.1,0,0,1-.66,1.15,3,3,0,0,1-1.07.74,3.87,3.87,0,0,1-1.45.26,3.7,3.7,0,0,1-1.51-.29,2.94,2.94,0,0,1-1.07-.78,3.15,3.15,0,0,1-.62-1.16A5.17,5.17,0,0,1,156.24,249.9Zm1.16,0a4.17,4.17,0,0,0,.12,1,2.9,2.9,0,0,0,.38.88,2,2,0,0,0,1.73.87,2.06,2.06,0,0,0,1.69-.69,3.24,3.24,0,0,0,.56-2,4.07,4.07,0,0,0-.12-1,2.64,2.64,0,0,0-.39-.87,2,2,0,0,0-.7-.63,2.08,2.08,0,0,0-1-.24,2,2,0,0,0-1.67.68A3.21,3.21,0,0,0,157.4,249.9Z"/><path d="M165.14,248.85v-.33l0-.42,0-.43c0-.14,0-.26-.05-.36h-.94v-.91H166l.12,1.13h.07a2.61,2.61,0,0,1,.38-.47,3.27,3.27,0,0,1,.53-.42,3.59,3.59,0,0,1,.69-.3,3,3,0,0,1,.8-.11,4.34,4.34,0,0,1,1.14.14,1.65,1.65,0,0,1,.82.5,2.3,2.3,0,0,1,.5,1,6.1,6.1,0,0,1,.17,1.55v4h-1.11v-3.8a3.3,3.3,0,0,0-.37-1.75,1.5,1.5,0,0,0-1.37-.58,1.86,1.86,0,0,0-.7.14,2.55,2.55,0,0,0-.63.39,2.83,2.83,0,0,0-.48.55,2.48,2.48,0,0,0-.31.66v4.39h-1.08Z"/><path d="M172.52,255.09a10.17,10.17,0,0,0,0-11.41h.95a9,9,0,0,1,1.84,5.7,9.2,9.2,0,0,1-1.84,5.71Z"/></g></g></svg>