<svg xmlns="http://www.w3.org/2000/svg" viewBox="0 0 457.26 264.55"><title>ipo</title><g id="Layer_2" data-name="Layer 2"><g id="Layer_1-2" data-name="Layer 1"><polygon points="261.23 77.2 398.22 13.93 452.67 22.16 261.23 77.2" style="fill:#646464"/><polygon points="261.23 77.2 452.67 22.16 330.79 95.36 261.23 77.2" style="fill:#646464"/><line x1="364.78" y1="50.91" x2="400.17" y2="29.95" style="fill:none;stroke:#e2e2e2;stroke-linecap:round;stroke-miterlimit:10;stroke-width:5px"/><polygon points="409.28 24.55 399.55 37.4 399.49 30.35 393.33 26.91 409.28 24.55" style="fill:#e2e2e2"/><polygon points="256.72 264.05 260.05 119.96 400.81 41.23 256.72 264.05" style="fill:#f5f5f5"/><polygon points="400.81 41.23 387.12 148.62 256.72 264.05 400.81 41.23" style="fill:#f5f5f5"/><polygon points="64.83 166.42 49.2 52.99 260.05 119.96 64.83 166.42" style="fill:#f5f5f5"/><polygon points="260.05 119.96 256.72 264.05 64.83 166.42 260.05 119.96" style="fill:#f5f5f5"/><polygon points="215.58 7.71 400.81 41.23 260.05 119.96 215.58 7.71" style="fill:#f5f5f5"/><polygon points="260.05 119.96 49.2 52.99 215.58 7.71 260.05 119.96" style="fill:#f5f5f5"/><line x1="387.12" y1="148.62" x2="400.81" y2="41.23" style="fill:none;stroke:#000;stroke-linecap:round;stroke-miterlimit:10"/><line x1="64.83" y1="166.42" x2="49.2" y2="52.99" style="fill:none;stroke:#000;stroke-linecap:round;stroke-miterlimit:10"/><line x1="260.05" y1="119.96" x2="256.72" y2="264.05" style="fill:none;stroke:#000;stroke-linecap:round;stroke-miterlimit:10"/><line x1="215.58" y1="7.71" x2="400.81" y2="41.23" style="fill:none;stroke:#000;stroke-linecap:round;stroke-miterlimit:10"/><line x1="400.81" y1="41.23" x2="260.05" y2="119.96" style="fill:none;stroke:#000;stroke-linecap:round;stroke-miterlimit:10"/><line x1="260.05" y1="119.96" x2="49.2" y2="52.99" style="fill:none;stroke:#000;stroke-linecap:round;stroke-miterlimit:10"/><line x1="49.2" y1="52.99" x2="215.58" y2="7.71" style="fill:none;stroke:#000;stroke-linecap:round;stroke-miterlimit:10"/><line x1="64.83" y1="166.42" x2="256.72" y2="264.05" style="fill:none;stroke:#000;stroke-linecap:round;stroke-miterlimit:10"/><line x1="256.72" y1="264.05" x2="387.12" y2="148.62" style="fill:none;stroke:#000;stroke-linecap:round;stroke-miterlimit:10"/><polygon points="107.15 148.35 0 197.84 77.73 247.35 107.15 148.35" style="fill:#646464"/><polygon points="107.15 148.35 77.73 247.35 185.01 182.91 107.15 148.35" style="fill:#646464"/><path d="M9.31,233.37l4.46-7.48,1.36.81-4.46,7.49Zm7.23-8.68a.93.93,0,0,1-1.36.32.92.92,0,0,1-.32-1.32,1,1,0,0,1,1.36-.34A.94.94,0,0,1,16.54,224.69Z" transform="translate(0 -6.85)"/><path d="M16.18,230.08c.47-.79.82-1.42,1.15-2.07l1.2.72L17.87,230l0,0a3.22,3.22,0,0,1,3.31.08c1,.62,2.27,2.2.74,4.76l-2.66,4.46-1.36-.82,2.57-4.31c.73-1.2.88-2.48-.41-3.24a2.27,2.27,0,0,0-2.65.3,2.2,2.2,0,0,0-.47.58l-2.69,4.5-1.36-.82Z" transform="translate(0 -6.85)"/><path d="M24.51,235.62c.57-1,1-1.75,1.39-2.48l1.21.72-.69,1.33h0a3.39,3.39,0,0,1,3.52.15c1.82,1.09,2.27,3.44.92,5.69-1.6,2.69-4.05,3-5.81,2a3.07,3.07,0,0,1-1.61-2.55l0,0L21,244.52l-1.35-.8Zm.15,2.79a2.65,2.65,0,0,0-.27.6,2.46,2.46,0,0,0,1.09,2.81c1.44.86,3,.18,4-1.54.89-1.48.86-3.23-.57-4.09a2.5,2.5,0,0,0-3.06.44,2.67,2.67,0,0,0-.41.48Z" transform="translate(0 -6.85)"/><path d="M37.78,247.59c-.47.79-.86,1.48-1.17,2.09l-1.2-.72.65-1.27h0a3.26,3.26,0,0,1-3.3-.09c-1.18-.7-2.19-2.21-.63-4.82l2.61-4.37,1.36.81-2.46,4.13c-.85,1.42-1,2.66.24,3.39a2.29,2.29,0,0,0,2.54-.18,2.23,2.23,0,0,0,.54-.62l2.73-4.58,1.36.81Z" transform="translate(0 -6.85)"/><path d="M46,242.69l-1.07,1.8,2,1.16-.62,1-2-1.17-2.4,4c-.56.93-.61,1.61.15,2.06a3,3,0,0,0,.84.38l-.55,1.07a4.22,4.22,0,0,1-1.32-.53,2.24,2.24,0,0,1-1.13-1.45,3.4,3.4,0,0,1,.65-2.28L43,244.73,41.81,244l.61-1,1.16.69.83-1.39Z" transform="translate(0 -6.85)"/><line x1="69.28" y1="206.55" x2="110.12" y2="182.86" style="fill:none;stroke:#e2e2e2;stroke-linecap:round;stroke-miterlimit:10;stroke-width:5px"/><polygon points="119.28 177.55 109.43 190.31 109.43 183.26 103.31 179.76 119.28 177.55" style="fill:#e2e2e2"/><path d="M414.93,12a4.26,4.26,0,0,1-5.05,3.84,4.15,4.15,0,0,1-3.37-5.11,4.25,4.25,0,0,1,5-3.83A4.12,4.12,0,0,1,414.93,12ZM408.12,11c-.32,1.88.5,3.48,2,3.74s2.85-1,3.17-2.9c.25-1.45-.17-3.41-2-3.72S408.39,9.34,408.12,11Z" transform="translate(0 -6.85)"/><path d="M423.75,15.56c-.15.91-.26,1.69-.32,2.38L422,17.71l.15-1.42h0A3.24,3.24,0,0,1,419,17.4c-1.35-.23-2.83-1.26-2.33-4.26l.85-5,1.56.27-.8,4.74c-.27,1.63.05,2.84,1.46,3.07a2.29,2.29,0,0,0,2.3-1.09,2.25,2.25,0,0,0,.27-.77l.89-5.26,1.56.26Z" transform="translate(0 -6.85)"/><path d="M429.62,8l-.35,2.05,2.24.38-.2,1.19-2.24-.37-.78,4.63c-.18,1.06,0,1.72.89,1.87a3.08,3.08,0,0,0,.93,0L430,19a4.24,4.24,0,0,1-1.42,0,2.25,2.25,0,0,1-1.58-.94,3.36,3.36,0,0,1-.22-2.35l.78-4.69-1.33-.23.2-1.19,1.34.23.26-1.6Z" transform="translate(0 -6.85)"/><path d="M432.79,13.56c.19-1.1.3-2,.4-2.81l1.39.23-.16,1.49h0a3.37,3.37,0,0,1,3.33-1.13c2.09.35,3.36,2.37,2.92,5-.52,3.09-2.67,4.3-4.7,4a3.07,3.07,0,0,1-2.42-1.8h0l-.79,4.67-1.54-.26ZM434,16.11A2.48,2.48,0,0,0,436,19c1.65.28,2.84-.91,3.17-2.88.29-1.71-.37-3.33-2-3.61A2.5,2.5,0,0,0,434.41,14a3.29,3.29,0,0,0-.21.6Z" transform="translate(0 -6.85)"/><path d="M449.51,19.9c-.16.91-.27,1.69-.33,2.37L447.79,22l.15-1.42h0a3.3,3.3,0,0,1-3.11,1.12c-1.35-.23-2.84-1.27-2.33-4.27l.84-5,1.56.26-.79,4.74c-.28,1.64.05,2.84,1.45,3.08a2.28,2.28,0,0,0,2.3-1.09,2.11,2.11,0,0,0,.28-.78L449,13.4l1.57.27Z" transform="translate(0 -6.85)"/><path d="M455.37,12.36,455,14.42l2.23.38-.2,1.19-2.23-.38-.78,4.64c-.18,1.06,0,1.71.89,1.86a3.09,3.09,0,0,0,.92.05l-.13,1.2a4.53,4.53,0,0,1-1.42,0,2.23,2.23,0,0,1-1.57-.94,3.39,3.39,0,0,1-.23-2.36l.79-4.69L452,15.13l.2-1.19,1.33.22.27-1.59Z" transform="translate(0 -6.85)"/><path d="M294.34,166.1c-.81-1.25-1.5-2.23-2.14-3.13l1.57-1,1.18,1.61,0,0a4.52,4.52,0,0,1,2.26-4.11c2.38-1.54,5.44-.69,7.34,2.25,2.27,3.5,1.24,6.63-1.06,8.12a4.09,4.09,0,0,1-4,.41l0,0,3.43,5.3-1.75,1.13Zm3.43,1.46a3.2,3.2,0,0,0,.55.68,3.26,3.26,0,0,0,4,.35c1.87-1.21,2-3.44.52-5.68-1.25-1.94-3.36-2.94-5.23-1.73a3.32,3.32,0,0,0-1.28,3.91,3,3,0,0,0,.34.78Z" transform="translate(0 -6.85)"/><path d="M305.71,158.54c-.74-1.15-1.4-2.12-2-3l1.56-1,1.33,1.88.06,0a3.51,3.51,0,0,1,1.34-3.9c.18-.11.33-.18.51-.27l1.08,1.67a3.21,3.21,0,0,0-.63.36A2.93,2.93,0,0,0,308,158a7.53,7.53,0,0,0,.47.87l3.37,5.2-1.78,1.14Z" transform="translate(0 -6.85)"/><path d="M322.06,150.45c2.34,3.61.83,6.81-1.5,8.32-2.62,1.7-5.93,1.09-7.93-2-2.09-3.24-1.18-6.55,1.5-8.29S320.15,147.49,322.06,150.45Zm-7.65,5.1c1.38,2.13,3.63,3,5.37,1.84s1.93-3.51.51-5.7c-1.07-1.66-3.24-3.2-5.34-1.84S313.22,153.71,314.41,155.55Z" transform="translate(0 -6.85)"/><path d="M334.24,149.13a8.24,8.24,0,0,1-2.44,2.37c-2.94,1.9-6.15,1.15-8.08-1.83a5.93,5.93,0,0,1,1.88-8.59,6.66,6.66,0,0,1,2.8-1.07l.47,1.61a5.12,5.12,0,0,0-2.36.87c-2.23,1.44-2.36,3.9-1.06,5.91,1.46,2.26,3.81,2.71,5.75,1.46a5.94,5.94,0,0,0,1.87-1.87Z" transform="translate(0 -6.85)"/><path d="M334.45,143c1.6,2.37,3.75,2.38,5.54,1.22a7.48,7.48,0,0,0,2.37-2.25l1.15,1.06a9.37,9.37,0,0,1-2.86,2.74c-3,1.94-6.09,1.11-8-1.84s-1.66-6.36,1.18-8.19c3.21-2.08,5.83.17,7,2a5.07,5.07,0,0,1,.48.87Zm4.38-4.63c-.69-1.12-2.31-2.56-4.31-1.27-1.81,1.17-1.52,3.3-.87,4.62Z" transform="translate(0 -6.85)"/><path d="M345.11,140a6,6,0,0,0,2.8-.84c1.27-.82,1.47-1.84.93-2.67s-1.34-1-2.94-.61c-2.19.5-3.63.09-4.38-1.08-1-1.57-.56-3.7,1.51-5a5.34,5.34,0,0,1,2.77-.93l.41,1.56a4.52,4.52,0,0,0-2.37.71,1.67,1.67,0,0,0-.75,2.37c.52.81,1.32.8,2.91.49,2.08-.46,3.51-.19,4.45,1.26,1.12,1.74.55,3.82-1.72,5.29a6.65,6.65,0,0,1-3.19,1.09Z" transform="translate(0 -6.85)"/><path d="M353.09,134.88a6,6,0,0,0,2.8-.84c1.27-.83,1.47-1.84.93-2.67s-1.33-1-2.94-.61c-2.19.5-3.63.09-4.38-1.08-1-1.57-.56-3.7,1.51-5a5.34,5.34,0,0,1,2.77-.93l.41,1.56a4.52,4.52,0,0,0-2.37.71,1.67,1.67,0,0,0-.75,2.37c.52.81,1.32.8,2.91.49,2.08-.46,3.51-.19,4.45,1.26,1.12,1.74.56,3.82-1.72,5.29a6.65,6.65,0,0,1-3.19,1.09Z" transform="translate(0 -6.85)"/></g></g></svg>