<svg xmlns="http://www.w3.org/2000/svg" viewBox="0 0 300.72 158.72"><title>params-args</title><g id="Layer_2" data-name="Layer 2"><g id="params-args"><path d="M1.71,61.73v-2H3.84v-5H1.69v-2H3.84v-.51a3.24,3.24,0,0,1,.29-1.45,2.85,2.85,0,0,1,.79-1A3.08,3.08,0,0,1,6,49.17,4.9,4.9,0,0,1,7.36,49a8.33,8.33,0,0,1,2.05.21,5.51,5.51,0,0,1,1.32.51l-.68,1.79a6,6,0,0,0-.9-.36A3.75,3.75,0,0,0,7.92,51a1.72,1.72,0,0,0-1.36.45,1.93,1.93,0,0,0-.38,1.32H10v2H6.18v5H10v2Z" transform="translate(-0.9 -23.95)"/><path d="M17.17,52.73h3.35v7h1.37v2H19.05l-.42-1.33h-.07a3.25,3.25,0,0,1-1.24,1.13,3.8,3.8,0,0,1-1.84.45,4.15,4.15,0,0,1-1.25-.18,2.26,2.26,0,0,1-1-.59,2.67,2.67,0,0,1-.61-1.12,5.9,5.9,0,0,1-.22-1.76V54.71h-1v-2h3.37v5.11a2.78,2.78,0,0,0,.35,1.58,1.25,1.25,0,0,0,1.11.49,1.9,1.9,0,0,0,1.19-.4,2,2,0,0,0,.75-1V54.71h-1Z" transform="translate(-0.9 -23.95)"/><path d="M22.25,52.73H25.4l.27,1.19h.07a3.54,3.54,0,0,1,1.19-1,3.69,3.69,0,0,1,1.85-.43,4.2,4.2,0,0,1,1.25.18,2.3,2.3,0,0,1,1,.59,2.82,2.82,0,0,1,.66,1.13,5.47,5.47,0,0,1,.24,1.75v5.6H29.59V56.62A2.16,2.16,0,0,0,29.1,55a1.73,1.73,0,0,0-1.25-.48,2.12,2.12,0,0,0-1.22.38,1.94,1.94,0,0,0-.74,1v5.83H23.55v-7h-1.3Z" transform="translate(-0.9 -23.95)"/><path d="M42.66,60.86a4.9,4.9,0,0,1-1.73.84,7.44,7.44,0,0,1-2.07.28,5.86,5.86,0,0,1-2.08-.34,4.43,4.43,0,0,1-1.53-1,4.11,4.11,0,0,1-.94-1.51A5.49,5.49,0,0,1,34,57.23a5.12,5.12,0,0,1,.38-2,4.35,4.35,0,0,1,1.06-1.49A4.51,4.51,0,0,1,37,52.79a6.12,6.12,0,0,1,2-.31,7.2,7.2,0,0,1,1.89.23,10.5,10.5,0,0,1,1.35.45v3.17h-2V54.67a5.33,5.33,0,0,0-1.12-.12,3.41,3.41,0,0,0-1,.15,2.32,2.32,0,0,0-.88.49,2.5,2.5,0,0,0-.63.83,2.81,2.81,0,0,0-.24,1.21,2.63,2.63,0,0,0,.2,1.06,2.54,2.54,0,0,0,.55.85,2.46,2.46,0,0,0,.89.56,3.22,3.22,0,0,0,1.18.21,4.28,4.28,0,0,0,1.69-.29,7.77,7.77,0,0,0,1-.5Z" transform="translate(-0.9 -23.95)"/><path d="M45.72,54.71H43.94v-2h1.78v-2L48.06,50v2.72h4.72v2H48.06v2.57a3.09,3.09,0,0,0,.52,2,1.82,1.82,0,0,0,1.46.62,3,3,0,0,0,.88-.12,2.85,2.85,0,0,0,.71-.29,4.23,4.23,0,0,0,.58-.4l.48-.4,1.08,1.62A3.6,3.6,0,0,1,53,61a5.79,5.79,0,0,1-1,.52,5.87,5.87,0,0,1-1.1.35,5,5,0,0,1-1.14.13,3.88,3.88,0,0,1-3-1.12,5.24,5.24,0,0,1-1-3.58Z" transform="translate(-0.9 -23.95)"/><path d="M55.49,59.75h3.17v-5H55.49v-2H61v7h3.33v2H55.49Zm2.74-9.47a1.25,1.25,0,0,1,.42-1,1.56,1.56,0,0,1,1.15-.4,1.72,1.72,0,0,1,1.2.4,1.22,1.22,0,0,1,.45,1,1.19,1.19,0,0,1-.45.95,1.87,1.87,0,0,1-1.2.36,1.69,1.69,0,0,1-1.15-.36A1.22,1.22,0,0,1,58.23,50.28Z" transform="translate(-0.9 -23.95)"/><path d="M65.86,57.23a5.74,5.74,0,0,1,.34-2,4.12,4.12,0,0,1,2.48-2.42,5.7,5.7,0,0,1,1.95-.31,5.61,5.61,0,0,1,2,.34,4.3,4.3,0,0,1,1.5,1,4.13,4.13,0,0,1,.93,1.5,5.78,5.78,0,0,1,.31,1.95,5.47,5.47,0,0,1-.34,2,4.18,4.18,0,0,1-1,1.5,4.13,4.13,0,0,1-1.5.93,5.8,5.8,0,0,1-2,.31,5.56,5.56,0,0,1-2-.34,4.25,4.25,0,0,1-1.51-1,4.2,4.2,0,0,1-.92-1.51A5.72,5.72,0,0,1,65.86,57.23Zm2.41,0a3.57,3.57,0,0,0,.17,1.1,2.64,2.64,0,0,0,.46.88,2.08,2.08,0,0,0,.74.58,2.47,2.47,0,0,0,2.69-.46,2.87,2.87,0,0,0,.66-2.1,3.11,3.11,0,0,0-.61-2,2.11,2.11,0,0,0-1.75-.76,2.79,2.79,0,0,0-.93.15,1.88,1.88,0,0,0-.75.49,2.46,2.46,0,0,0-.5.87A3.9,3.9,0,0,0,68.27,57.23Z" transform="translate(-0.9 -23.95)"/><path d="M76.25,52.73H79.4l.27,1.19h.07a3.54,3.54,0,0,1,1.19-1,3.69,3.69,0,0,1,1.85-.43,4.2,4.2,0,0,1,1.25.18,2.3,2.3,0,0,1,1,.59,2.82,2.82,0,0,1,.66,1.13,5.47,5.47,0,0,1,.24,1.75v5.6H83.59V56.62A2.16,2.16,0,0,0,83.1,55a1.73,1.73,0,0,0-1.25-.48,2.12,2.12,0,0,0-1.22.38,2,2,0,0,0-.75,1v5.83H77.54v-7H76.25Z" transform="translate(-0.9 -23.95)"/><path d="M107.24,60.77a2.73,2.73,0,0,1-.6.43,5.38,5.38,0,0,1-.86.38,6.66,6.66,0,0,1-1.09.29,7.29,7.29,0,0,1-1.26.11,6.23,6.23,0,0,1-2.06-.32,4.05,4.05,0,0,1-2.5-2.44,5.39,5.39,0,0,1-.34-2,5.32,5.32,0,0,1,.38-2.08,4.21,4.21,0,0,1,1-1.49,4.4,4.4,0,0,1,1.53-.89,6.21,6.21,0,0,1,1.91-.29,5.94,5.94,0,0,1,1.42.18,3.81,3.81,0,0,1,1.34.62,3.33,3.33,0,0,1,1,1.18,4.09,4.09,0,0,1,.38,1.87,8.58,8.58,0,0,1-.18,1.67h-6.48a2,2,0,0,0,.25,1,1.84,1.84,0,0,0,.59.65,2.61,2.61,0,0,0,.85.37,4.05,4.05,0,0,0,1,.12,5.56,5.56,0,0,0,1.78-.25,3.81,3.81,0,0,0,1.12-.62Zm-3.88-6.42a2.86,2.86,0,0,0-.89.13,2.45,2.45,0,0,0-.74.37,2,2,0,0,0-.55.62,1.75,1.75,0,0,0-.25.82h4.42a1.77,1.77,0,0,0-2-1.94Z" transform="translate(-0.9 -23.95)"/><path d="M112.23,57.08l-3.13-4.35h2.79l2,3,2.13-3h2.53l-3.07,4.32,3.25,4.68h-2.71l-2.29-3.31-2.32,3.31h-2.56Z" transform="translate(-0.9 -23.95)"/><path d="M120.85,53.34a9.88,9.88,0,0,1,1.67-.56,9.71,9.71,0,0,1,2.24-.23,5,5,0,0,1,1.59.22,2.71,2.71,0,0,1,1.06.64,2.49,2.49,0,0,1,.59,1,4.39,4.39,0,0,1,.18,1.3,13.92,13.92,0,0,1-.07,1.56c0,.44-.06.82-.06,1.16s0,.53,0,.84,0,.33,0,.49h1.17v2h-3l-.24-1.23H126a2.89,2.89,0,0,1-1,1,3.38,3.38,0,0,1-1.78.4,3,3,0,0,1-2.13-.72,2.44,2.44,0,0,1-.79-1.91,2.8,2.8,0,0,1,.28-1.3,2.24,2.24,0,0,1,.8-.9,3.85,3.85,0,0,1,1.27-.52,7.12,7.12,0,0,1,1.66-.17l.68,0c.23,0,.53,0,.87.07a1.47,1.47,0,0,0,0-.36v-.34a1.14,1.14,0,0,0-.4-1,1.87,1.87,0,0,0-1.16-.3,5.28,5.28,0,0,0-1.64.24,8.65,8.65,0,0,0-1.23.47ZM123.92,60a2.18,2.18,0,0,0,1.28-.32,2.14,2.14,0,0,0,.62-.67V57.88c-.12,0-.3-.05-.53-.08a6.23,6.23,0,0,0-.77,0,4,4,0,0,0-.68.06,2.64,2.64,0,0,0-.6.2,1.25,1.25,0,0,0-.43.35.91.91,0,0,0-.16.52,1,1,0,0,0,.3.79A1.39,1.39,0,0,0,123.92,60Z" transform="translate(-0.9 -23.95)"/><path d="M134.37,61.73V56.22a4.11,4.11,0,0,0-.07-.87,1.63,1.63,0,0,0-.19-.52.6.6,0,0,0-.29-.26,1,1,0,0,0-.35-.06,1,1,0,0,0-.57.2,1,1,0,0,0-.35.5v6.52h-2.16v-9h1.71l.25,1h.06a2.19,2.19,0,0,1,2-1.19,2.41,2.41,0,0,1,1.14.29,1.56,1.56,0,0,1,.74,1,2.06,2.06,0,0,1,.82-1,2.37,2.37,0,0,1,1.21-.33,2.65,2.65,0,0,1,.87.14,1.5,1.5,0,0,1,.68.47,2.37,2.37,0,0,1,.44.93,6.2,6.2,0,0,1,.15,1.5v6.16h-2.16V56a1.91,1.91,0,0,0-.26-1.14.8.8,0,0,0-.64-.32,1,1,0,0,0-.56.15.86.86,0,0,0-.32.5v6.57Z" transform="translate(-0.9 -23.95)"/><path d="M140.83,52.73h3.06l.27,1.08h.07a3.45,3.45,0,0,1,3-1.33,4.15,4.15,0,0,1,1.52.26,2.87,2.87,0,0,1,1.19.82,3.84,3.84,0,0,1,.76,1.4,7.56,7.56,0,0,1,0,4.11,4.43,4.43,0,0,1-.89,1.58,3.8,3.8,0,0,1-1.4,1,4.86,4.86,0,0,1-1.89.34,8,8,0,0,1-1.1-.08,2.91,2.91,0,0,1-.9-.26v3.69h-2.34V54.71h-1.35Zm5.73,1.73a2.38,2.38,0,0,0-1.26.34,1.84,1.84,0,0,0-.78,1v3.75a1.84,1.84,0,0,0,.73.31,4,4,0,0,0,1,.12,2.62,2.62,0,0,0,.94-.17,1.93,1.93,0,0,0,.76-.55,2.76,2.76,0,0,0,.5-1,4.74,4.74,0,0,0,.18-1.39A2.67,2.67,0,0,0,148,55.1,1.85,1.85,0,0,0,146.56,54.46Z" transform="translate(-0.9 -23.95)"/><path d="M153.2,49.13H157v8.31a4,4,0,0,0,.34,1.93,1.21,1.21,0,0,0,1.1.54,3,3,0,0,0,.92-.12,3.3,3.3,0,0,0,.72-.33l.88,1.62c-.2.13-.41.26-.61.37a4.27,4.27,0,0,1-.65.29,4.12,4.12,0,0,1-.75.18,6.17,6.17,0,0,1-.9.06,3.42,3.42,0,0,1-2.54-.86,3.35,3.35,0,0,1-.85-2.45V51.11H153.2Z" transform="translate(-0.9 -23.95)"/><path d="M172,60.77a2.73,2.73,0,0,1-.6.43,5.81,5.81,0,0,1-.86.38,6.66,6.66,0,0,1-1.09.29,7.29,7.29,0,0,1-1.26.11,6.23,6.23,0,0,1-2.06-.32,4.09,4.09,0,0,1-1.54-.95,4.23,4.23,0,0,1-1-1.49,5.61,5.61,0,0,1-.33-2,5.32,5.32,0,0,1,.38-2.08,4.32,4.32,0,0,1,1-1.49,4.45,4.45,0,0,1,1.54-.89,6.21,6.21,0,0,1,1.91-.29,5.8,5.8,0,0,1,1.41.18,3.65,3.65,0,0,1,1.34.62,3.14,3.14,0,0,1,1,1.18,4,4,0,0,1,.39,1.87,8.58,8.58,0,0,1-.18,1.67h-6.48a2,2,0,0,0,.24,1,1.87,1.87,0,0,0,.6.65,2.56,2.56,0,0,0,.84.37,4.19,4.19,0,0,0,1,.12,5.45,5.45,0,0,0,1.77-.25,3.75,3.75,0,0,0,1.13-.62Zm-3.89-6.42a2.84,2.84,0,0,0-.88.13,2.45,2.45,0,0,0-.74.37,1.92,1.92,0,0,0-.55.62,1.75,1.75,0,0,0-.25.82h4.42a1.77,1.77,0,0,0-2-1.94Z" transform="translate(-0.9 -23.95)"/><path d="M192.22,65.54a8.16,8.16,0,0,1-2.45-.79,7.06,7.06,0,0,1-2.1-1.6,7.72,7.72,0,0,1-1.47-2.45,10.42,10.42,0,0,1,0-6.68,7.88,7.88,0,0,1,1.47-2.48,7.37,7.37,0,0,1,2.1-1.64,8.58,8.58,0,0,1,2.45-.84l.43,1.92a7.69,7.69,0,0,0-1.43.52,5.24,5.24,0,0,0-1.52,1.09,6.16,6.16,0,0,0-1.21,1.88,7.33,7.33,0,0,0-.5,2.88,6.59,6.59,0,0,0,.52,2.79A6.21,6.21,0,0,0,189.78,62a5.86,5.86,0,0,0,1.54,1.1,6.33,6.33,0,0,0,1.33.47Z" transform="translate(-0.9 -23.95)"/><path d="M196.45,53.34a9.88,9.88,0,0,1,1.67-.56,9.71,9.71,0,0,1,2.24-.23,5,5,0,0,1,1.59.22,2.71,2.71,0,0,1,1.06.64,2.49,2.49,0,0,1,.59,1,4.39,4.39,0,0,1,.18,1.3,13.92,13.92,0,0,1-.07,1.56c0,.44-.06.82-.06,1.16s0,.53,0,.84,0,.33.05.49h1.17v2h-3l-.24-1.23h-.09a3.07,3.07,0,0,1-1,1,3.39,3.39,0,0,1-1.79.4,3,3,0,0,1-2.12-.72,2.44,2.44,0,0,1-.79-1.91,2.8,2.8,0,0,1,.28-1.3,2.24,2.24,0,0,1,.8-.9,3.85,3.85,0,0,1,1.27-.52,7.09,7.09,0,0,1,1.65-.17l.68,0c.24,0,.54,0,.88.07a2.2,2.2,0,0,0,0-.36v-.34a1.14,1.14,0,0,0-.4-1,1.89,1.89,0,0,0-1.16-.3,5.24,5.24,0,0,0-1.64.24,9.33,9.33,0,0,0-1.24.47ZM199.51,60a2.19,2.19,0,0,0,1.29-.32,2.14,2.14,0,0,0,.62-.67V57.88c-.12,0-.3-.05-.54-.08a5.94,5.94,0,0,0-.76,0,3.91,3.91,0,0,0-.68.06,2.64,2.64,0,0,0-.6.2,1.25,1.25,0,0,0-.43.35.85.85,0,0,0-.16.52,1.07,1.07,0,0,0,.29.79A1.42,1.42,0,0,0,199.51,60Z" transform="translate(-0.9 -23.95)"/><path d="M209.55,60.58a1.25,1.25,0,0,1,.41-1,1.48,1.48,0,0,1,1-.36,1.78,1.78,0,0,1,1.49.65,2.51,2.51,0,0,1,.5,1.6,3.41,3.41,0,0,1-.31,1.48,3.82,3.82,0,0,1-.82,1.15,4.3,4.3,0,0,1-1.12.79,4.44,4.44,0,0,1-1.24.42l-.48-1a5.71,5.71,0,0,0,.87-.31,3.43,3.43,0,0,0,.8-.49,2.69,2.69,0,0,0,.6-.7,1.75,1.75,0,0,0,.28-.86,2.43,2.43,0,0,1-.92,0,1.49,1.49,0,0,1-.62-.29,1.23,1.23,0,0,1-.35-.5A2,2,0,0,1,209.55,60.58Z" transform="translate(-0.9 -23.95)"/><path d="M227,49.13h3.72v4.32h.07a2.71,2.71,0,0,1,1-.69,4.51,4.51,0,0,1,1.58-.25,3.77,3.77,0,0,1,2.85,1.12A4.69,4.69,0,0,1,237.31,57a5.89,5.89,0,0,1-.36,2.14,4.19,4.19,0,0,1-1,1.55,4.46,4.46,0,0,1-1.6.94,6.44,6.44,0,0,1-2.13.32,7.21,7.21,0,0,1-2.35-.32,7.52,7.52,0,0,1-1.47-.65V51.11H227Zm5.74,5.36a2,2,0,0,0-.56.09,3,3,0,0,0-.58.25,2.6,2.6,0,0,0-.53.41,1.4,1.4,0,0,0-.35.55v3.74a4.84,4.84,0,0,0,.79.29,3.81,3.81,0,0,0,1.08.14,2.21,2.21,0,0,0,.89-.17,1.84,1.84,0,0,0,.74-.53,2.6,2.6,0,0,0,.5-.9,4.1,4.1,0,0,0,.18-1.29,2.89,2.89,0,0,0-.55-1.93A2,2,0,0,0,232.74,54.49Z" transform="translate(-0.9 -23.95)"/><path d="M242,60.58a1.25,1.25,0,0,1,.41-1,1.48,1.48,0,0,1,1-.36,1.78,1.78,0,0,1,1.49.65,2.51,2.51,0,0,1,.5,1.6,3.41,3.41,0,0,1-.31,1.48,3.82,3.82,0,0,1-.82,1.15,4.19,4.19,0,0,1-1.13.79,4.27,4.27,0,0,1-1.23.42l-.48-1a5.71,5.71,0,0,0,.87-.31,3.43,3.43,0,0,0,.8-.49,2.69,2.69,0,0,0,.6-.7A1.86,1.86,0,0,0,244,62a2.43,2.43,0,0,1-.92,0,1.43,1.43,0,0,1-.62-.29,1.23,1.23,0,0,1-.35-.5A2,2,0,0,1,242,60.58Z" transform="translate(-0.9 -23.95)"/><path d="M269.46,60.86a4.9,4.9,0,0,1-1.73.84,7.44,7.44,0,0,1-2.07.28,5.86,5.86,0,0,1-2.08-.34,4,4,0,0,1-2.48-2.47,5.72,5.72,0,0,1-.32-1.94,5.12,5.12,0,0,1,.38-2,4.19,4.19,0,0,1,1-1.49,4.47,4.47,0,0,1,1.6-.93,6.06,6.06,0,0,1,2-.31,7.15,7.15,0,0,1,1.89.23,9.52,9.52,0,0,1,1.35.45v3.17h-2V54.67a5.24,5.24,0,0,0-1.11-.12,3.41,3.41,0,0,0-1,.15,2.25,2.25,0,0,0-.88.49,2.5,2.5,0,0,0-.63.83,2.67,2.67,0,0,0-.25,1.21,2.82,2.82,0,0,0,.2,1.06,2.57,2.57,0,0,0,.56.85,2.46,2.46,0,0,0,.89.56,3.18,3.18,0,0,0,1.18.21,4.26,4.26,0,0,0,1.68-.29,6.58,6.58,0,0,0,1-.5Z" transform="translate(-0.9 -23.95)"/><path d="M272.59,63.58a6.33,6.33,0,0,0,1.33-.47,5.86,5.86,0,0,0,1.54-1.1,6.21,6.21,0,0,0,1.27-1.87,6.59,6.59,0,0,0,.52-2.79,7.34,7.34,0,0,0-.49-2.88,6.17,6.17,0,0,0-1.22-1.88A5.24,5.24,0,0,0,274,51.5a7.44,7.44,0,0,0-1.43-.52l.43-1.92a8.58,8.58,0,0,1,2.45.84,7.56,7.56,0,0,1,2.11,1.64A7.67,7.67,0,0,1,279,54a10.42,10.42,0,0,1,0,6.68,7.53,7.53,0,0,1-1.46,2.45,7.23,7.23,0,0,1-2.11,1.6,8.16,8.16,0,0,1-2.45.79Z" transform="translate(-0.9 -23.95)"/><path d="M296.1,60.72a2.19,2.19,0,0,0-.65-1.82,3,3,0,0,0-1.87-.5V56.6a2.92,2.92,0,0,0,1.88-.53,2.15,2.15,0,0,0,.64-1.72V52a3,3,0,0,1,.71-2.14,2.74,2.74,0,0,1,2.11-.77h2.7v2h-1.44a4.24,4.24,0,0,0-.87.07,1.26,1.26,0,0,0-.57.27,1.13,1.13,0,0,0-.3.55,3.76,3.76,0,0,0-.09.91V55a2.24,2.24,0,0,1-.65,1.76,2.92,2.92,0,0,1-1.69.65v.18a2.62,2.62,0,0,1,1.68.7,2.33,2.33,0,0,1,.66,1.79v2.05a3.82,3.82,0,0,0,.09.91,1.17,1.17,0,0,0,.3.55,1.25,1.25,0,0,0,.58.27,5.31,5.31,0,0,0,.88.07h1.42v2h-2.7a2.88,2.88,0,0,1-2.09-.72A2.93,2.93,0,0,1,296.1,63Z" transform="translate(-0.9 -23.95)"/><path d="M7.51,84.57a2.93,2.93,0,0,1-.74,2.18,2.87,2.87,0,0,1-2.09.72H2v-2H3.4a5.44,5.44,0,0,0,.89-.07,1.17,1.17,0,0,0,.57-.27,1.11,1.11,0,0,0,.31-.55,3.82,3.82,0,0,0,.09-.91v-2a2.37,2.37,0,0,1,.65-1.79,2.63,2.63,0,0,1,1.69-.7V79a2.89,2.89,0,0,1-1.69-.65,2.2,2.2,0,0,1-.65-1.76v-2a3.7,3.7,0,0,0-.1-.91,1.15,1.15,0,0,0-.32-.55,1.18,1.18,0,0,0-.56-.27,4.26,4.26,0,0,0-.86-.07H2v-2h2.7a2.77,2.77,0,0,1,2.12.77,3.07,3.07,0,0,1,.71,2.14V76a2.11,2.11,0,0,0,.64,1.72A2.89,2.89,0,0,0,10,78.2V80a3,3,0,0,0-1.87.5,2.16,2.16,0,0,0-.65,1.82Z" transform="translate(-0.9 -23.95)"/><path d="M3.94,135.44a1.27,1.27,0,0,1,.4-1,1.44,1.44,0,0,1,1-.37,1.49,1.49,0,0,1,1.08.37,1.27,1.27,0,0,1,.4,1,1.29,1.29,0,0,1-.4,1,1.45,1.45,0,0,1-1.08.38,1.4,1.4,0,0,1-1-.38A1.29,1.29,0,0,1,3.94,135.44Z" transform="translate(-0.9 -23.95)"/><path d="M14.74,135.44a1.27,1.27,0,0,1,.4-1,1.44,1.44,0,0,1,1-.37,1.49,1.49,0,0,1,1.08.37,1.27,1.27,0,0,1,.4,1,1.29,1.29,0,0,1-.4,1,1.45,1.45,0,0,1-1.08.38,1.4,1.4,0,0,1-1-.38A1.29,1.29,0,0,1,14.74,135.44Z" transform="translate(-0.9 -23.95)"/><path d="M25.54,135.44a1.27,1.27,0,0,1,.4-1,1.44,1.44,0,0,1,1-.37,1.49,1.49,0,0,1,1.08.37,1.27,1.27,0,0,1,.4,1,1.29,1.29,0,0,1-.4,1,1.45,1.45,0,0,1-1.08.38,1.4,1.4,0,0,1-1-.38A1.29,1.29,0,0,1,25.54,135.44Z" transform="translate(-0.9 -23.95)"/><path d="M9.61,157.27a3.45,3.45,0,0,1-.6.42,5.79,5.79,0,0,1-.86.39,6.94,6.94,0,0,1-1.09.29,7.29,7.29,0,0,1-1.26.11,6.07,6.07,0,0,1-2.07-.33,4.11,4.11,0,0,1-1.53-.94,4.36,4.36,0,0,1-1-1.5,5.57,5.57,0,0,1-.33-2,5.36,5.36,0,0,1,.38-2.08,4.11,4.11,0,0,1,2.57-2.37,5.93,5.93,0,0,1,1.91-.3,5.8,5.8,0,0,1,1.41.18,3.82,3.82,0,0,1,1.34.62,3.4,3.4,0,0,1,1,1.18,4,4,0,0,1,.39,1.87,8.6,8.6,0,0,1-.18,1.68H3.24a2,2,0,0,0,.24,1,2,2,0,0,0,.6.65,2.47,2.47,0,0,0,.84.37,4.76,4.76,0,0,0,1,.11,5.19,5.19,0,0,0,1.77-.25,3.87,3.87,0,0,0,1.13-.61Zm-3.89-6.43a3.17,3.17,0,0,0-.88.13,2.47,2.47,0,0,0-.74.38,1.89,1.89,0,0,0-.55.61,1.93,1.93,0,0,0-.26.83H7.72a2,2,0,0,0-.49-1.42A2,2,0,0,0,5.72,150.84Z" transform="translate(-0.9 -23.95)"/><path d="M14.6,153.58l-3.13-4.36h2.79l2,3,2.12-3H21l-3.08,4.32,3.26,4.68H18.41l-2.28-3.31-2.32,3.31H11.25Z" transform="translate(-0.9 -23.95)"/><path d="M23.22,149.84a9,9,0,0,1,1.66-.56,9.23,9.23,0,0,1,2.25-.24,4.94,4.94,0,0,1,1.59.23,2.6,2.6,0,0,1,1.06.64,2.36,2.36,0,0,1,.59,1,4.28,4.28,0,0,1,.18,1.29c0,.62,0,1.14-.07,1.57s-.06.82-.06,1.15,0,.54,0,.85,0,.33.05.48h1.17v2h-3L28.42,157h-.09a3.15,3.15,0,0,1-1,1,3.41,3.41,0,0,1-1.79.41,3.05,3.05,0,0,1-2.13-.72,2.48,2.48,0,0,1-.78-1.91,3,3,0,0,1,.27-1.31,2.49,2.49,0,0,1,.81-.9A4,4,0,0,1,25,153a7.61,7.61,0,0,1,1.65-.17,5.27,5.27,0,0,1,.68,0l.88.07a2.2,2.2,0,0,0,0-.36v-.34a1.14,1.14,0,0,0-.4-1,1.89,1.89,0,0,0-1.16-.3,5.55,5.55,0,0,0-1.64.23c-.49.16-.9.32-1.24.47Zm3.06,6.6a2.14,2.14,0,0,0,1.28-.31,2.1,2.1,0,0,0,.63-.68v-1.08l-.54-.08a6,6,0,0,0-.76,0,3.91,3.91,0,0,0-.68.06,2.12,2.12,0,0,0-.6.2,1.15,1.15,0,0,0-.43.35.83.83,0,0,0-.16.52,1,1,0,0,0,.29.78A1.37,1.37,0,0,0,26.28,156.44Z" transform="translate(-0.9 -23.95)"/><path d="M36.74,158.22v-5.5a5,5,0,0,0-.07-.88,2,2,0,0,0-.19-.52.57.57,0,0,0-.29-.25,1.07,1.07,0,0,0-.35-.06.91.91,0,0,0-.57.19,1,1,0,0,0-.35.51v6.51H32.76v-9h1.71l.25,1h.06a2.2,2.2,0,0,1,2-1.18,2.4,2.4,0,0,1,1.14.28,1.54,1.54,0,0,1,.73,1,2,2,0,0,1,.83-1A2.34,2.34,0,0,1,40.7,149a2.65,2.65,0,0,1,.87.13,1.58,1.58,0,0,1,.68.48,2.47,2.47,0,0,1,.44.92,6.29,6.29,0,0,1,.15,1.51v6.15H40.68v-5.76a1.88,1.88,0,0,0-.26-1.13.79.79,0,0,0-.64-.32,1,1,0,0,0-.56.15.83.83,0,0,0-.32.49v6.57Z" transform="translate(-0.9 -23.95)"/><path d="M43.2,149.22h3.06l.27,1.08h.07a3.46,3.46,0,0,1,3-1.33,4.43,4.43,0,0,1,1.53.26,3,3,0,0,1,1.18.82,3.82,3.82,0,0,1,.77,1.41,6.7,6.7,0,0,1,.27,2,6.45,6.45,0,0,1-.31,2.08,4.36,4.36,0,0,1-.88,1.57,3.58,3.58,0,0,1-1.4,1,4.86,4.86,0,0,1-1.89.35,6.71,6.71,0,0,1-1.1-.09,2.91,2.91,0,0,1-.9-.26v3.69H44.55V151.2H43.2ZM48.92,151a2.47,2.47,0,0,0-1.25.34,1.75,1.75,0,0,0-.78,1v3.74a1.84,1.84,0,0,0,.73.32,4,4,0,0,0,1,.12,2.42,2.42,0,0,0,.94-.18,1.81,1.81,0,0,0,.75-.54,2.66,2.66,0,0,0,.51-1,4.62,4.62,0,0,0,.18-1.38,2.64,2.64,0,0,0-.58-1.84A1.87,1.87,0,0,0,48.92,151Z" transform="translate(-0.9 -23.95)"/><path d="M55.56,145.62H59.4v8.32a3.87,3.87,0,0,0,.34,1.93,1.2,1.2,0,0,0,1.1.54,3,3,0,0,0,.92-.12,3.84,3.84,0,0,0,.72-.33l.88,1.62-.61.36a3.79,3.79,0,0,1-.65.29,4.12,4.12,0,0,1-.75.18,6.13,6.13,0,0,1-.91.07,3.4,3.4,0,0,1-2.54-.87,3.36,3.36,0,0,1-.84-2.45V147.6h-1.5Z" transform="translate(-0.9 -23.95)"/><path d="M74.41,157.27a3.89,3.89,0,0,1-.6.42,5.94,5.94,0,0,1-.87.39,6.4,6.4,0,0,1-1.09.29,7.12,7.12,0,0,1-1.26.11,6.06,6.06,0,0,1-2.06-.33,4.15,4.15,0,0,1-1.54-.94,4.2,4.2,0,0,1-1-1.5,5.57,5.57,0,0,1-.33-2,5.18,5.18,0,0,1,.38-2.08,4.15,4.15,0,0,1,1-1.48,4.29,4.29,0,0,1,1.54-.89,5.93,5.93,0,0,1,1.91-.3,5.86,5.86,0,0,1,1.41.18,3.9,3.9,0,0,1,1.34.62,3.4,3.4,0,0,1,1,1.18,4,4,0,0,1,.39,1.87,8.6,8.6,0,0,1-.18,1.68H68a2,2,0,0,0,.24,1,2,2,0,0,0,.6.65,2.47,2.47,0,0,0,.84.37,4.76,4.76,0,0,0,1,.11,5.19,5.19,0,0,0,1.77-.25,3.87,3.87,0,0,0,1.13-.61Zm-3.89-6.43a3.17,3.17,0,0,0-.88.13,2.53,2.53,0,0,0-.75.38,2.15,2.15,0,0,0-.55.61,2.06,2.06,0,0,0-.25.83h4.43a2,2,0,0,0-.49-1.42A2,2,0,0,0,70.52,150.84Z" transform="translate(-0.9 -23.95)"/><path d="M83.79,162a8.45,8.45,0,0,1-2.45-.79,7.41,7.41,0,0,1-2.11-1.6,7.63,7.63,0,0,1-1.46-2.45,10.45,10.45,0,0,1,0-6.69A7.62,7.62,0,0,1,79.23,148a7.38,7.38,0,0,1,2.11-1.64,8.92,8.92,0,0,1,2.45-.85l.43,1.93a6.74,6.74,0,0,0-1.43.51,5.28,5.28,0,0,0-1.52,1.1A5.94,5.94,0,0,0,80.05,151a7.34,7.34,0,0,0-.49,2.88,6.65,6.65,0,0,0,.52,2.79,6,6,0,0,0,1.27,1.86,5.64,5.64,0,0,0,1.54,1.1,5.91,5.91,0,0,0,1.33.48Z" transform="translate(-0.9 -23.95)"/><path d="M88.67,156.24h2.75v-7.86L89,150.2,88,148.76l4.11-3.14h1.58v10.62h2.7v2H88.67Z" transform="translate(-0.9 -23.95)"/><path d="M99.47,156.24h2.75v-7.86l-2.38,1.82-1.08-1.44,4.11-3.14h1.58v10.62h2.7v2H99.47Z" transform="translate(-0.9 -23.95)"/><path d="M112.28,157.07a1.23,1.23,0,0,1,.41-1,1.47,1.47,0,0,1,1-.36,1.8,1.8,0,0,1,1.5.65,2.55,2.55,0,0,1,.5,1.6,3.44,3.44,0,0,1-.31,1.48,4.15,4.15,0,0,1-.82,1.15,4.42,4.42,0,0,1-1.13.79,4.56,4.56,0,0,1-1.23.41l-.49-1a5.39,5.39,0,0,0,.88-.3,3.47,3.47,0,0,0,.8-.5,2.81,2.81,0,0,0,.6-.69,1.86,1.86,0,0,0,.28-.86,2.22,2.22,0,0,1-.92,0,1.32,1.32,0,0,1-.62-.29,1.11,1.11,0,0,1-.35-.5A1.91,1.91,0,0,1,112.28,157.07Z" transform="translate(-0.9 -23.95)"/><path d="M132.05,151.2h-1.79v-2h1.79v-2.05l2.34-.66v2.71h4.71v2h-4.71v2.58a3.07,3.07,0,0,0,.52,2,1.79,1.79,0,0,0,1.46.63,3.07,3.07,0,0,0,.88-.12,3.52,3.52,0,0,0,.71-.3,4.89,4.89,0,0,0,.58-.39l.47-.4,1.08,1.62a3.54,3.54,0,0,1-.76.66,7.73,7.73,0,0,1-1,.52,6.22,6.22,0,0,1-1.11.35,5.52,5.52,0,0,1-1.13.13,3.9,3.9,0,0,1-3-1.13,5.21,5.21,0,0,1-1-3.57Z" transform="translate(-0.9 -23.95)"/><path d="M141.46,156.24h2.23v-5h-2.23v-2h4l.27,1.19h.07a5.16,5.16,0,0,1,1.15-1,2.91,2.91,0,0,1,1.52-.39,2.06,2.06,0,0,1,1.7.79,4.38,4.38,0,0,1,.62,2.64h-2.11a1.76,1.76,0,0,0-.19-.94.64.64,0,0,0-.6-.3,1.77,1.77,0,0,0-1.16.36,3.47,3.47,0,0,0-.75.83v3.83h3.91v2h-8.48Z" transform="translate(-0.9 -23.95)"/><path d="M157.5,149.22h3.35v7h1.36v2h-2.84l-.41-1.33h-.08a3.13,3.13,0,0,1-1.24,1.14,3.76,3.76,0,0,1-1.83.45,4.06,4.06,0,0,1-1.25-.18,2.27,2.27,0,0,1-1-.6,2.74,2.74,0,0,1-.61-1.11,6.27,6.27,0,0,1-.22-1.77V151.2h-1v-2h3.36v5.12a2.69,2.69,0,0,0,.36,1.58,1.27,1.27,0,0,0,1.1.49,2,2,0,0,0,1.2-.4,2.21,2.21,0,0,0,.75-1V151.2h-1Z" transform="translate(-0.9 -23.95)"/><path d="M172,157.27a3.89,3.89,0,0,1-.6.42,5.94,5.94,0,0,1-.87.39,6.4,6.4,0,0,1-1.09.29,7.12,7.12,0,0,1-1.26.11,6.06,6.06,0,0,1-2.06-.33,4.15,4.15,0,0,1-1.54-.94,4.2,4.2,0,0,1-1-1.5,5.57,5.57,0,0,1-.33-2,5.18,5.18,0,0,1,.38-2.08,4.15,4.15,0,0,1,1-1.48,4.29,4.29,0,0,1,1.54-.89,6,6,0,0,1,3.32-.12,3.9,3.9,0,0,1,1.34.62,3.4,3.4,0,0,1,1,1.18,4,4,0,0,1,.39,1.87,8.6,8.6,0,0,1-.18,1.68H165.6a2,2,0,0,0,.24,1,2,2,0,0,0,.6.65,2.47,2.47,0,0,0,.84.37,4.76,4.76,0,0,0,1,.11,5.19,5.19,0,0,0,1.77-.25,3.87,3.87,0,0,0,1.13-.61Zm-3.89-6.43a3.17,3.17,0,0,0-.88.13,2.53,2.53,0,0,0-.75.38,2.15,2.15,0,0,0-.55.61,2.06,2.06,0,0,0-.25.83h4.43a1.79,1.79,0,0,0-2-1.95Z" transform="translate(-0.9 -23.95)"/><path d="M177.08,157.07a1.23,1.23,0,0,1,.41-1,1.47,1.47,0,0,1,1-.36,1.8,1.8,0,0,1,1.5.65,2.55,2.55,0,0,1,.5,1.6,3.44,3.44,0,0,1-.31,1.48,4.15,4.15,0,0,1-.82,1.15,4.42,4.42,0,0,1-1.13.79,4.56,4.56,0,0,1-1.23.41l-.49-1a5.39,5.39,0,0,0,.88-.3,3.47,3.47,0,0,0,.8-.5,2.81,2.81,0,0,0,.6-.69,1.86,1.86,0,0,0,.28-.86,2.22,2.22,0,0,1-.92,0,1.32,1.32,0,0,1-.62-.29,1.11,1.11,0,0,1-.35-.5A1.91,1.91,0,0,1,177.08,157.07Z" transform="translate(-0.9 -23.95)"/><path d="M199.22,156.5a3.72,3.72,0,0,0,1.09-.16,2.52,2.52,0,0,0,.85-.43,2.23,2.23,0,0,0,.55-.64,1.69,1.69,0,0,0,.19-.8,1.58,1.58,0,0,0-.84-1.49,3.1,3.1,0,0,0-1-.3,7.51,7.51,0,0,0-1.2-.09h-1V151.3l3-3.7h-4.55v-2h7.34v1.64l-3.16,3.62H201a3.38,3.38,0,0,1,1.22.22,3.1,3.1,0,0,1,1.06.64,3.22,3.22,0,0,1,.73,1.08,4.11,4.11,0,0,1-.14,3.3,4,4,0,0,1-1.12,1.3,4.56,4.56,0,0,1-1.59.79,6.42,6.42,0,0,1-1.85.27,8.88,8.88,0,0,1-1.62-.15,7.22,7.22,0,0,1-1.57-.45l.63-1.94a2.82,2.82,0,0,0,.44.18l.63.18a6.1,6.1,0,0,0,.72.14A4.59,4.59,0,0,0,199.22,156.5Z" transform="translate(-0.9 -23.95)"/><path d="M206.24,151.91a10.79,10.79,0,0,1,.34-2.88,6,6,0,0,1,1-2,4,4,0,0,1,1.49-1.21,4.52,4.52,0,0,1,1.94-.41,4.17,4.17,0,0,1,3.5,1.59,8.1,8.1,0,0,1,1.23,4.95,11.15,11.15,0,0,1-.34,2.88,6.16,6.16,0,0,1-1,2.06,4.07,4.07,0,0,1-1.5,1.22,4.59,4.59,0,0,1-1.94.41,4,4,0,0,1-3.51-1.69A8.27,8.27,0,0,1,206.24,151.91Zm2.34,0c0,.18,0,.35,0,.51s0,.33,0,.49l4.35-4a2,2,0,0,0-2-1.55,1.92,1.92,0,0,0-1.76,1.11A7.39,7.39,0,0,0,208.58,151.91Zm4.79,0c0-.2,0-.38,0-.55s0-.35,0-.52l-4.37,4a2.06,2.06,0,0,0,2,1.64,1.93,1.93,0,0,0,1.76-1.1A7.32,7.32,0,0,0,213.37,151.91Z" transform="translate(-0.9 -23.95)"/><path d="M218.52,160.08a5.91,5.91,0,0,0,1.33-.48,5.64,5.64,0,0,0,1.54-1.1,6,6,0,0,0,1.27-1.86,6.81,6.81,0,0,0,.52-2.79,7.33,7.33,0,0,0-.5-2.88,5.92,5.92,0,0,0-1.21-1.88A5.28,5.28,0,0,0,220,148a6.93,6.93,0,0,0-1.43-.51l.43-1.93a9,9,0,0,1,2.45.85,7.2,7.2,0,0,1,2.1,1.64,7.83,7.83,0,0,1,1.47,2.47,10.45,10.45,0,0,1,0,6.69,7.84,7.84,0,0,1-1.47,2.45,7.23,7.23,0,0,1-2.1,1.6A8.55,8.55,0,0,1,219,162Z" transform="translate(-0.9 -23.95)"/><path d="M231.08,157.07a1.23,1.23,0,0,1,.41-1,1.45,1.45,0,0,1,1-.36,1.8,1.8,0,0,1,1.5.65,2.55,2.55,0,0,1,.5,1.6,3.44,3.44,0,0,1-.31,1.48,4.15,4.15,0,0,1-.82,1.15,4.42,4.42,0,0,1-1.13.79,4.56,4.56,0,0,1-1.23.41l-.49-1a5.39,5.39,0,0,0,.88-.3,3.47,3.47,0,0,0,.8-.5,2.81,2.81,0,0,0,.6-.69,2,2,0,0,0,.28-.86,2.22,2.22,0,0,1-.92,0,1.32,1.32,0,0,1-.62-.29,1.11,1.11,0,0,1-.35-.5A1.91,1.91,0,0,1,231.08,157.07Zm0-6.55a1.32,1.32,0,0,1,.39-1,1.48,1.48,0,0,1,1-.37,1.52,1.52,0,0,1,1.08.37,1.32,1.32,0,0,1,.4,1,1.35,1.35,0,0,1-.4,1,1.53,1.53,0,0,1-1.08.38,1.49,1.49,0,0,1-1-.38A1.34,1.34,0,0,1,231.1,150.52Z" transform="translate(-0.9 -23.95)"/><path d="M3.94,178.64a1.27,1.27,0,0,1,.4-1,1.44,1.44,0,0,1,1-.37,1.49,1.49,0,0,1,1.08.37,1.27,1.27,0,0,1,.4,1,1.29,1.29,0,0,1-.4,1,1.45,1.45,0,0,1-1.08.38,1.4,1.4,0,0,1-1-.38A1.29,1.29,0,0,1,3.94,178.64Z" transform="translate(-0.9 -23.95)"/><path d="M14.74,178.64a1.27,1.27,0,0,1,.4-1,1.44,1.44,0,0,1,1-.37,1.49,1.49,0,0,1,1.08.37,1.27,1.27,0,0,1,.4,1,1.29,1.29,0,0,1-.4,1,1.45,1.45,0,0,1-1.08.38,1.4,1.4,0,0,1-1-.38A1.29,1.29,0,0,1,14.74,178.64Z" transform="translate(-0.9 -23.95)"/><path d="M25.54,178.64a1.27,1.27,0,0,1,.4-1,1.44,1.44,0,0,1,1-.37,1.49,1.49,0,0,1,1.08.37,1.27,1.27,0,0,1,.4,1,1.29,1.29,0,0,1-.4,1A1.45,1.45,0,0,1,27,180a1.4,1.4,0,0,1-1-.38A1.29,1.29,0,0,1,25.54,178.64Z" transform="translate(-0.9 -23.95)"/><rect x="178.42" y="14.16" width="106" height="37" style="fill:none;stroke:#c00;stroke-miterlimit:10"/><path d="M203.75,28.35c0-.74,0-1.34-.05-1.89h.94l.06,1h0a2.27,2.27,0,0,1,2.06-1.11c1.42,0,2.47,1.18,2.47,2.94,0,2.08-1.28,3.11-2.65,3.11a2,2,0,0,1-1.78-.91h0v3.16h-1Zm1,1.55a1.88,1.88,0,0,0,.05.43,1.63,1.63,0,0,0,1.58,1.24c1.12,0,1.77-.91,1.77-2.25,0-1.15-.61-2.14-1.73-2.14a1.67,1.67,0,0,0-1.6,1.29,2,2,0,0,0-.07.42Z" transform="translate(-0.9 -23.95)" style="fill:#c00"/><path d="M214.65,30.87a9.64,9.64,0,0,0,.09,1.39h-1l-.08-.73h0a2.14,2.14,0,0,1-1.77.86,1.65,1.65,0,0,1-1.78-1.66c0-1.41,1.25-2.17,3.49-2.16v-.12a1.18,1.18,0,0,0-1.32-1.33,2.76,2.76,0,0,0-1.52.43l-.24-.71a3.77,3.77,0,0,1,1.92-.5c1.77,0,2.2,1.21,2.2,2.36Zm-1-1.57c-1.16,0-2.46.18-2.46,1.31a.92.92,0,0,0,1,1,1.34,1.34,0,0,0,1.48-1.3Z" transform="translate(-0.9 -23.95)" style="fill:#c00"/><path d="M216.36,28.27c0-.69,0-1.27-.05-1.81h.93l0,1.15h0a1.75,1.75,0,0,1,1.62-1.27l.29,0v1a1.34,1.34,0,0,0-.36,0,1.47,1.47,0,0,0-1.42,1.35,3.68,3.68,0,0,0,0,.49v3.09h-1.06Z" transform="translate(-0.9 -23.95)" style="fill:#c00"/><path d="M224.3,30.87a9.64,9.64,0,0,0,.09,1.39h-.95l-.08-.73h0a2.14,2.14,0,0,1-1.77.86,1.65,1.65,0,0,1-1.78-1.66c0-1.41,1.25-2.17,3.49-2.16v-.12a1.18,1.18,0,0,0-1.32-1.33,2.74,2.74,0,0,0-1.52.43l-.24-.71a3.74,3.74,0,0,1,1.92-.5c1.77,0,2.2,1.21,2.2,2.36Zm-1-1.57c-1.15,0-2.46.18-2.46,1.31a.93.93,0,0,0,1,1,1.47,1.47,0,0,0,1.43-1,1.4,1.4,0,0,0,0-.33Zm.53-5.35-1.46,1.72h-.75L222.65,24Z" transform="translate(-0.9 -23.95)" style="fill:#c00"/><path d="M226,28c0-.61,0-1.09,0-1.57h.93l0,.94h0a2,2,0,0,1,1.83-1.06,1.73,1.73,0,0,1,1.64,1.16h0a2.33,2.33,0,0,1,.66-.75,1.92,1.92,0,0,1,1.27-.41c.78,0,1.92.5,1.92,2.52v3.4h-1V29c0-1.13-.42-1.79-1.26-1.79a1.38,1.38,0,0,0-1.26.95,1.68,1.68,0,0,0-.09.53v3.58h-1V28.78c0-.92-.4-1.58-1.21-1.58a1.46,1.46,0,0,0-1.31,1.06,1.37,1.37,0,0,0-.08.51v3.49h-1Z" transform="translate(-0.9 -23.95)" style="fill:#c00"/><path d="M236.6,29.55a1.86,1.86,0,0,0,2,2,3.87,3.87,0,0,0,1.6-.3l.2.75a4.75,4.75,0,0,1-2,.37,2.7,2.7,0,0,1-2.85-2.93c0-1.76,1-3.12,2.72-3.12a2.44,2.44,0,0,1,2.4,2.72,2.08,2.08,0,0,1,0,.49Zm3.1-.75a1.51,1.51,0,0,0-1.46-1.71,1.73,1.73,0,0,0-1.62,1.71Z" transform="translate(-0.9 -23.95)" style="fill:#c00"/><path d="M243.3,25.07v1.39h1.51v.8H243.3v3.13c0,.72.2,1.13.79,1.13a2.21,2.21,0,0,0,.61-.07l.05.8a2.93,2.93,0,0,1-.93.14,1.47,1.47,0,0,1-1.14-.44,2.25,2.25,0,0,1-.41-1.52V27.26h-.9v-.8h.9V25.38Z" transform="translate(-0.9 -23.95)" style="fill:#c00"/><path d="M246,28.27c0-.69,0-1.27-.05-1.81h.93l0,1.15h0a1.75,1.75,0,0,1,1.62-1.27l.29,0v1a1.34,1.34,0,0,0-.36,0,1.47,1.47,0,0,0-1.42,1.35,3.68,3.68,0,0,0,0,.49v3.09H246Z" transform="translate(-0.9 -23.95)" style="fill:#c00"/><path d="M255.06,29.31a2.84,2.84,0,0,1-2.89,3.08,2.76,2.76,0,0,1-2.78-3,2.83,2.83,0,0,1,2.87-3.07A2.75,2.75,0,0,1,255.06,29.31Zm-4.6.06c0,1.27.72,2.23,1.76,2.23s1.76-.94,1.76-2.25c0-1-.49-2.22-1.74-2.22S250.46,28.28,250.46,29.37Z" transform="translate(-0.9 -23.95)" style="fill:#c00"/><path d="M256.25,31.19a2.89,2.89,0,0,0,1.4.41c.76,0,1.12-.37,1.12-.86s-.3-.77-1.07-1.06c-1.05-.38-1.55-.94-1.55-1.64a1.8,1.8,0,0,1,2-1.7,2.63,2.63,0,0,1,1.41.36l-.25.76a2.31,2.31,0,0,0-1.19-.34c-.62,0-1,.36-1,.79s.34.69,1.09,1c1,.38,1.53.88,1.53,1.74,0,1-.81,1.75-2.16,1.75A3.3,3.3,0,0,1,256,32Z" transform="translate(-0.9 -23.95)" style="fill:#c00"/><rect x="74.42" y="114.16" width="152" height="30" style="fill:none;stroke:#0c0;stroke-miterlimit:10"/><path d="M127.11,178.77a9.89,9.89,0,0,0,.08,1.4h-1l-.08-.74h0a2.14,2.14,0,0,1-1.77.87,1.66,1.66,0,0,1-1.78-1.67c0-1.4,1.25-2.17,3.49-2.16v-.12a1.19,1.19,0,0,0-1.32-1.33,2.85,2.85,0,0,0-1.52.43l-.24-.71a3.77,3.77,0,0,1,1.92-.5c1.77,0,2.21,1.21,2.21,2.36Zm-1-1.57c-1.15,0-2.46.18-2.46,1.31a.92.92,0,0,0,1,1,1.34,1.34,0,0,0,1.48-1.31Z" transform="translate(-0.9 -23.95)" style="fill:#0c0"/><path d="M128.81,176.17c0-.68,0-1.27-.05-1.81h.93l.05,1.15h0a1.76,1.76,0,0,1,1.62-1.27l.29,0v1a2,2,0,0,0-.36,0,1.48,1.48,0,0,0-1.42,1.34,3.68,3.68,0,0,0,0,.49v3.1h-1.06Z" transform="translate(-0.9 -23.95)" style="fill:#0c0"/><path d="M137.61,179.31a3.43,3.43,0,0,1-.83,2.67,3.22,3.22,0,0,1-2.12.69,3.73,3.73,0,0,1-1.93-.48l.26-.81a3.16,3.16,0,0,0,1.7.46c1.08,0,1.87-.56,1.87-2v-.64h0a2.06,2.06,0,0,1-1.85,1,2.59,2.59,0,0,1-2.47-2.83,2.77,2.77,0,0,1,2.63-3.07,1.94,1.94,0,0,1,1.81,1h0l0-.88h.93c0,.41,0,.89,0,1.58Zm-1.06-2.66a1.38,1.38,0,0,0-.06-.47,1.5,1.5,0,0,0-1.47-1.12c-1,0-1.73.85-1.73,2.19,0,1.14.59,2.09,1.71,2.09a1.54,1.54,0,0,0,1.47-1.08,1.83,1.83,0,0,0,.08-.57Z" transform="translate(-0.9 -23.95)" style="fill:#0c0"/><path d="M144.21,178.57c0,.61,0,1.14,0,1.6h-.93l-.06-.95h0a2.14,2.14,0,0,1-1.91,1.08c-.92,0-2-.52-2-2.55v-3.39h1.06v3.2c0,1.11.35,1.86,1.29,1.86a1.51,1.51,0,0,0,1.39-1,1.44,1.44,0,0,0,.1-.54v-3.55h1.06Z" transform="translate(-0.9 -23.95)" style="fill:#0c0"/><path d="M146,175.93c0-.61,0-1.09-.05-1.57h.93l0,.95h0a2,2,0,0,1,1.83-1.07,1.73,1.73,0,0,1,1.64,1.16h0a2.33,2.33,0,0,1,.66-.75,1.92,1.92,0,0,1,1.27-.41c.78,0,1.92.5,1.92,2.52v3.41h-1v-3.28c0-1.13-.42-1.79-1.26-1.79a1.39,1.39,0,0,0-1.26,1,1.78,1.78,0,0,0-.08.53v3.59h-1v-3.48c0-.93-.4-1.59-1.21-1.59a1.44,1.44,0,0,0-1.3,1.06,1.42,1.42,0,0,0-.09.52v3.49h-1Z" transform="translate(-0.9 -23.95)" style="fill:#0c0"/><path d="M156.56,177.46a1.85,1.85,0,0,0,2,2,3.71,3.71,0,0,0,1.6-.3l.2.76a4.92,4.92,0,0,1-1.95.37,2.71,2.71,0,0,1-2.85-2.94c0-1.75,1-3.12,2.72-3.12a2.44,2.44,0,0,1,2.4,2.72,2.23,2.23,0,0,1,0,.5Zm3.09-.76a1.5,1.5,0,0,0-1.46-1.7,1.72,1.72,0,0,0-1.62,1.7Z" transform="translate(-0.9 -23.95)" style="fill:#0c0"/><path d="M162,175.93c0-.61,0-1.09,0-1.57h.94l.06,1h0a2.15,2.15,0,0,1,1.92-1.08c.8,0,2,.48,2,2.47v3.46h-1v-3.35c0-.94-.35-1.72-1.35-1.72a1.58,1.58,0,0,0-1.49,1.58v3.49H162Z" transform="translate(-0.9 -23.95)" style="fill:#0c0"/><path d="M169.86,173v1.39h1.51v.8h-1.51v3.13c0,.72.21,1.13.79,1.13a2,2,0,0,0,.62-.07l0,.8a2.59,2.59,0,0,1-.93.15,1.49,1.49,0,0,1-1.14-.45,2.25,2.25,0,0,1-.41-1.52v-3.17h-.9v-.8h.9v-1.08Z" transform="translate(-0.9 -23.95)" style="fill:#0c0"/><path d="M177.75,177.22a2.85,2.85,0,0,1-2.9,3.08,2.77,2.77,0,0,1-2.78-3,2.84,2.84,0,0,1,2.88-3.07A2.75,2.75,0,0,1,177.75,177.22Zm-4.6.05c0,1.28.72,2.24,1.75,2.24s1.77-.95,1.77-2.26c0-1-.5-2.22-1.74-2.22S173.15,176.18,173.15,177.27Z" transform="translate(-0.9 -23.95)" style="fill:#0c0"/><path d="M178.94,179.1a3,3,0,0,0,1.4.41c.76,0,1.11-.38,1.11-.87s-.3-.76-1.06-1c-1.06-.39-1.55-1-1.55-1.65a1.8,1.8,0,0,1,2-1.7,2.74,2.74,0,0,1,1.42.36l-.25.77a2.21,2.21,0,0,0-1.19-.35c-.62,0-1,.36-1,.79s.34.7,1.09,1c1,.37,1.52.87,1.52,1.74,0,1-.8,1.75-2.16,1.75a3.33,3.33,0,0,1-1.63-.41Z" transform="translate(-0.9 -23.95)" style="fill:#0c0"/><path d="M193.91,70.66c-13.83,7.17-48,11.16-63.59,35.45-9,14-18.46,33.76-29,35" transform="translate(-0.9 -23.95)" style="fill:none;stroke:#1e1ef4;stroke-miterlimit:10;stroke-width:2px"/><polygon points="198.42 42.16 188.1 45.16 192.47 46.88 193.15 51.53 198.42 42.16" style="fill:#1e1ef4"/><path d="M208.32,143.11c10.48-25.28,23.17-39.86,32-41,9.8-1.26,16.58,5.5,23,2,6.64-3.62,7.68-15.38,6.72-28" transform="translate(-0.9 -23.95)" style="fill:none;stroke:#1e1ef4;stroke-miterlimit:10;stroke-width:2px"/><polygon points="268.42 45.16 273.41 54.68 269.14 52.72 265.31 55.45 268.42 45.16" style="fill:#1e1ef4"/><path d="M154.32,145.11c11.68-5.09,19-21.82,37-43C201.81,89.76,217,81.39,224.49,73" transform="translate(-0.9 -23.95)" style="fill:none;stroke:#1e1ef4;stroke-miterlimit:10;stroke-width:2px"/><polygon points="227.42 43.16 225.21 53.68 223.17 49.45 218.48 49.12 227.42 43.16" style="fill:#1e1ef4"/></g></g></svg>