<svg xmlns="http://www.w3.org/2000/svg" viewBox="0 0 369 451"><title>simple_conditional</title><g id="Layer_2" data-name="Layer 2"><g id="simple_conditional"><line x1="137" y1="1" x2="137" y2="64.88" style="fill:none;stroke:#000;stroke-linecap:round;stroke-miterlimit:10;stroke-width:2px"/><polygon points="137 79 128.87 59.1 137 63.82 145.13 59.1 137 79"/><rect x="91.57" y="98.55" width="92.63" height="90.13" transform="translate(141.94 -55.44) rotate(45)" style="fill:none;stroke:#000;stroke-linecap:round;stroke-miterlimit:10;stroke-width:2px"/><polyline points="203 144 278 144 278 217.88" style="fill:none;stroke:#000;stroke-linecap:round;stroke-miterlimit:10;stroke-width:2px"/><polygon points="278 232 269.87 212.1 278 216.82 286.13 212.1 278 232"/><rect x="188" y="232" width="180" height="82" style="fill:none;stroke:#000;stroke-linecap:round;stroke-miterlimit:10;stroke-width:2px"/><polyline points="278 314.52 278 375 125.11 375 1 375 1 143 73 143" style="fill:none;stroke:#000;stroke-linecap:round;stroke-miterlimit:10;stroke-width:2px"/><line x1="137" y1="375" x2="137" y2="436.88" style="fill:none;stroke:#000;stroke-linecap:round;stroke-miterlimit:10;stroke-width:2px"/><polygon points="137 451 128.87 431.1 137 435.82 145.13 431.1 137 451"/><path d="M226,257.12c0-.87,0-1.57-.06-2.21H227l.07,1.16h0a2.65,2.65,0,0,1,2.41-1.3c1.65,0,2.89,1.39,2.89,3.43,0,2.44-1.5,3.64-3.1,3.64a2.38,2.38,0,0,1-2.09-1.06h0v3.68H226Zm1.21,1.81a2,2,0,0,0,.06.5,1.9,1.9,0,0,0,1.85,1.45c1.3,0,2.06-1.07,2.06-2.62,0-1.35-.72-2.51-2-2.51a1.94,1.94,0,0,0-1.86,1.51,2.21,2.21,0,0,0-.09.49Z"/><path d="M238.67,260.06a11.4,11.4,0,0,0,.1,1.63h-1.1l-.1-.86h0a2.52,2.52,0,0,1-2.08,1,1.93,1.93,0,0,1-2.07-1.94c0-1.64,1.46-2.54,4.08-2.53v-.14a1.39,1.39,0,0,0-1.55-1.55,3.25,3.25,0,0,0-1.77.5l-.29-.82a4.44,4.44,0,0,1,2.25-.59c2.07,0,2.57,1.41,2.57,2.76Zm-1.19-1.83c-1.34,0-2.87.21-2.87,1.53a1.08,1.08,0,0,0,1.15,1.17,1.72,1.72,0,0,0,1.67-1.13,1.44,1.44,0,0,0,0-.39Z"/><path d="M240.49,260.44a3.41,3.41,0,0,0,1.64.48c.88,0,1.3-.44,1.3-1s-.35-.9-1.24-1.23c-1.24-.45-1.81-1.11-1.81-1.92a2.1,2.1,0,0,1,2.34-2,3.12,3.12,0,0,1,1.65.42l-.29.9a2.63,2.63,0,0,0-1.39-.41c-.73,0-1.12.42-1.12.92s.39.82,1.27,1.17c1.17.43,1.78,1,1.78,2,0,1.2-.93,2-2.52,2a3.84,3.84,0,0,1-1.9-.47Z"/><path d="M252.34,258.24a3.32,3.32,0,0,1-3.38,3.6,3.23,3.23,0,0,1-3.25-3.49,3.31,3.31,0,0,1,3.36-3.58A3.21,3.21,0,0,1,252.34,258.24Zm-5.37.07c0,1.49.84,2.61,2.05,2.61s2.06-1.11,2.06-2.63c0-1.15-.58-2.6-2-2.6S247,257,247,258.31Z"/><path d="M253.72,260.44a3.41,3.41,0,0,0,1.64.48c.88,0,1.3-.44,1.3-1s-.35-.9-1.24-1.23c-1.24-.45-1.81-1.11-1.81-1.92a2.1,2.1,0,0,1,2.34-2,3.12,3.12,0,0,1,1.65.42l-.29.9a2.63,2.63,0,0,0-1.39-.41c-.73,0-1.12.42-1.12.92s.39.82,1.27,1.17c1.17.43,1.78,1,1.78,2,0,1.2-.94,2-2.52,2a3.84,3.84,0,0,1-1.9-.47Z"/><path d="M267.16,260.06a11.4,11.4,0,0,0,.1,1.63h-1.11l-.09-.86h0a2.52,2.52,0,0,1-2.08,1,1.93,1.93,0,0,1-2.07-1.94c0-1.64,1.46-2.54,4.07-2.53v-.14a1.39,1.39,0,0,0-1.54-1.55,3.31,3.31,0,0,0-1.78.5l-.28-.82a4.44,4.44,0,0,1,2.25-.59c2.07,0,2.57,1.41,2.57,2.76ZM266,258.23c-1.34,0-2.87.21-2.87,1.53a1.08,1.08,0,0,0,1.15,1.17,1.72,1.72,0,0,0,1.67-1.13,1.44,1.44,0,0,0,.05-.39Z"/><path d="M272.8,258.52a2.17,2.17,0,0,0,2.33,2.36,4.54,4.54,0,0,0,1.88-.35l.22.88a5.62,5.62,0,0,1-2.27.43,3.15,3.15,0,0,1-3.33-3.43c0-2,1.2-3.64,3.18-3.64,2.22,0,2.8,1.93,2.8,3.18a3.86,3.86,0,0,1,0,.57Zm3.62-.88a1.76,1.76,0,0,0-1.71-2,2,2,0,0,0-1.89,2Z"/><path d="M277.46,263.68a1.94,1.94,0,0,0,1.35-.53c.33-.38.47-.91.47-2.54v-5.7h1.24v6.18a3.67,3.67,0,0,1-.82,2.78,3.09,3.09,0,0,1-2.1.77Zm3.2-10.68a.77.77,0,0,1-1.53,0,.75.75,0,0,1,.77-.77A.74.74,0,0,1,280.66,253Z"/><path d="M283.22,258.52a2.17,2.17,0,0,0,2.32,2.36,4.5,4.5,0,0,0,1.88-.35l.23.88a5.71,5.71,0,0,1-2.27.43,3.16,3.16,0,0,1-3.34-3.43c0-2,1.21-3.64,3.18-3.64,2.23,0,2.8,1.93,2.8,3.18a2.84,2.84,0,0,1,0,.57Zm3.61-.88a1.75,1.75,0,0,0-1.71-2,2,2,0,0,0-1.89,2Z"/><path d="M294.38,261.45a4.85,4.85,0,0,1-1.95.39,3.22,3.22,0,0,1-3.37-3.46,3.45,3.45,0,0,1,3.64-3.61,3.93,3.93,0,0,1,1.71.36l-.28.94a3.11,3.11,0,0,0-1.43-.32,2.56,2.56,0,0,0,0,5.1,3.58,3.58,0,0,0,1.51-.32Z"/><path d="M301.49,259.83q0,1.07.06,1.86h-1.09l-.08-1.11h0a2.53,2.53,0,0,1-2.24,1.26c-1.07,0-2.34-.6-2.34-3v-4H297v3.74c0,1.29.41,2.17,1.51,2.17a1.78,1.78,0,0,0,1.63-1.13,1.73,1.73,0,0,0,.11-.63v-4.15h1.23Z"/><path d="M305,253.28v1.63h1.76v.94H305v3.65c0,.84.24,1.32.92,1.32a2.59,2.59,0,0,0,.72-.08l0,.93a3.17,3.17,0,0,1-1.09.17,1.71,1.71,0,0,1-1.33-.52,2.6,2.6,0,0,1-.48-1.77v-3.7h-1.05v-.94h1.05v-1.26Z"/><path d="M312.93,260.06a11.4,11.4,0,0,0,.1,1.63h-1.11l-.1-.86h0a2.51,2.51,0,0,1-2.07,1,1.93,1.93,0,0,1-2.08-1.94c0-1.64,1.46-2.54,4.08-2.53v-.14a1.39,1.39,0,0,0-1.54-1.55,3.28,3.28,0,0,0-1.78.5l-.28-.82a4.4,4.4,0,0,1,2.24-.59c2.07,0,2.58,1.41,2.58,2.76Zm-1.19-1.83c-1.35,0-2.87.21-2.87,1.53a1.08,1.08,0,0,0,1.15,1.17,1.7,1.7,0,0,0,1.66-1.13,1.48,1.48,0,0,0,.06-.39Z"/><path d="M314.91,257c0-.79,0-1.48-.05-2.11h1.08l.05,1.34h0a2.05,2.05,0,0,1,1.9-1.48,1.76,1.76,0,0,1,.33,0V256a1.76,1.76,0,0,0-.42,0,1.72,1.72,0,0,0-1.65,1.57,3.52,3.52,0,0,0,0,.58v3.61h-1.24Z"/><path d="M322.29,260.44a3.41,3.41,0,0,0,1.64.48c.88,0,1.3-.44,1.3-1s-.35-.9-1.24-1.23c-1.24-.45-1.81-1.11-1.81-1.92a2.1,2.1,0,0,1,2.34-2,3.1,3.1,0,0,1,1.65.42l-.29.9a2.63,2.63,0,0,0-1.39-.41c-.73,0-1.12.42-1.12.92s.39.82,1.28,1.17c1.16.43,1.77,1,1.77,2,0,1.2-.93,2-2.52,2a3.84,3.84,0,0,1-1.9-.47Z"/><path d="M329.38,253a.74.74,0,0,1-.79.76.72.72,0,0,1-.74-.76.75.75,0,0,1,.77-.77A.74.74,0,0,1,329.38,253ZM328,261.69v-6.78h1.24v6.78Z"/><path d="M235.43,268.54h1.23v9.95h-1.23Z"/><path d="M243.5,276.86a11.5,11.5,0,0,0,.09,1.63h-1.1l-.1-.86h0a2.52,2.52,0,0,1-2.08,1,1.93,1.93,0,0,1-2.07-1.94c0-1.64,1.46-2.54,4.08-2.53V274a1.39,1.39,0,0,0-1.54-1.55,3.26,3.26,0,0,0-1.78.5l-.28-.82a4.37,4.37,0,0,1,2.24-.59c2.07,0,2.58,1.41,2.58,2.76ZM242.31,275c-1.35,0-2.88.21-2.88,1.53a1.08,1.08,0,0,0,1.15,1.17,1.72,1.72,0,0,0,1.67-1.13,1.48,1.48,0,0,0,.06-.39Z"/><path d="M253.28,278.25a4.81,4.81,0,0,1-1.95.39,3.22,3.22,0,0,1-3.37-3.46,3.46,3.46,0,0,1,3.64-3.61,3.93,3.93,0,0,1,1.71.36l-.28.94a3.07,3.07,0,0,0-1.43-.32,2.35,2.35,0,0,0-2.39,2.56,2.32,2.32,0,0,0,2.35,2.54,3.58,3.58,0,0,0,1.51-.32Z"/><path d="M260.77,275a3.32,3.32,0,0,1-3.37,3.6,3.23,3.23,0,0,1-3.25-3.49,3.31,3.31,0,0,1,3.36-3.58A3.2,3.2,0,0,1,260.77,275Zm-5.36.07c0,1.49.84,2.61,2,2.61s2.06-1.11,2.06-2.64c0-1.14-.57-2.59-2-2.59S255.41,273.84,255.41,275.11Z"/><path d="M262.32,273.54c0-.71,0-1.27-.05-1.83h1.09l.07,1.12h0a2.5,2.5,0,0,1,2.24-1.26c.94,0,2.39.56,2.39,2.88v4h-1.23v-3.91c0-1.09-.4-2-1.57-2a1.76,1.76,0,0,0-1.65,1.26,1.64,1.64,0,0,0-.08.57v4.08h-1.24Z"/><path d="M275.93,268.54v8.2c0,.6,0,1.29.06,1.75H274.9l-.06-1.18h0a2.44,2.44,0,0,1-2.28,1.33c-1.64,0-2.92-1.38-2.92-3.44,0-2.26,1.4-3.63,3-3.63a2.29,2.29,0,0,1,2.05,1h0v-4Zm-1.21,5.93a2.24,2.24,0,0,0-.06-.52,1.81,1.81,0,0,0-1.78-1.41c-1.27,0-2,1.12-2,2.6s.69,2.51,2,2.51a1.86,1.86,0,0,0,1.81-1.47,2.26,2.26,0,0,0,.06-.53Z"/><path d="M279.36,269.8a.73.73,0,0,1-.78.76.72.72,0,0,1-.74-.76.76.76,0,1,1,1.52,0ZM278,278.49v-6.78h1.23v6.78Z"/><path d="M286.1,278.25a4.85,4.85,0,0,1-2,.39,3.22,3.22,0,0,1-3.38-3.46,3.46,3.46,0,0,1,3.65-3.61,3.93,3.93,0,0,1,1.71.36l-.28.94a3.11,3.11,0,0,0-1.43-.32,2.56,2.56,0,0,0,0,5.1,3.58,3.58,0,0,0,1.51-.32Z"/><path d="M288.91,269.8a.77.77,0,0,1-1.53,0,.75.75,0,0,1,.77-.77A.74.74,0,0,1,288.91,269.8Zm-1.37,8.69v-6.78h1.23v6.78Z"/><path d="M297,275a3.32,3.32,0,0,1-3.38,3.6,3.23,3.23,0,0,1-3.25-3.49,3.31,3.31,0,0,1,3.36-3.58A3.21,3.21,0,0,1,297,275Zm-5.37.07c0,1.49.84,2.61,2.05,2.61s2.06-1.11,2.06-2.64c0-1.14-.58-2.59-2-2.59S291.58,273.84,291.58,275.11Zm3.9-6.33-1.71,2h-.87l1.22-2Z"/><path d="M298.5,273.54c0-.71,0-1.27-.06-1.83h1.1l.07,1.12h0a2.52,2.52,0,0,1,2.25-1.26c.93,0,2.39.56,2.39,2.88v4H303v-3.91c0-1.09-.41-2-1.57-2a1.76,1.76,0,0,0-1.65,1.26,1.62,1.62,0,0,0-.09.57v4.08H298.5Z"/><path d="M309.92,275.32a2.17,2.17,0,0,0,2.33,2.36,4.54,4.54,0,0,0,1.88-.35l.22.88a5.62,5.62,0,0,1-2.27.43,3.15,3.15,0,0,1-3.33-3.43c0-2,1.2-3.64,3.18-3.64,2.22,0,2.8,1.93,2.8,3.18a3.86,3.86,0,0,1,0,.57Zm3.62-.88a1.76,1.76,0,0,0-1.71-2,2,2,0,0,0-1.89,2Z"/><path d="M316.08,277.24a3.41,3.41,0,0,0,1.64.48c.88,0,1.3-.44,1.3-1s-.35-.9-1.24-1.23c-1.24-.45-1.81-1.11-1.81-1.92a2.1,2.1,0,0,1,2.34-2A3.1,3.1,0,0,1,320,272l-.29.9a2.63,2.63,0,0,0-1.39-.41c-.73,0-1.12.42-1.12.92s.39.82,1.28,1.17c1.16.43,1.77,1,1.77,2,0,1.2-.93,2-2.52,2a3.84,3.84,0,0,1-1.9-.47Z"/><path d="M244.57,295.29l-3.09-9.44h1.33l1.47,4.65c.39,1.27.74,2.42,1,3.53h0c.26-1.09.64-2.28,1.07-3.52l1.6-4.66h1.3l-3.37,9.44Z"/><path d="M255.19,290.86h-3.66v3.41h4.09v1H250.3v-9.44h5.11v1h-3.88v3h3.66Z"/><path d="M257.2,286a14.47,14.47,0,0,1,2.34-.19,3.89,3.89,0,0,1,2.73.77,2.41,2.41,0,0,1,.74,1.81,2.47,2.47,0,0,1-1.76,2.39v0a2.37,2.37,0,0,1,1.37,1.91,15.12,15.12,0,0,0,.73,2.59h-1.26a11.15,11.15,0,0,1-.62-2.26c-.28-1.3-.8-1.79-1.9-1.83h-1.15v4.09H257.2Zm1.22,4.3h1.25c1.3,0,2.12-.71,2.12-1.79s-.88-1.75-2.17-1.75a5,5,0,0,0-1.2.1Z"/><path d="M264.73,286a15.25,15.25,0,0,1,2.59-.21,5.53,5.53,0,0,1,3.83,1.17,4.33,4.33,0,0,1,1.34,3.39,5,5,0,0,1-1.36,3.67,5.82,5.82,0,0,1-4.18,1.36,19.63,19.63,0,0,1-2.22-.11Zm1.22,8.35a10.78,10.78,0,0,0,1.23.05c2.62,0,4-1.45,4-4,0-2.23-1.24-3.65-3.82-3.65a6.87,6.87,0,0,0-1.43.13Z"/><path d="M275.39,292.32l-1,3h-1.26l3.22-9.44h1.45l3.23,9.44h-1.31l-1-3Zm3.11-.95-.94-2.72c-.21-.62-.35-1.18-.49-1.72h0c-.14.54-.28,1.13-.48,1.71l-.92,2.73Z"/><path d="M282.43,286a15.16,15.16,0,0,1,2.59-.21,5.48,5.48,0,0,1,3.82,1.17,4.3,4.3,0,0,1,1.35,3.39,5,5,0,0,1-1.36,3.67,5.85,5.85,0,0,1-4.19,1.36,19.44,19.44,0,0,1-2.21-.11Zm1.22,8.35a10.57,10.57,0,0,0,1.23.05c2.62,0,4-1.45,4-4,0-2.23-1.25-3.65-3.82-3.65a6.8,6.8,0,0,0-1.43.13Z"/><path d="M296.63,290.86H293v3.41h4.09v1h-5.32v-9.44h5.11v1H293v3h3.66Z"/><path d="M298.64,286a14.47,14.47,0,0,1,2.34-.19,3.89,3.89,0,0,1,2.73.77,2.41,2.41,0,0,1,.74,1.81,2.47,2.47,0,0,1-1.76,2.39v0a2.37,2.37,0,0,1,1.37,1.91,15.12,15.12,0,0,0,.73,2.59h-1.26a11.15,11.15,0,0,1-.62-2.26c-.28-1.3-.8-1.79-1.9-1.83h-1.15v4.09h-1.22Zm1.22,4.3h1.24c1.31,0,2.13-.71,2.13-1.79s-.88-1.75-2.17-1.75a5,5,0,0,0-1.2.1Z"/><path d="M307.77,292.32l-1,3h-1.26l3.22-9.44h1.46l3.22,9.44h-1.31l-1-3Zm3.11-.95-.94-2.72c-.21-.62-.35-1.18-.49-1.72h0c-.14.54-.28,1.13-.48,1.71l-.92,2.73Z"/><path d="M109.41,146.54a7.67,7.67,0,0,1-3.2.58c-3.42,0-6-2.16-6-6.16a6,6,0,0,1,6.34-6.37,6.55,6.55,0,0,1,2.88.54l-.4,1.28a5.53,5.53,0,0,0-2.43-.51c-2.84,0-4.74,1.82-4.74,5,0,3,1.72,4.88,4.65,4.88a6.21,6.21,0,0,0,2.57-.51Z"/><path d="M119,142.49a4.27,4.27,0,0,1-4.34,4.63,4.15,4.15,0,0,1-4.17-4.48,4.26,4.26,0,0,1,4.32-4.61A4.12,4.12,0,0,1,119,142.49Zm-6.89.09c0,1.91,1.08,3.35,2.63,3.35s2.64-1.42,2.64-3.38c0-1.48-.74-3.33-2.61-3.33S112.13,140.94,112.13,142.58Z"/><path d="M121,140.57c0-.92,0-1.64-.07-2.36h1.4l.09,1.44h0a3.22,3.22,0,0,1,2.88-1.62c1.2,0,3.08.72,3.08,3.71v5.18h-1.59v-5c0-1.41-.52-2.58-2-2.58a2.29,2.29,0,0,0-2.13,1.62,2.35,2.35,0,0,0-.11.74v5.24H121Z"/><path d="M138.52,134.14v10.53c0,.77,0,1.66.07,2.25h-1.41l-.07-1.51h-.05a3.15,3.15,0,0,1-2.94,1.71c-2.1,0-3.74-1.78-3.74-4.43,0-2.9,1.8-4.66,3.91-4.66a2.9,2.9,0,0,1,2.62,1.31h0v-5.2ZM137,141.75a3,3,0,0,0-.07-.66,2.34,2.34,0,0,0-2.29-1.82c-1.64,0-2.61,1.44-2.61,3.35,0,1.76.88,3.22,2.58,3.22a2.4,2.4,0,0,0,2.32-1.89,3,3,0,0,0,.07-.68Z"/><path d="M142.92,135.76a1,1,0,0,1-2,0,1,1,0,0,1,1-1A1,1,0,0,1,142.92,135.76Zm-1.76,11.16v-8.71h1.58v8.71Z"/><path d="M151.58,146.62a6.25,6.25,0,0,1-2.5.5,4.14,4.14,0,0,1-4.34-4.45,4.44,4.44,0,0,1,4.68-4.64,5.06,5.06,0,0,1,2.2.46l-.36,1.21a3.87,3.87,0,0,0-1.84-.41,3,3,0,0,0-3.08,3.29,3,3,0,0,0,3,3.26,4.65,4.65,0,0,0,1.94-.41Z"/><path d="M155.2,135.76a1,1,0,0,1-1,1,.93.93,0,0,1-.95-1,1,1,0,0,1,1-1A1,1,0,0,1,155.2,135.76Zm-1.76,11.16v-8.71H155v8.71Z"/><path d="M165.54,142.49a4.28,4.28,0,0,1-4.34,4.63,4.15,4.15,0,0,1-4.18-4.48,4.26,4.26,0,0,1,4.32-4.61A4.13,4.13,0,0,1,165.54,142.49Zm-6.9.09c0,1.91,1.08,3.35,2.63,3.35s2.64-1.42,2.64-3.38c0-1.48-.73-3.33-2.61-3.33S158.64,140.94,158.64,142.58Zm5-8.14L161.45,137h-1.12l1.57-2.58Z"/><path d="M167.53,140.57c0-.92,0-1.64-.07-2.36h1.4l.09,1.44h0a3.22,3.22,0,0,1,2.88-1.62c1.21,0,3.08.72,3.08,3.71v5.18h-1.59v-5c0-1.41-.52-2.58-2-2.58a2.29,2.29,0,0,0-2.13,1.62,2.35,2.35,0,0,0-.11.74v5.24h-1.58Z"/><path d="M219.2,130.2h2.14v-1.78l1.43-.4v2.18h4.8v1.2h-4.8v4.25a2.66,2.66,0,0,0,.63,1.95,2.49,2.49,0,0,0,1.82.63,3.12,3.12,0,0,0,1.41-.31,7.72,7.72,0,0,0,1.09-.67l.46,1.07a5.36,5.36,0,0,1-1.5.81,5.47,5.47,0,0,1-1.79.3,4.35,4.35,0,0,1-1.36-.21,3,3,0,0,1-1.9-1.74,4.13,4.13,0,0,1-.29-1.61V131.4H219.2Z"/><path d="M230.63,139.2V138h2.43V131.4h-2.43v-1.2H234l.29,1.17h.09a6.65,6.65,0,0,1,1.36-1,3.92,3.92,0,0,1,1.8-.39,1.84,1.84,0,0,1,1,.23,1.59,1.59,0,0,1,.58.69,3.55,3.55,0,0,1,.28,1.08,12.69,12.69,0,0,1,.07,1.45l-1.26,0a4.68,4.68,0,0,0-.22-1.68.83.83,0,0,0-.82-.53,2.93,2.93,0,0,0-1,.16,3.55,3.55,0,0,0-.78.39,4.93,4.93,0,0,0-.57.47,2.5,2.5,0,0,0-.34.4V138h3.45v1.21Z"/><path d="M246.76,130.2h2.57v6.14a13.21,13.21,0,0,0,.11,1.69h1.21v1.17h-2.41l-.06-1.53h-.07a3.83,3.83,0,0,1-1.24,1.26,3.47,3.47,0,0,1-1.87.48,4.39,4.39,0,0,1-1.4-.19,1.94,1.94,0,0,1-1-.65,3,3,0,0,1-.56-1.25,9,9,0,0,1-.18-2v-4h-1.21v-1.2h2.63v4.88a13,13,0,0,0,.06,1.32,3.24,3.24,0,0,0,.26,1,1.37,1.37,0,0,0,.58.61,2.16,2.16,0,0,0,1,.21,2.4,2.4,0,0,0,1.62-.61,3.93,3.93,0,0,0,1-1.53V131.4h-1.15Z"/><path d="M260.57,138.06a4.05,4.05,0,0,1-.77.54,5.29,5.29,0,0,1-1,.44,6.43,6.43,0,0,1-1.09.27,6.27,6.27,0,0,1-1.14.1,5.13,5.13,0,0,1-1.91-.33,3.7,3.7,0,0,1-1.39-1,4.19,4.19,0,0,1-.84-1.49,5.86,5.86,0,0,1-.29-1.94,6,6,0,0,1,.31-2,3.9,3.9,0,0,1,.91-1.47,4,4,0,0,1,1.44-.91,5.43,5.43,0,0,1,1.89-.32,5.89,5.89,0,0,1,1.5.2,2.91,2.91,0,0,1,1.3.75,3.46,3.46,0,0,1,.87,1.51,6.87,6.87,0,0,1,.22,2.49h-7a3.13,3.13,0,0,0,.87,2.42,3.28,3.28,0,0,0,2.33.8,4.49,4.49,0,0,0,1-.11,7.89,7.89,0,0,0,.9-.28,5,5,0,0,0,.77-.36A3.11,3.11,0,0,0,260,137Zm-3.79-6.89a4.6,4.6,0,0,0-1.13.13,2.47,2.47,0,0,0-.93.42,2.25,2.25,0,0,0-.66.77,2.88,2.88,0,0,0-.33,1.18h5.58a2.74,2.74,0,0,0-.77-1.84A2.4,2.4,0,0,0,256.78,131.17Z"/><path d="M11.72,139.11V137.9h2.15v-6.58H11.72v-1.21h2.15v-.5a3.05,3.05,0,0,1,.88-2.45,3.72,3.72,0,0,1,2.52-.76,8.31,8.31,0,0,1,1.06.07,5.06,5.06,0,0,1,1,.29L19,127.93a3.56,3.56,0,0,0-.89-.26,5.79,5.79,0,0,0-.79-.06,1.87,1.87,0,0,0-1.61.58,3.28,3.28,0,0,0-.43,1.92H19v1.21H15.29v6.58H19v1.21Z"/><path d="M22.88,130.81a5.7,5.7,0,0,1,1.75-.64,9,9,0,0,1,1.91-.2,3.43,3.43,0,0,1,1.5.28A2.57,2.57,0,0,1,29,131a2.75,2.75,0,0,1,.45,1.05,5.79,5.79,0,0,1,.11,1.17c0,.46,0,.95,0,1.46s0,1,0,1.55a13.33,13.33,0,0,0,.1,1.71h1.21v1.17H28.37l-.16-1.35h-.09a3.65,3.65,0,0,1-.32.41,3.18,3.18,0,0,1-.57.5,3.83,3.83,0,0,1-.86.42,3.59,3.59,0,0,1-1.19.18,3.09,3.09,0,0,1-2.11-.68,2.37,2.37,0,0,1-.78-1.87,2.61,2.61,0,0,1,.41-1.53,2.54,2.54,0,0,1,1.16-.94,5.39,5.39,0,0,1,1.83-.38,12.21,12.21,0,0,1,2.41.15,6.57,6.57,0,0,0,0-1.38,1.82,1.82,0,0,0-.29-.87,1.19,1.19,0,0,0-.63-.46,3.21,3.21,0,0,0-1-.14,5.35,5.35,0,0,0-1.56.23c-.49.15-.93.3-1.32.46Zm2.67,7.26a2.6,2.6,0,0,0,.93-.17,2.64,2.64,0,0,0,.76-.41,2.8,2.8,0,0,0,.54-.55,3,3,0,0,0,.32-.56v-1.27a11,11,0,0,0-1.72-.16,5,5,0,0,0-1.37.17,2,2,0,0,0-.9.53,1.37,1.37,0,0,0-.33.94,1.5,1.5,0,0,0,.41,1A1.79,1.79,0,0,0,25.55,138.07Z"/><path d="M33.88,126.51h3v9.58a2.43,2.43,0,0,0,.37,1.54,1.27,1.27,0,0,0,1.08.45,2.65,2.65,0,0,0,1-.18,3.92,3.92,0,0,0,1-.61l.65,1a3.59,3.59,0,0,1-.63.45,4.1,4.1,0,0,1-.7.34,5,5,0,0,1-.73.2,3.23,3.23,0,0,1-.66.07,3.7,3.7,0,0,1-1.2-.17,1.89,1.89,0,0,1-.87-.55,2.35,2.35,0,0,1-.53-1,5.26,5.26,0,0,1-.19-1.54v-8.37H33.88Z"/><path d="M50.4,136.68a1,1,0,0,0-.44-.89,3.51,3.51,0,0,0-1.12-.5c-.44-.13-.92-.25-1.44-.35A8.78,8.78,0,0,1,46,134.5a3.2,3.2,0,0,1-1.11-.73,1.74,1.74,0,0,1-.45-1.28,2.17,2.17,0,0,1,.3-1.17,2.48,2.48,0,0,1,.78-.8,3.55,3.55,0,0,1,1.14-.47A5.94,5.94,0,0,1,48,129.9a6.68,6.68,0,0,1,2.17.31,7,7,0,0,1,1.44.66L51,132a13.9,13.9,0,0,0-1.28-.62,4.36,4.36,0,0,0-1.73-.3,4,4,0,0,0-.78.08,2.75,2.75,0,0,0-.7.25,1.41,1.41,0,0,0-.51.42,1.1,1.1,0,0,0-.19.64.79.79,0,0,0,.45.72,4.38,4.38,0,0,0,1.12.42c.44.12.92.22,1.44.33a7.21,7.21,0,0,1,1.45.44,3.29,3.29,0,0,1,1.11.77,1.84,1.84,0,0,1,.45,1.31,2.57,2.57,0,0,1-1,2.06,4.57,4.57,0,0,1-3,.81,6.62,6.62,0,0,1-1.17-.11,7.18,7.18,0,0,1-2-.69,4.44,4.44,0,0,1-.68-.46l.72-1.17a3.23,3.23,0,0,0,.57.44,5.84,5.84,0,0,0,.79.4,5.31,5.31,0,0,0,.93.29,4.77,4.77,0,0,0,1,.11,5.14,5.14,0,0,0,.91-.08,2.92,2.92,0,0,0,.74-.25,1.53,1.53,0,0,0,.52-.45A1.25,1.25,0,0,0,50.4,136.68Z"/><path d="M62.86,138a5.1,5.1,0,0,1-.76.54,5.7,5.7,0,0,1-1,.43,7.56,7.56,0,0,1-1.09.28,7.21,7.21,0,0,1-1.14.1A4.93,4.93,0,0,1,57,139a3.67,3.67,0,0,1-1.38-1,4,4,0,0,1-.85-1.49,6.13,6.13,0,0,1-.29-1.94,6,6,0,0,1,.32-2,3.86,3.86,0,0,1,.91-1.47,3.81,3.81,0,0,1,1.44-.91A5.35,5.35,0,0,1,59,129.9a5.8,5.8,0,0,1,1.49.19,3,3,0,0,1,1.31.75,3.74,3.74,0,0,1,.87,1.51,7.15,7.15,0,0,1,.21,2.49H56a3.16,3.16,0,0,0,.87,2.43,3.3,3.3,0,0,0,2.32.8,3.89,3.89,0,0,0,1-.12,8.06,8.06,0,0,0,.91-.28,4.9,4.9,0,0,0,.76-.36,3.11,3.11,0,0,0,.51-.36Zm-3.79-6.9a4.52,4.52,0,0,0-1.12.13,2.47,2.47,0,0,0-.93.42,2.43,2.43,0,0,0-.67.78,3.17,3.17,0,0,0-.33,1.17H61.6a2.76,2.76,0,0,0-.76-1.84A2.42,2.42,0,0,0,59.07,131.08Z"/></g></g></svg>