<svg xmlns="http://www.w3.org/2000/svg" viewBox="0 0 401.01 507.5"><g id="Layer_2" data-name="Layer 2"><g id="Layer_1-2" data-name="Layer 1"><line x1="141.51" x2="141.51" y2="99.88" style="fill:none;stroke:#000;stroke-miterlimit:10;stroke-width:2px"/><polygon points="141.51 114 133.38 94.1 141.51 98.82 149.64 94.1 141.51 114"/><rect x="81.87" y="139.62" width="120.76" height="120.76" transform="translate(-100.9 159.17) rotate(-45)" style="fill:#fff;stroke:#000;stroke-miterlimit:10;stroke-width:2px"/><polyline points="226.01 200.5 311.01 200.5 311.01 278.38" style="fill:none;stroke:#000;stroke-miterlimit:10;stroke-width:2px"/><polygon points="311.01 292.5 302.88 272.6 311.01 277.32 319.14 272.6 311.01 292.5"/><rect x="220.01" y="292.5" width="180" height="101" style="fill:#fff;stroke:#000;stroke-miterlimit:10;stroke-width:2px"/><polyline points="56.01 200.5 13.01 200.5 13.01 431.21 141.01 431.21 141.01 493.38" style="fill:none;stroke:#000;stroke-miterlimit:10;stroke-width:2px"/><polygon points="141.01 507.5 132.88 487.6 141.01 492.32 149.14 487.6 141.01 507.5"/><polyline points="310.01 393.5 310.01 431.5 141.01 431.5" style="fill:none;stroke:#000;stroke-miterlimit:10;stroke-width:2px"/><path d="M93.32,202.37a9.73,9.73,0,0,1-3.13.56,5.09,5.09,0,0,1-2.62-.68,4.89,4.89,0,0,1-1.79-1.85,5.39,5.39,0,0,1-.64-2.65A5.08,5.08,0,0,1,86.6,194a4.77,4.77,0,0,1,3.51-1.48,9.84,9.84,0,0,1,3.21.58v1.57a7.51,7.51,0,0,0-3.06-.78,3.36,3.36,0,0,0-1.69.44,2.91,2.91,0,0,0-1.22,1.38,4.6,4.6,0,0,0-.43,1.94,4.34,4.34,0,0,0,.83,2.53,2.94,2.94,0,0,0,2.6,1.2,7.45,7.45,0,0,0,1.06-.07,12.91,12.91,0,0,0,1.91-.55Z" transform="translate(-1.14)"/><path d="M99.9,202.93a4.2,4.2,0,0,1-3.37-1.48,6.09,6.09,0,0,1,0-7.42,4.6,4.6,0,0,1,6.74,0,6.09,6.09,0,0,1,0,7.42A4.21,4.21,0,0,1,99.9,202.93Zm0-1.37a2.47,2.47,0,0,0,2.08-1,5.46,5.46,0,0,0,0-5.59,2.64,2.64,0,0,0-4.17,0,5.46,5.46,0,0,0,0,5.59A2.49,2.49,0,0,0,99.9,201.56Z" transform="translate(-1.14)"/><path d="M106.67,202.65v-9.81h1.63V195a5.45,5.45,0,0,1,1.7-1.77,3.61,3.61,0,0,1,2-.65,2.82,2.82,0,0,1,1.58.47,2.43,2.43,0,0,1,1,1.2,9.75,9.75,0,0,1,.29,2.94v5.48h-1.64V197a8.14,8.14,0,0,0-.13-1.87,1.47,1.47,0,0,0-.5-.74,1.23,1.23,0,0,0-.8-.29,3,3,0,0,0-1.85.81,6.63,6.63,0,0,0-1.63,2.05v5.72Z" transform="translate(-1.14)"/><path d="M125.68,202.26a9.29,9.29,0,0,1-1.67.57,5.08,5.08,0,0,1-1,.1,4.49,4.49,0,0,1-1.88-.4,2.75,2.75,0,0,1-1.28-1.17,5,5,0,0,1-.44-2.39V195H117v-1.37h2.45v-4H121v4h4.36V195H121V199a3.55,3.55,0,0,0,.28,1.67,1.74,1.74,0,0,0,.75.72,2.53,2.53,0,0,0,1.11.22,5.06,5.06,0,0,0,2.5-.74Z" transform="translate(-1.14)"/><path d="M131,202.65V194.2H128.3v-1.36h4.35v8.45h2.74v1.36Zm-.26-13.36a.94.94,0,0,1,.37-.82,1.08,1.08,0,0,1,1.43,0,1.06,1.06,0,0,1,0,1.63,1.05,1.05,0,0,1-1.43,0A.93.93,0,0,1,130.76,189.29Z" transform="translate(-1.14)"/><path d="M147.28,202.26a9,9,0,0,1-1.67.57,5.06,5.06,0,0,1-1,.1,4.46,4.46,0,0,1-1.88-.4,2.73,2.73,0,0,1-1.29-1.17A5,5,0,0,1,141,199V195h-2.45v-1.37H141v-4h1.64v4H147V195h-4.37V199a3.55,3.55,0,0,0,.28,1.67,1.85,1.85,0,0,0,.75.72,2.59,2.59,0,0,0,1.11.22,5,5,0,0,0,2.5-.74Z" transform="translate(-1.14)"/><path d="M152.62,202.65V194.2H149.9v-1.36h4.36v8.45H157v1.36Zm-.26-13.36a.94.94,0,0,1,.38-.82,1.22,1.22,0,0,1,.71-.27,1.24,1.24,0,0,1,.71.27,1.06,1.06,0,0,1,0,1.63,1.19,1.19,0,0,1-.71.28,1.17,1.17,0,0,1-.71-.28A.94.94,0,0,1,152.36,189.29Z" transform="translate(-1.14)"/><path d="M164.71,202.93a4.2,4.2,0,0,1-3.37-1.48,6.09,6.09,0,0,1,0-7.42,4.6,4.6,0,0,1,6.74,0,6.09,6.09,0,0,1,0,7.42A4.21,4.21,0,0,1,164.71,202.93Zm0-1.37a2.47,2.47,0,0,0,2.08-1,5.46,5.46,0,0,0,0-5.59,2.47,2.47,0,0,0-2.08-1,2.5,2.5,0,0,0-2.09,1,5.46,5.46,0,0,0,0,5.59A2.5,2.5,0,0,0,164.71,201.56Z" transform="translate(-1.14)"/><path d="M171.48,202.65v-9.81h1.63V195a5.55,5.55,0,0,1,1.7-1.77,3.61,3.61,0,0,1,2-.65,2.88,2.88,0,0,1,1.59.47,2.46,2.46,0,0,1,1,1.2,9.75,9.75,0,0,1,.29,2.94v5.48H178V197a8.14,8.14,0,0,0-.13-1.87,1.47,1.47,0,0,0-.5-.74,1.23,1.23,0,0,0-.8-.29,3,3,0,0,0-1.85.81,6.63,6.63,0,0,0-1.63,2.05v5.72Z" transform="translate(-1.14)"/><path d="M188.73,200.46a5.42,5.42,0,0,1-1.8,1.85,3.88,3.88,0,0,1-1.93.62,3,3,0,0,1-2.21-1.07,4.63,4.63,0,0,1-1-3.22,7,7,0,0,1,.65-3,5.57,5.57,0,0,1,1.75-2.12,4.56,4.56,0,0,1,2.7-.77c.31,0,.78,0,1.4.09l.42.05h1.64v6.93a9.13,9.13,0,0,0,.38,2.88h-1.7A13.71,13.71,0,0,1,188.73,200.46Zm0-2v-4.21a6.08,6.08,0,0,0-1.62-.23,3.18,3.18,0,0,0-2.52,1.17,4.67,4.67,0,0,0-1,3.18,3.68,3.68,0,0,0,.55,2.21,1.55,1.55,0,0,0,1.25.74,2.76,2.76,0,0,0,1.69-.77A7.33,7.33,0,0,0,188.74,198.5Z" transform="translate(-1.14)"/><path d="M195.72,202.65V189.83h-2.94v-1.36h4.57v12.82h3.07v1.36Z" transform="translate(-1.14)"/><path d="M261.46,348V346.3a6.38,6.38,0,0,0,2.08.9,8.47,8.47,0,0,0,1.86.26,3.08,3.08,0,0,0,1.79-.4,1.21,1.21,0,0,0,.54-1,1,1,0,0,0-.25-.67,4,4,0,0,0-1.27-.7l-.56-.23-1.13-.44a6,6,0,0,1-2.31-1.32,2.27,2.27,0,0,1-.48-1.46,2.48,2.48,0,0,1,.94-2,4.74,4.74,0,0,1,3-.78,9.44,9.44,0,0,1,3,.46v1.48a9.2,9.2,0,0,0-3-.58,3,3,0,0,0-1.63.37,1,1,0,0,0-.58.91.94.94,0,0,0,.5.84,9,9,0,0,0,1.64.73l1.11.4a5.6,5.6,0,0,1,2.13,1.21,2.26,2.26,0,0,1,.62,1.62,2.63,2.63,0,0,1-1,2.1,4.86,4.86,0,0,1-3.14.82A10.33,10.33,0,0,1,261.46,348Z" transform="translate(-1.14)"/><path d="M280.35,348.15a8.31,8.31,0,0,1-1.67.58,5.81,5.81,0,0,1-1,.09,4.49,4.49,0,0,1-1.88-.39,2.83,2.83,0,0,1-1.29-1.17,5.07,5.07,0,0,1-.43-2.39v-4h-2.45v-1.36h2.45V335.6h1.63v3.95h4.37v1.36h-4.37v3.93a3.74,3.74,0,0,0,.28,1.68,1.73,1.73,0,0,0,.76.71,2.53,2.53,0,0,0,1.11.23,5,5,0,0,0,2.49-.75Z" transform="translate(-1.14)"/><path d="M289.4,346.35a5.24,5.24,0,0,1-1.8,1.85,3.78,3.78,0,0,1-1.93.62,2.93,2.93,0,0,1-2.21-1.06,4.64,4.64,0,0,1-1-3.23,6.92,6.92,0,0,1,.65-3,5.56,5.56,0,0,1,1.74-2.12,4.54,4.54,0,0,1,2.71-.78,13.56,13.56,0,0,1,1.4.1l.42,0H291v6.94a9.17,9.17,0,0,0,.38,2.88h-1.71A15.59,15.59,0,0,1,289.4,346.35Zm0-2v-4.22a6.51,6.51,0,0,0-1.62-.23,3.22,3.22,0,0,0-2.53,1.17,4.76,4.76,0,0,0-1,3.19,3.64,3.64,0,0,0,.55,2.2,1.54,1.54,0,0,0,1.25.75,2.73,2.73,0,0,0,1.69-.78A7.28,7.28,0,0,0,289.41,344.4Z" transform="translate(-1.14)"/><path d="M302,348.15a8.76,8.76,0,0,1-1.67.58,5.89,5.89,0,0,1-1,.09,4.5,4.5,0,0,1-1.89-.39,2.86,2.86,0,0,1-1.28-1.17,5,5,0,0,1-.44-2.39v-4h-2.45v-1.36h2.45V335.6h1.64v3.95h4.37v1.36h-4.37v3.93a3.6,3.6,0,0,0,.28,1.68,1.76,1.76,0,0,0,.75.71,2.53,2.53,0,0,0,1.11.23,5.08,5.08,0,0,0,2.5-.75Z" transform="translate(-1.14)"/><path d="M312.72,347.9a8.84,8.84,0,0,1-3.71.92,4.37,4.37,0,0,1-2.38-.66,4.65,4.65,0,0,1-1.67-1.88,5.66,5.66,0,0,1-.63-2.62,5.81,5.81,0,0,1,.6-2.58,4.57,4.57,0,0,1,1.67-1.93,4.31,4.31,0,0,1,2.39-.69,3.53,3.53,0,0,1,2.81,1.25,5.87,5.87,0,0,1,1.06,3.84v.35h-6.77a4.14,4.14,0,0,0,.42,1.87,3.06,3.06,0,0,0,1.13,1.27,3,3,0,0,0,1.58.42,7.34,7.34,0,0,0,3.5-1.06Zm-6.53-5.22h4.89v-.24a2.93,2.93,0,0,0-.59-1.91,2,2,0,0,0-1.57-.71,2.33,2.33,0,0,0-1.72.73A4.09,4.09,0,0,0,306.19,342.68Z" transform="translate(-1.14)"/><path d="M314.61,348.55v-9.82h1.44V341a6.67,6.67,0,0,1,1.26-2,1.72,1.72,0,0,1,1.18-.55,1.4,1.4,0,0,1,1.15.56,2.52,2.52,0,0,1,.43,1.58v.53a5.3,5.3,0,0,1,.7-1.45,4.28,4.28,0,0,1,.85-.89,1.63,1.63,0,0,1,1-.33,1.36,1.36,0,0,1,1.08.54,3.51,3.51,0,0,1,.45,2.13v7.42h-1.43v-6.71a7,7,0,0,0-.06-1.13.79.79,0,0,0-.21-.46.48.48,0,0,0-.34-.15c-.31,0-.63.23-1,.69a9,9,0,0,0-1.07,2.32v5.44h-1.36v-6.7c0-.86-.09-1.37-.26-1.53a.72.72,0,0,0-.45-.22c-.3,0-.63.26-1,.78a10.65,10.65,0,0,0-1,2v5.67Z" transform="translate(-1.14)"/><path d="M334.32,347.9a8.8,8.8,0,0,1-3.71.92,4.34,4.34,0,0,1-2.37-.66,4.61,4.61,0,0,1-1.68-1.88,5.66,5.66,0,0,1-.63-2.62,5.81,5.81,0,0,1,.6-2.58,4.64,4.64,0,0,1,1.67-1.93,4.33,4.33,0,0,1,2.39-.69,3.51,3.51,0,0,1,2.81,1.25,5.81,5.81,0,0,1,1.06,3.84v.35h-6.77a4,4,0,0,0,.43,1.87,3,3,0,0,0,1.12,1.27,3,3,0,0,0,1.58.42,7.3,7.3,0,0,0,3.5-1.06Zm-6.53-5.22h4.89v-.24a2.92,2.92,0,0,0-.58-1.91,2,2,0,0,0-1.58-.71,2.35,2.35,0,0,0-1.72.73A4.09,4.09,0,0,0,327.79,342.68Z" transform="translate(-1.14)"/><path d="M337,348.55v-9.82h1.63v2.15a5.49,5.49,0,0,1,1.7-1.78,3.6,3.6,0,0,1,2-.64,2.81,2.81,0,0,1,1.58.46,2.45,2.45,0,0,1,1,1.21,9.75,9.75,0,0,1,.29,2.94v5.48H343.5v-5.69a8.09,8.09,0,0,0-.13-1.86,1.49,1.49,0,0,0-.5-.75,1.29,1.29,0,0,0-.8-.29,3,3,0,0,0-1.85.82,6.63,6.63,0,0,0-1.63,2.05v5.72Z" transform="translate(-1.14)"/><path d="M356,348.15a8.76,8.76,0,0,1-1.67.58,5.92,5.92,0,0,1-1,.09,4.49,4.49,0,0,1-1.88-.39,2.86,2.86,0,0,1-1.28-1.17,5,5,0,0,1-.44-2.39v-4h-2.45v-1.36h2.45V335.6h1.64v3.95h4.36v1.36h-4.36v3.93a3.6,3.6,0,0,0,.28,1.68,1.66,1.66,0,0,0,.75.71,2.53,2.53,0,0,0,1.11.23,5.08,5.08,0,0,0,2.5-.75Z" transform="translate(-1.14)"/><path d="M358.67,348V346.3a6.43,6.43,0,0,0,2.09.9,8.47,8.47,0,0,0,1.86.26,3,3,0,0,0,1.78-.4,1.19,1.19,0,0,0,.55-1,1,1,0,0,0-.26-.67,4,4,0,0,0-1.26-.7l-.56-.23-1.14-.44a5.94,5.94,0,0,1-2.3-1.32,2.27,2.27,0,0,1-.48-1.46,2.5,2.5,0,0,1,.93-2,4.76,4.76,0,0,1,3-.78,9.5,9.5,0,0,1,3,.46v1.48a9.25,9.25,0,0,0-3.05-.58,3,3,0,0,0-1.62.37,1.06,1.06,0,0,0-.59.91,1,1,0,0,0,.51.84,8.7,8.7,0,0,0,1.64.73l1.11.4a5.68,5.68,0,0,1,2.13,1.21,2.25,2.25,0,0,1,.61,1.62,2.61,2.61,0,0,1-1,2.1,4.81,4.81,0,0,1-3.13.82A10.41,10.41,0,0,1,358.67,348Z" transform="translate(-1.14)"/><path d="M289.64,192.7a7.47,7.47,0,0,1-1.3.45,4.26,4.26,0,0,1-.78.07,3.5,3.5,0,0,1-1.46-.3,2.16,2.16,0,0,1-1-.91,3.87,3.87,0,0,1-.34-1.86v-3.08h-1.91V186h1.91v-3.07H286V186h3.4v1.06H286v3.06a2.73,2.73,0,0,0,.22,1.3,1.36,1.36,0,0,0,.58.56,2.11,2.11,0,0,0,.87.17,3.91,3.91,0,0,0,1.94-.58Z" transform="translate(-1.14)"/><path d="M292.3,193v-7.63h1.28V187a4.29,4.29,0,0,1,1.36-1.41,3.23,3.23,0,0,1,1.71-.47,4.42,4.42,0,0,1,1.38.22v2.75h-1.22v-1.74a3,3,0,0,0-.51-.06,2.19,2.19,0,0,0-1.39.56,6.1,6.1,0,0,0-1.33,1.69V193Z" transform="translate(-1.14)"/><path d="M306.34,185.38V193h-1.27v-1.67a4.52,4.52,0,0,1-1.37,1.41,2.75,2.75,0,0,1-1.5.47,2.21,2.21,0,0,1-1.23-.36,1.88,1.88,0,0,1-.78-.94,7.89,7.89,0,0,1-.22-2.28v-4.26h1.28v4.42a6.34,6.34,0,0,0,.1,1.45,1.12,1.12,0,0,0,.39.58,1,1,0,0,0,.61.22,2.33,2.33,0,0,0,1.44-.63,5.18,5.18,0,0,0,1.28-1.59v-4.45Z" transform="translate(-1.14)"/><path d="M314.81,192.5a6.79,6.79,0,0,1-2.89.72,3.4,3.4,0,0,1-1.84-.51,3.63,3.63,0,0,1-1.3-1.46,4.38,4.38,0,0,1-.49-2,4.55,4.55,0,0,1,.46-2,3.6,3.6,0,0,1,1.3-1.5,3.37,3.37,0,0,1,1.86-.54,2.73,2.73,0,0,1,2.18,1,4.56,4.56,0,0,1,.83,3v.28h-5.27a3.07,3.07,0,0,0,.34,1.45,2.27,2.27,0,0,0,.87,1,2.31,2.31,0,0,0,1.23.33,5.72,5.72,0,0,0,2.72-.82Zm-5.08-4.05h3.81v-.19a2.26,2.26,0,0,0-.46-1.48,1.52,1.52,0,0,0-1.23-.56,1.8,1.8,0,0,0-1.33.57A3.11,3.11,0,0,0,309.73,188.45Z" transform="translate(-1.14)"/><path d="M2.84,194v-5.95H1.14V187h1.7v-.35a5.43,5.43,0,0,1,.34-2.23,2.93,2.93,0,0,1,1.05-1.19,3.44,3.44,0,0,1,1.89-.46,9.33,9.33,0,0,1,1.81.18v1.2a5.93,5.93,0,0,0-1.76-.32,2.44,2.44,0,0,0-1.07.22,1.63,1.63,0,0,0-.73.74,4.13,4.13,0,0,0-.26,1.72V187h3v1.06h-3V194Z" transform="translate(-1.14)"/><path d="M14.48,192.3a4,4,0,0,1-1.4,1.44,3,3,0,0,1-1.5.48,2.29,2.29,0,0,1-1.72-.82,3.59,3.59,0,0,1-.76-2.51,5.43,5.43,0,0,1,.5-2.37A4.2,4.2,0,0,1,11,186.87a3.56,3.56,0,0,1,2.1-.6c.24,0,.61,0,1.09.07l.33,0h1.28v5.39a7,7,0,0,0,.29,2.24H14.72A12,12,0,0,1,14.48,192.3Zm0-1.52V187.5a5.48,5.48,0,0,0-1.26-.17,2.49,2.49,0,0,0-2,.91,3.66,3.66,0,0,0-.78,2.47,2.85,2.85,0,0,0,.43,1.72,1.22,1.22,0,0,0,1,.58,2.11,2.11,0,0,0,1.32-.61A5.69,5.69,0,0,0,14.49,190.78Z" transform="translate(-1.14)"/><path d="M19.91,194V184H17.63V183h3.55v10h2.39V194Z" transform="translate(-1.14)"/><path d="M26.35,193.61v-1.35A5,5,0,0,0,28,193a6.22,6.22,0,0,0,1.45.2,2.38,2.38,0,0,0,1.39-.31.91.91,0,0,0,.42-.77.77.77,0,0,0-.19-.53,3.33,3.33,0,0,0-1-.54l-.44-.18-.88-.35a4.48,4.48,0,0,1-1.79-1,1.76,1.76,0,0,1-.38-1.14,2,2,0,0,1,.73-1.55,3.74,3.74,0,0,1,2.37-.61,7.37,7.37,0,0,1,2.32.36v1.15a7.06,7.06,0,0,0-2.37-.45,2.35,2.35,0,0,0-1.26.29.81.81,0,0,0-.46.7.73.73,0,0,0,.4.66,7,7,0,0,0,1.27.57l.86.31a4.36,4.36,0,0,1,1.66.94,1.77,1.77,0,0,1,.48,1.26,2,2,0,0,1-.76,1.63,3.75,3.75,0,0,1-2.44.64A8.13,8.13,0,0,1,26.35,193.61Z" transform="translate(-1.14)"/><path d="M41,193.5a6.79,6.79,0,0,1-2.89.72,3.37,3.37,0,0,1-1.84-.51A3.65,3.65,0,0,1,35,192.25a4.51,4.51,0,0,1-.49-2,4.56,4.56,0,0,1,.47-2,3.6,3.6,0,0,1,1.3-1.5,3.32,3.32,0,0,1,1.86-.54,2.75,2.75,0,0,1,2.18,1,4.56,4.56,0,0,1,.82,3v.28H35.86a3.19,3.19,0,0,0,.33,1.45,2.27,2.27,0,0,0,.87,1,2.31,2.31,0,0,0,1.23.33,5.72,5.72,0,0,0,2.73-.82Zm-5.08-4.05h3.8v-.19a2.25,2.25,0,0,0-.45-1.48,1.53,1.53,0,0,0-1.23-.56,1.8,1.8,0,0,0-1.33.57A3.11,3.11,0,0,0,35.94,189.45Z" transform="translate(-1.14)"/></g></g></svg>